<?xml version='1.0' encoding='UTF-8'?>
<svg xmlns="http://www.w3.org/2000/svg" viewBox="0 0 27 32" width="27" height="32" version="1.1"><path d="m 27.429,24 v 2.286 q 0,0.464 -0.339,0.804 -0.339,0.34 -0.804,0.339 H 1.143 Q 0.679,27.429 0.339,27.09 -0.001,26.751 0,26.286 V 24 q 0,-0.464 0.339,-0.804 0.339,-0.34 0.804,-0.339 h 25.143 q 0.464,0 0.804,0.339 0.34,0.339 0.339,0.804 z m 0,-9.143 v 2.286 q 0,0.464 -0.339,0.804 -0.339,0.34 -0.804,0.339 H 1.143 q -0.464,0 -0.804,-0.339 Q -0.001,17.608 0,17.143 v -2.286 q 0,-0.464 0.339,-0.804 0.339,-0.34 0.804,-0.339 h 25.143 q 0.464,0 0.804,0.339 0.34,0.339 0.339,0.804 z m 0,-9.143 V 8 q 0,0.464 -0.339,0.804 -0.339,0.34 -0.804,0.339 H 1.143 Q 0.679,9.143 0.339,8.804 -0.001,8.465 0,8 V 5.714 Q 0,5.25 0.339,4.91 0.678,4.57 1.143,4.571 h 25.143 q 0.464,0 0.804,0.339 0.34,0.339 0.339,0.804 z"/>
    </svg>
