<?xml version='1.0' encoding='UTF-8'?>
<svg xmlns="http://www.w3.org/2000/svg" viewBox="0 0 19 32" width="19" height="32" version="1.1"><path d="m 16.857,23.732 1.429,4.232 q -0.411,0.625 -1.982,1.179 -1.571,0.554 -3.161,0.571 Q 11.286,29.75 9.741,29.25 8.196,28.75 7.196,27.929 6.196,27.108 5.5,26.036 4.804,24.964 4.509,23.893 4.214,22.822 4.214,21.786 v -9.714 h -3 V 8.233 Q 2.5,7.769 3.518,6.992 4.536,6.215 5.143,5.385 5.75,4.555 6.179,3.564 6.608,2.573 6.786,1.796 6.964,1.019 7.054,0.216 7.072,0.127 7.134,0.064 7.196,0.001 7.268,0.001 h 4.357 v 7.571 h 5.946 v 4.5 h -5.964 v 9.25 q 0,0.536 0.116,1 0.116,0.464 0.402,0.938 0.286,0.474 0.884,0.741 0.598,0.267 1.455,0.25 1.393,-0.036 2.393,-0.518 z"/>
    </svg>
