<?xml version='1.0' encoding='UTF-8'?>
<svg xmlns="http://www.w3.org/2000/svg" viewBox="0 0 23 32" width="23" height="32" version="1.1"><path d="M 17.857,7.75 18.518,4.286 Q 18.607,3.875 18.357,3.572 18.107,3.269 17.732,3.268 H 5.018 Q 4.607,3.268 4.33,3.572 4.053,3.876 4.053,4.233 v 19.661 q 0,0.125 0.107,0.018 l 5.196,-6.286 q 0.411,-0.464 0.679,-0.598 0.268,-0.134 0.857,-0.134 h 4.268 q 0.393,0 0.661,-0.259 0.268,-0.259 0.321,-0.527 0.429,-2.321 0.661,-3.411 0.071,-0.375 -0.205,-0.714 -0.276,-0.339 -0.652,-0.339 h -5.25 q -0.518,0 -0.857,-0.339 Q 9.5,10.966 9.5,10.448 V 9.698 Q 9.5,9.18 9.839,8.85 10.178,8.52 10.696,8.52 h 6.179 q 0.321,0 0.625,-0.241 0.304,-0.241 0.357,-0.527 z m 4.054,-3.964 q -0.268,1.304 -0.955,4.759 -0.687,3.455 -1.241,6.25 -0.554,2.795 -0.625,3.098 -0.107,0.393 -0.161,0.58 -0.054,0.187 -0.25,0.58 -0.196,0.393 -0.438,0.589 -0.242,0.196 -0.688,0.375 -0.446,0.179 -1.036,0.179 h -4.839 q -0.232,0 -0.393,0.179 -0.143,0.161 -7.607,8.821 Q 3.285,29.642 2.633,29.705 1.981,29.768 1.767,29.607 0.785,29.214 0.785,27.857 V 2.678 q 0,-0.982 0.679,-1.83 Q 2.143,0 3.607,0 h 15.857 q 1.696,0 2.268,0.946 0.572,0.946 0.179,2.839 z m 0,0 -2.821,14.107 q 0.071,-0.304 0.625,-3.098 0.554,-2.794 1.241,-6.25 0.687,-3.456 0.955,-4.759 z"/>
    </svg>
