<?xml version='1.0' encoding='UTF-8'?>
<svg xmlns="http://www.w3.org/2000/svg" viewBox="0 0 32 32" width="32" height="32" version="1.1"><path d="m 10.661,7.518 v 20.946 q 0,0.446 -0.223,0.759 -0.223,0.313 -0.652,0.313 -0.304,0 -0.589,-0.143 L 0.893,25.232 Q 0.518,25.053 0.259,24.634 0,24.215 0,23.804 V 3.447 Q 0,3.09 0.179,2.84 0.358,2.59 0.697,2.59 q 0.25,0 0.786,0.268 l 9.125,4.571 q 0.054,0.054 0.054,0.089 z m 1.143,1.803 9.536,15.464 -9.536,-4.75 z M 32,9.643 v 18.821 q 0,0.446 -0.25,0.723 -0.25,0.277 -0.679,0.277 -0.429,0 -0.839,-0.232 L 22.357,25.303 Z M 31.946,7.5 q 0,0.054 -4.58,7.491 -4.58,7.437 -5.366,8.705 L 15.036,12.375 20.822,2.964 q 0.304,-0.5 0.929,-0.5 0.25,0 0.464,0.107 l 9.661,4.821 q 0.071,0.036 0.071,0.107 z"/>
    </svg>
