<?xml version='1.0' encoding='UTF-8'?>
<svg xmlns="http://www.w3.org/2000/svg" viewBox="0 0 32 32" width="32" height="32" version="1.1"><path d="m 28.657207,4.1829809 c 1.326001,-0.6158755 2.842815,0.3514377 2.842815,1.8135012 V 21.190243 c 0,0.657875 -0.322563,1.275438 -0.865188,1.647376 -2.239814,1.535251 -4.645941,2.553626 -7.656568,2.553626 -4.210816,0 -6.97688,-2.173939 -10.32607,-2.173939 -3.1783145,0 -5.3827535,0.628626 -7.1521922,1.382626 v 5.900067 C 5.5000038,31.328437 4.8284408,32 4.0000028,32 H 3.0000021 C 2.171564,32 1.500001,31.328437 1.500001,30.499999 V 6.3715449 C 0.59356291,5.7390444 0,4.6891062 0,3.4999804 0,1.518479 1.6465636,-0.07839707 3.6461275,0.00297798 5.4253787,0.07535303 6.8823172,1.500979 6.9930673,3.2782302 7.0255673,3.7996056 6.9424423,4.2976059 6.7689422,4.7508563 8.064943,4.2739809 9.462069,3.9999807 11.021758,3.9999807 c 4.210815,0 6.976879,2.173939 10.326069,2.173939 2.531002,0 5.163254,-0.9941257 7.30938,-1.9909388 z M 5.5000038,8.4143588 V 12.819987 C 7.312505,12.153111 8.698756,11.705611 10.100007,11.513111 V 7.0399828 C 8.6312559,7.1756079 7.5725052,7.6518582 5.5000038,8.4143588 Z M 19.300013,8.9887342 C 17.64895,8.696734 16.182136,8.1150461 14.70001,7.6549832 v 4.2137528 c 1.510939,0.419125 2.972877,1.027751 4.600003,1.394376 z m -9.200006,2.5243768 v 4.377503 c 2.049751,-0.186125 3.369377,-0.03969 4.600003,0.2375 v -4.259378 c -1.577938,-0.439688 -2.911314,-0.588938 -4.600003,-0.355625 z m 4.600003,8.889381 c 1.646126,0.29075 3.108252,0.870438 4.600003,1.333751 V 17.523115 C 17.7827,17.10149 16.328761,16.494989 14.70001,16.128114 Z m -9.2000062,0.978751 c 1.476251,-0.524376 2.986877,-0.865001 4.6000032,-1.035001 v -4.455628 c -1.6318762,0.146875 -2.9600021,0.5025 -4.6000032,1.085001 z M 28.50002,7.5312332 c -1.331251,0.5531253 -2.911877,1.1025007 -4.600004,1.4043759 v 4.4943779 c 1.706877,-0.2725 3.126878,-0.88125 4.600004,-1.493126 z m 0,13.1225088 v -4.405628 c -1.386876,0.887501 -3.048752,1.413126 -4.600004,1.626251 v 4.473753 c 1.566877,-0.14875 3.030628,-0.69 4.600004,-1.694376 z m -9.200007,-7.39063 v 4.260003 c 1.604001,0.445875 2.913502,0.583875 4.600003,0.35125 v -4.444378 c -1.624938,0.261688 -3.121439,0.16725 -4.600003,-0.166875 z"/>
    </svg>
