<?xml version='1.0' encoding='UTF-8'?>
<svg xmlns="http://www.w3.org/2000/svg" viewBox="0 0 30 32" width="30" height="32" version="1.1"><path d="m 20.571,14.857 q 0,-3.304 -2.348,-5.652 -2.348,-2.348 -5.652,-2.348 -3.304,0 -5.652,2.348 -2.348,2.348 -2.348,5.652 0,3.304 2.348,5.652 2.348,2.348 5.652,2.348 3.304,0 5.652,-2.348 2.348,-2.348 2.348,-5.652 z m 9.143,14.857 q 0,0.929 -0.679,1.607 -0.679,0.678 -1.607,0.679 -0.964,0 -1.607,-0.679 l -6.125,-6.107 q -3.196,2.214 -7.125,2.214 -2.554,0 -4.884,-0.991 Q 5.357,25.446 3.669,23.758 1.981,22.07 0.99,19.74 q -0.991,-2.33 -0.991,-4.884 0,-2.554 0.991,-4.884 0.991,-2.33 2.679,-4.018 1.688,-1.688 4.018,-2.679 2.33,-0.991 4.884,-0.991 2.554,0 4.884,0.991 2.33,0.991 4.018,2.679 1.688,1.688 2.679,4.018 0.991,2.33 0.991,4.884 0,3.929 -2.214,7.125 l 6.125,6.125 q 0.661,0.661 0.661,1.607 z"/>
    </svg>
