<?xml version='1.0' encoding='UTF-8'?>
<svg xmlns="http://www.w3.org/2000/svg" viewBox="0 0 32 32" width="32" height="32" version="1.1"><path d="m 32,15.107 q 0,1.036 -0.527,1.884 -0.527,0.848 -1.42,1.295 0.214,0.821 0.214,1.714 0,2.768 -1.902,5.125 -1.902,2.357 -5.188,3.723 -3.286,1.366 -7.143,1.366 -3.857,0 -7.134,-1.366 Q 5.623,27.482 3.721,25.125 1.819,22.768 1.819,20 q 0,-0.839 0.196,-1.679 -0.911,-0.446 -1.464,-1.313 -0.553,-0.867 -0.554,-1.902 0,-1.464 1.036,-2.509 1.036,-1.045 2.518,-1.045 1.518,0 2.589,1.125 3.893,-2.714 9.196,-2.893 L 17.407,0.48 q 0.054,-0.232 0.268,-0.375 0.214,-0.143 0.464,-0.089 l 6.589,1.446 q 0.321,-0.661 0.964,-1.063 0.643,-0.402 1.411,-0.402 1.107,0 1.893,0.777 0.786,0.777 0.786,1.884 0,1.107 -0.786,1.893 -0.786,0.786 -1.893,0.786 -1.107,0 -1.884,-0.777 Q 24.442,3.783 24.442,2.676 L 18.478,1.355 16.621,9.784 q 5.357,0.161 9.268,2.857 1.036,-1.089 2.554,-1.089 1.482,0 2.518,1.045 1.036,1.045 1.036,2.509 z M 7.464,18.661 q 0,1.107 0.777,1.893 0.777,0.786 1.884,0.786 1.107,0 1.893,-0.786 0.786,-0.786 0.786,-1.893 0,-1.107 -0.786,-1.884 Q 11.232,16 10.125,16 9.036,16 8.25,16.786 7.464,17.572 7.464,18.661 Z M 21.929,25 q 0.196,-0.196 0.196,-0.464 0,-0.268 -0.196,-0.464 -0.179,-0.179 -0.446,-0.179 -0.267,0 -0.464,0.179 -0.732,0.75 -2.161,1.107 -1.429,0.357 -2.857,0.357 -1.428,0 -2.857,-0.357 -1.429,-0.357 -2.161,-1.107 -0.196,-0.179 -0.464,-0.179 -0.268,0 -0.446,0.179 -0.196,0.179 -0.196,0.455 0,0.276 0.196,0.473 0.768,0.768 2.116,1.214 1.348,0.446 2.188,0.527 0.84,0.081 1.625,0.08 0.785,-0.001 1.625,-0.08 0.84,-0.079 2.188,-0.527 1.348,-0.448 2.116,-1.214 z m -0.054,-3.661 q 1.107,0 1.884,-0.786 0.777,-0.786 0.777,-1.893 0,-1.089 -0.786,-1.875 -0.786,-0.786 -1.875,-0.786 -1.107,0 -1.893,0.777 -0.786,0.777 -0.786,1.884 0,1.107 0.786,1.893 0.786,0.786 1.893,0.786 z"/>
    </svg>
