<?xml version='1.0' encoding='UTF-8'?>
<svg xmlns="http://www.w3.org/2000/svg" viewBox="0 0 27 32" width="27" height="32" version="1.1"><path d="m 26.732,14.768 v 3.536 q -1.804,0.411 -3.536,0.411 -1.161,2.429 -2.955,4.839 -1.794,2.41 -3.241,3.848 -1.447,1.438 -2.286,1.902 -1.429,0.804 -2.893,-0.054 -0.5,-0.304 -1.08,-0.777 Q 10.161,28 9.223,26.982 8.285,25.964 7.393,24.687 6.501,23.41 5.473,21.401 4.445,19.392 3.589,17.044 2.733,14.696 1.955,11.428 1.177,8.16 0.696,4.464 H 5.75 Q 6.214,8.357 7,11.58 q 0.786,3.223 1.866,5.661 1.08,2.438 2.17,4.205 1.09,1.767 2.5,3.482 3.018,-3.018 5.125,-7.25 -2.536,-1.286 -3.982,-3.929 -1.446,-2.643 -1.446,-5.946 0,-3.429 1.857,-5.616 1.857,-2.187 5.071,-2.188 3.179,0 4.875,1.884 1.696,1.884 1.696,5.313 0,2.839 -1.036,5.107 -0.125,0.018 -0.348,0.054 -0.223,0.036 -0.821,0.036 -0.598,0 -1.125,-0.107 -0.527,-0.107 -1.107,-0.455 -0.58,-0.348 -0.902,-0.92 0.554,-1.839 0.554,-3.286 0,-1.554 -0.518,-2.357 -0.518,-0.803 -1.411,-0.804 -0.946,0 -1.518,0.884 -0.572,0.884 -0.571,2.509 0,3.321 1.875,5.241 1.875,1.92 4.768,1.92 1.107,0 2.161,-0.25 z"/>
    </svg>
