<?xml version='1.0' encoding='UTF-8'?>
<svg xmlns="http://www.w3.org/2000/svg" viewBox="0 0 27 32" width="27" height="32" version="1.1"><path d="m 20.946,18.982 q 0,-0.893 -0.348,-1.634 -0.348,-0.741 -0.866,-1.223 -0.518,-0.482 -1.304,-0.875 -0.786,-0.393 -1.473,-0.607 -0.687,-0.214 -1.563,-0.411 l -1.857,-0.429 q -0.536,-0.125 -0.786,-0.188 -0.25,-0.063 -0.625,-0.205 -0.375,-0.142 -0.536,-0.286 -0.161,-0.144 -0.295,-0.375 -0.134,-0.231 -0.134,-0.536 0,-1.375 2.571,-1.375 0.768,0 1.375,0.214 0.607,0.214 0.964,0.509 0.357,0.295 0.679,0.598 0.322,0.303 0.714,0.518 0.392,0.215 0.857,0.214 0.839,0 1.348,-0.571 0.509,-0.571 0.509,-1.375 0,-0.982 -1,-1.777 -1,-0.795 -2.536,-1.205 -1.536,-0.41 -3.25,-0.411 -1.214,0 -2.357,0.277 Q 9.89,8.106 8.899,8.668 7.908,9.23 7.31,10.222 q -0.598,0.992 -0.598,2.295 0,1.089 0.339,1.902 0.339,0.813 1,1.348 0.661,0.535 1.429,0.866 0.768,0.331 1.839,0.58 l 2.607,0.643 q 1.607,0.393 2,0.643 0.571,0.357 0.571,1.071 0,0.696 -0.714,1.152 -0.714,0.456 -1.875,0.455 -0.911,0 -1.634,-0.286 Q 11.551,20.605 11.113,20.203 10.675,19.801 10.3,19.399 9.925,18.997 9.479,18.711 9.033,18.425 8.515,18.425 q -0.893,0 -1.348,0.536 -0.455,0.536 -0.455,1.339 0,1.643 2.179,2.813 2.179,1.17 5.196,1.17 1.304,0 2.5,-0.33 1.196,-0.33 2.188,-0.955 0.992,-0.625 1.58,-1.67 0.588,-1.045 0.589,-2.348 z m 6.483,3.875 q 0,2.839 -2.009,4.848 -2.009,2.009 -4.848,2.009 -2.321,0 -4.179,-1.429 -1.375,0.286 -2.679,0.286 -2.554,0 -4.884,-0.991 Q 6.5,26.589 4.812,24.901 3.124,23.213 2.133,20.883 1.142,18.553 1.142,15.999 q 0,-1.304 0.286,-2.679 -1.429,-1.857 -1.429,-4.179 0,-2.839 2.009,-4.848 2.009,-2.009 4.848,-2.009 2.321,0 4.179,1.429 1.375,-0.286 2.679,-0.286 2.554,0 4.884,0.991 2.33,0.991 4.018,2.679 1.688,1.688 2.679,4.018 0.991,2.33 0.991,4.884 0,1.304 -0.286,2.679 1.429,1.857 1.429,4.179 z"/>
    </svg>
