<?xml version='1.0' encoding='UTF-8'?>
<svg xmlns="http://www.w3.org/2000/svg" viewBox="0 0 32 32" width="32" height="32" version="1.1"><path d="M 29.714,26.857 V 13.143 q -0.571,0.643 -1.232,1.179 -4.786,3.679 -7.607,6.036 -0.911,0.768 -1.482,1.196 -0.571,0.428 -1.545,0.866 -0.974,0.438 -1.83,0.438 h -0.036 q -0.857,0 -1.83,-0.438 Q 13.179,21.982 12.607,21.554 12.035,21.126 11.125,20.358 8.304,18.001 3.518,14.322 2.857,13.786 2.286,13.143 v 13.714 q 0,0.232 0.17,0.402 0.17,0.17 0.402,0.17 h 26.286 q 0.232,0 0.402,-0.17 0.17,-0.17 0.17,-0.402 z m 0,-18.768 V 7.651 q 0,0 -0.009,-0.232 Q 29.696,7.187 29.651,7.196 29.606,7.205 29.553,7.035 29.5,6.865 29.392,6.901 29.284,6.937 29.142,6.856 H 2.856 q -0.232,0 -0.402,0.17 -0.17,0.17 -0.17,0.402 0,3 2.625,5.071 3.446,2.714 7.161,5.661 0.107,0.089 0.625,0.527 0.518,0.438 0.821,0.67 0.303,0.232 0.795,0.563 0.492,0.331 0.902,0.491 0.41,0.16 0.768,0.161 h 0.036 q 0.357,0 0.768,-0.161 0.411,-0.161 0.902,-0.491 0.491,-0.33 0.795,-0.563 0.304,-0.233 0.821,-0.67 0.517,-0.437 0.625,-0.527 3.714,-2.946 7.161,-5.661 0.964,-0.768 1.795,-2.063 0.831,-1.295 0.83,-2.348 z M 32,7.429 v 19.429 q 0,1.179 -0.839,2.018 -0.839,0.839 -2.018,0.839 H 2.857 q -1.179,0 -2.018,-0.839 Q 0,28.037 0,26.858 V 7.429 Q 0,6.25 0.839,5.411 1.678,4.572 2.857,4.572 h 26.286 q 1.179,0 2.018,0.839 Q 32,6.25 32,7.429 Z"/>
    </svg>
