<?xml version='1.0' encoding='UTF-8'?>
<svg xmlns="http://www.w3.org/2000/svg" viewBox="0 0 32 32" width="32" height="32" version="1.1"><path d="M 31.118709,8.8769157 28.237326,11.75828 c -0.293763,0.293762 -0.768786,0.293762 -1.062549,0 L 20.236955,4.8205043 c -0.293763,-0.2937617 -0.293763,-0.7687806 0,-1.0625424 l 2.881384,-2.88136461 c 1.168803,-1.16879651 3.068891,-1.16879651 4.243947,0 l 3.756423,3.75639951 c 1.175055,1.1687966 1.175055,3.0688721 0,4.2439189 z M 17.76184,6.2330604 1.3485815,22.646213 0.02352015,30.240266 c -0.1812584,1.025041 0.71253296,1.912575 1.73758035,1.737569 L 9.3552019,30.646532 25.768462,14.233378 c 0.293763,-0.293761 0.293763,-0.76878 0,-1.062541 L 18.83064,6.2330604 c -0.300013,-0.2937616 -0.775035,-0.2937616 -1.0688,0 z M 7.7551279,21.239908 c -0.3437659,-0.343764 -0.3437659,-0.893787 0,-1.237549 l 9.6254451,-9.625383 c 0.343766,-0.343764 0.893792,-0.343764 1.237559,0 0.343764,0.343763 0.343764,0.893785 0,1.237549 l -9.6254469,9.625383 c -0.3437659,0.343763 -0.8937913,0.343763 -1.2375572,0 z m -2.2563544,5.256458 h 3.0001387 v 2.268841 l -4.0314364,0.706278 -1.94384,-1.943828 0.7062827,-4.031409 h 2.268855 z"/>
    </svg>
