<?xml version='1.0' encoding='UTF-8'?>
<svg xmlns="http://www.w3.org/2000/svg" viewBox="0 0 27 32" width="27" height="32" version="1.1"><path d="m 18.286,26.786 q -0.75,-4.304 -2.5,-8.893 H 15.75 l -0.036,0.018 q -0.286,0.107 -0.768,0.295 -0.482,0.188 -1.804,0.875 -1.322,0.687 -2.446,1.464 -1.124,0.777 -2.339,2.045 -1.215,1.268 -1.839,2.643 L 6.25,25.037 q 3.286,2.679 7.464,2.679 2.357,0 4.571,-0.929 z M 14.982,15.946 Q 14.607,15.071 14.036,13.964 8.482,15.625 2.018,15.625 2,15.75 2,16 2,18.214 2.786,20.223 3.572,22.232 5,23.821 5.893,22.232 7.205,20.848 8.517,19.464 9.75,18.625 q 1.233,-0.839 2.33,-1.446 1.097,-0.607 1.777,-0.857 l 0.661,-0.232 q 0.071,-0.018 0.232,-0.063 0.161,-0.045 0.232,-0.08 z M 13.071,12.161 Q 10.928,8.357 8.714,5.411 6.25,6.572 4.535,8.732 q -1.715,2.16 -2.286,4.857 5.393,0 10.821,-1.429 z m 12.215,5.696 q -3.75,-1.071 -7.304,-0.518 1.554,4.268 2.286,8.375 1.982,-1.339 3.304,-3.384 1.322,-2.045 1.714,-4.473 z M 10.911,4.625 q -0.018,0 -0.036,0.018 0.018,-0.018 0.036,-0.018 z m 10.535,2.589 q -3.304,-2.929 -7.732,-2.929 -1.357,0 -2.768,0.339 2.339,3.036 4.393,6.821 1.232,-0.464 2.321,-1.08 1.089,-0.616 1.723,-1.098 0.634,-0.482 1.17,-1.018 0.536,-0.536 0.67,-0.723 z m 3.983,8.661 Q 25.375,11.732 22.768,8.554 L 22.75,8.572 q -0.161,0.214 -0.339,0.438 -0.178,0.224 -0.777,0.795 -0.599,0.571 -1.268,1.08 -0.669,0.509 -1.786,1.161 -1.117,0.652 -2.348,1.152 0.446,0.946 0.786,1.696 0.036,0.107 0.116,0.313 0.08,0.206 0.134,0.295 0.643,-0.089 1.33,-0.125 0.687,-0.036 1.313,-0.036 0.626,0 1.232,0.027 0.606,0.027 1.143,0.071 0.537,0.044 1.009,0.098 0.472,0.054 0.857,0.116 0.385,0.062 0.652,0.107 0.267,0.045 0.446,0.08 z m 2,0.125 q 0,3.732 -1.839,6.884 -1.839,3.152 -4.991,4.991 -3.152,1.839 -6.884,1.839 -3.732,0 -6.884,-1.839 Q 3.679,26.036 1.84,22.884 0.001,19.732 0.001,16 0.001,12.268 1.84,9.116 3.679,5.964 6.831,4.125 9.983,2.286 13.715,2.286 q 3.732,0 6.884,1.839 3.152,1.839 4.991,4.991 1.839,3.152 1.839,6.884 z"/>
    </svg>
