<?xml version='1.0' encoding='UTF-8'?>
<svg xmlns="http://www.w3.org/2000/svg" viewBox="0 0 100 61" width="100" height="61" version="1.1"><path d="m 31.342661,60.55882 c -0.887522,-0.55026 -0.941646,-1.77551 -0.156897,-3.55146 0.458658,-1.03797 0.53964,-1.67948 0.509741,-4.03788 -0.02601,-2.05239 0.08151,-3.14733 0.401176,-4.0854 0.240193,-0.70485 0.399595,-1.39645 0.354225,-1.53688 -0.0454,-0.14044 -0.07006,-1.05965 -0.05482,-2.0427 0.03351,-2.163225 -0.435311,-4.779877 -0.833199,-4.650637 -0.624731,0.202914 -1.044498,1.685995 -1.19324,4.21588 -0.172832,2.939347 -0.360769,3.298557 -1.852515,3.540627 -0.892133,0.14478 -0.958497,0.10564 -1.330564,-0.78486 -0.215385,-0.51549 -0.496185,-0.87261 -0.623997,-0.79363 -0.127813,0.079 -0.46904,-0.11038 -0.758289,-0.42086 -0.721968,-0.77494 -0.679119,-2.227242 0.110266,-3.736901 l 0.636149,-1.216628 -0.519995,-1.77889 c -0.758249,-2.593946 -0.771287,-4.817704 -0.03646,-6.2169 0.49016,-0.933318 0.542975,-1.246273 0.318813,-1.889299 -0.147769,-0.423879 -0.268663,-1.088691 -0.268663,-1.477364 0,-0.615638 -0.238486,-0.834713 -1.851198,-1.700553 -1.590889,-0.854119 -1.861435,-1.099461 -1.924009,-1.744763 -0.07437,-0.767108 1.096595,-2.589553 2.688977,-4.185011 0.386772,-0.387519 1.02123,-1.185306 1.40991,-1.772858 0.38868,-0.587555 0.905739,-1.129482 1.149019,-1.204285 0.243281,-0.07481 1.217251,-0.501301 2.164386,-0.947772 1.808006,-0.852282 2.197938,-1.505752 1.328888,-2.226999 -0.313602,-0.260266 -0.360121,-0.625802 -0.223332,-1.754795 0.216367,-1.785737 0.438415,-2.213001 1.411666,-2.716287 0.921617,-0.476587 2.018739,-0.306326 2.671103,0.414528 0.675783,0.746735 0.957859,3.301868 0.488517,4.425162 -0.207414,0.496404 -0.37711,1.137669 -0.37711,1.425032 0,0.614102 1.461177,2.029007 2.106535,2.039818 0.245763,0.0041 0.687361,0.248004 0.981335,0.541977 0.42939,0.429391 0.507611,0.743191 0.397784,1.59586 -0.427699,3.320681 -0.467978,3.99775 -0.237863,3.99775 0.579744,0 3.275224,-1.068113 5.127906,-2.031985 2.386348,-1.24152 4.643118,-3.182066 5.606555,-4.820971 0.59279,-1.008389 0.695963,-1.463184 0.675488,-2.977543 -0.04317,-3.190357 -1.695991,-6.167366 -4.442362,-8.0013261 -2.504368,-1.672349 -2.782223,-1.701504 -16.215815,-1.701504 H 16.979903 L 16.914633,28.133039 16.849363,49.51756 H 14.04211 11.234856 V 28.069206 6.6208439 H 5.617428 0 V 3.8024459 0.98404694 l 21.256858,0.07352 21.256858,0.07352 1.915032,0.681483 c 2.905759,1.034041 4.282076,1.902697 6.42084,4.052471 2.965172,2.980431 4.542425,6.7386921 4.554242,10.8518291 0.0166,5.769407 -4.384977,11.498852 -10.975082,14.286107 -0.63196,0.267285 -1.183266,0.507213 -1.225118,0.533173 -0.04189,0.02596 2.859415,4.02997 6.447276,8.897809 3.587853,4.867828 6.523374,8.903021 6.523374,8.967111 0,0.0641 -1.579902,0.11559 -3.510893,0.11448 l -3.510892,-0.002 -6.383441,-8.797915 c -3.510893,-4.838539 -6.477365,-8.801751 -6.592156,-8.806822 -0.11479,-0.005 -0.138504,0.211979 -0.05266,0.482333 0.08581,0.270352 0.25241,1.620449 0.370232,3.000217 0.222327,2.603689 0.05354,4.362303 -0.68172,7.104741 -0.235549,0.878506 -0.478814,3.165836 -0.57028,5.362096 -0.152142,3.6532 -0.203425,3.93839 -1.110535,6.17604 -1.085297,2.67717 -1.130859,4.09522 -0.174715,5.438 0.308591,0.43339 0.496504,0.95624 0.417581,1.16191 -0.200536,0.5226 -2.145834,0.47447 -3.032071,-0.075 z M 0.510641,33.94197 V 18.366376 H 3.447024 6.383407 V 33.94197 49.51756 H 3.447024 0.510641 Z M 57.450934,25.253666 V 0.98976394 l 3.752194,0.07066 3.752203,0.07066 17.52233,24.1294061 17.522337,24.12941 -3.324184,0.0716 C 94.847516,49.5008 93.226825,49.4852 93.074268,49.4266 92.92172,49.36803 86.194156,40.177076 78.124138,29.002186 70.054112,17.827294 63.365192,8.6795409 63.259865,8.6738469 63.154538,8.6681809 63.068362,17.855644 63.068362,29.0905 V 49.51756 H 60.259648 57.450934 Z M 1.803073,16.112442 c -2.328185,-1.248617 -2.351804,-4.836517 -0.03974,-6.032143 2.354987,-1.2178121 5.130722,0.465394 5.130722,3.111272 0,1.702225 -1.714871,3.387441 -3.447058,3.387441 -0.425688,0 -1.165465,-0.209956 -1.643951,-0.46657 z"/>
    </svg>
