<?xml version='1.0' encoding='UTF-8'?>
<svg xmlns="http://www.w3.org/2000/svg" viewBox="0 0 32 32" width="32" height="32" version="1.1"><path d="m 32,20 q 0,2.964 -2.268,8.054 -0.054,0.125 -0.188,0.429 -0.134,0.304 -0.241,0.536 -0.107,0.232 -0.232,0.393 -0.214,0.304 -0.5,0.304 -0.268,0 -0.42,-0.179 -0.152,-0.179 -0.152,-0.446 0,-0.161 0.045,-0.473 0.045,-0.312 0.045,-0.42 0.089,-1.214 0.089,-2.196 0,-1.804 -0.313,-3.232 -0.313,-1.428 -0.866,-2.473 -0.553,-1.045 -1.429,-1.804 -0.876,-0.759 -1.884,-1.241 -1.008,-0.482 -2.375,-0.759 -1.367,-0.277 -2.75,-0.384 -1.383,-0.107 -3.134,-0.107 h -4 v 4.571 q 0,0.464 -0.339,0.804 -0.339,0.34 -0.804,0.339 Q 9.819,21.715 9.48,21.377 L 0.337,12.234 q -0.339,-0.339 -0.339,-0.804 0,-0.465 0.339,-0.804 L 9.48,1.483 q 0.339,-0.339 0.804,-0.339 0.465,0 0.804,0.339 0.339,0.339 0.339,0.804 v 4.571 h 4 q 12.732,0 15.625,7.196 0.946,2.393 0.946,5.946 z"/>
    </svg>
