<?xml version='1.0' encoding='UTF-8'?>
<svg xmlns="http://www.w3.org/2000/svg" viewBox="0 0 24 28" width="24" height="28" version="1.1"><path d="m 1.597,10.257 h 2.911 v 2.83 H 1.597 Z m 3.573,0 h 2.91 v 2.83 H 5.17 Z m 0,-3.627 H 8.08 V 9.459 H 5.17 Z m 3.57,3.627 h 2.912 v 2.83 H 8.74 Z m 0,-3.627 h 2.912 V 9.459 H 8.74 Z m 3.573,3.627 h 2.911 v 2.83 h -2.911 z m 0,-3.627 h 2.911 v 2.829 h -2.911 z m 3.572,3.627 h 2.911 v 2.83 H 15.885 Z M 12.313,3 h 2.911 v 2.83 h -2.911 z m -6.65,14.173 c -0.449,0 -0.812,0.354 -0.812,0.788 0,0.435 0.364,0.788 0.812,0.788 0.447,0 0.811,-0.353 0.811,-0.788 0,-0.434 -0.363,-0.788 -0.811,-0.788"/>
      <path d="M 28.172,11.721 C 27.194,11.172 25.894,11.097 24.784,11.415 24.648,10.269 23.874,9.266 22.954,8.546 L 22.588,8.26 22.281,8.605 c -0.618,0.692 -0.8,1.845 -0.718,2.73 0.063,0.651 0.273,1.312 0.685,1.834 -0.313,0.183 -0.668,0.328 -0.985,0.434 -0.646,0.212 -1.347,0.33 -2.028,0.33 H 0.083 l -0.042,0.429 c -0.137,1.432 0.065,2.866 0.674,4.173 l 0.262,0.519 0.03,0.048 c 1.8,2.973 4.963,4.225 8.41,4.225 6.672,0 12.174,-2.896 14.702,-9.015 1.689,0.085 3.417,-0.4 4.243,-1.968 l 0.211,-0.4 z M 5.664,19.458 c -0.85,0 -1.542,-0.671 -1.542,-1.497 0,-0.825 0.691,-1.498 1.541,-1.498 0.849,0 1.54,0.672 1.54,1.497 0,0.825 -0.69,1.498 -1.539,1.498 z"/>
    </svg>
