<?xml version='1.0' encoding='UTF-8'?>
<svg xmlns="http://www.w3.org/2000/svg" viewBox="0 0 32 32" width="32" height="32" version="1.1"><path d="m 29.043547,14.674471 a 1.0009844,1.0083184 0 0 0 -0.45548,0.09452 l -4.175564,1.9101 a 1.0009844,1.0083184 0 0 0 -0.490669,1.352823 l 2.089738,4.401107 A 1.0009844,1.0083184 0 1 0 27.8159,21.562645 l -1.073213,-2.262582 c 1.059937,0.390093 1.877214,0.814191 2.404467,1.218919 0.612532,0.47019 0.814638,0.866723 0.846452,1.118492 0.03181,0.251769 -0.03486,0.530163 -0.484804,0.974742 -0.449939,0.444578 -1.275531,0.962217 -2.472887,1.429621 C 22.246485,25.911451 13.413719,26.266785 7.3681467,24.75074 4.3453602,23.992718 2.6219046,22.810485 2.2562083,22.12386 2.0733601,21.780548 2.0708754,21.629846 2.2796665,21.271207 2.4884576,20.912569 3.0338699,20.396215 3.9999364,19.896724 a 1.0009844,1.0083184 0 1 0 -0.912916,-1.793919 c -1.1708024,0.605348 -2.0326072,1.284654 -2.53544317,2.14837 -0.50283597,0.863716 -0.5215852,1.962199 -0.0606005,2.827735 0.92196967,1.731072 3.12629377,2.809668 6.39432137,3.62919 6.5360559,1.639042 15.4270689,1.340544 20.8739119,-0.785701 1.36171,-0.531562 2.407541,-1.135897 3.151221,-1.870717 0.74368,-0.73482 1.192517,-1.693141 1.069305,-2.668232 -0.123214,-0.97509 -0.74428,-1.796219 -1.618619,-2.467376 -0.725544,-0.55694 -1.664777,-1.037317 -2.801303,-1.463097 L 29.41497,16.606232 A 1.0009844,1.0083184 0 0 0 29.043547,14.674471 Z M 19.048389,6.0002551 A 1.5014766,1.5124777 0 0 0 17.619391,6.9690892 L 13.240522,18.441503 a 1.5015372,1.5125388 0 1 0 2.803259,1.085015 l 2.351687,-6.161548 1.696812,11.106147 c 1.044709,-0.09932 2.033464,-0.243124 2.975284,-0.415496 L 20.504753,7.2821881 a 1.5014766,1.5124777 0 0 0 -1.456364,-1.281933 z m -8.730371,9.7080329 a 1.5014766,1.5124777 0 0 0 -1.2784727,0.632105 l -4.4648824,6.295452 c 0.6929346,0.369055 1.6561218,0.775039 2.9107749,1.100769 l 2.3086803,-3.257015 1.3371189,3.896997 c 1.061039,0.125401 2.150249,0.211412 3.264603,0.250086 l -2.715289,-7.9023 A 1.5014766,1.5124777 0 0 0 10.318018,15.708288 Z M 2.1526012,26.052364 0.27985277,28.693028 A 1.5015344,1.512536 0 1 0 2.723418,30.451502 l 2.2852221,-3.22354 C 3.9289155,26.896173 2.9708723,26.518592 2.1526012,26.052364 Z m 21.5326958,2.047942 c -0.958771,0.184993 -1.951097,0.333573 -2.96942,0.443065 l 0.32646,2.140493 a 1.5014766,1.5124777 0 1 0 2.967466,-0.458818 z"/>
    </svg>
