<?xml version='1.0' encoding='UTF-8'?>
<svg xmlns="http://www.w3.org/2000/svg" viewBox="0 0 24 28" width="24" height="28" version="1.1"><path d="M 12.285,1 C 6.696,1 2.277,5.643 2.277,11.243 c 0,5.851 7.77,14.578 10.007,14.578 1.959,0 9.729,-8.728 9.729,-14.578 C 22.015,5.643 17.596,1 12.285,1 Z m 0.032,15.551 c -3.473,0 -6.152,-2.611 -6.152,-5.664 0,-1.292 0.39,-2.472 1.065,-3.438 0.206,1.084 1.18,1.906 2.352,1.906 1.322,0 2.393,-1.043 2.393,-2.333 0,-0.832 -0.447,-1.561 -1.119,-1.975 0.467,-0.105 0.955,-0.161 1.46,-0.161 3.133,0 5.81,2.611 5.81,5.998 0,3.056 -2.677,5.667 -5.809,5.667 z"/>
    </svg>
