<?xml version='1.0' encoding='UTF-8'?>
<svg xmlns="http://www.w3.org/2000/svg" viewBox="0 0 43 32" width="43" height="32" version="1.1"><path d="m 0.356,17.956 c 0.178,0.178 0.533,0.356 0.711,0.356 H 34.845 L 24.534,28.801 c -0.178,0.178 -0.356,0.533 -0.356,0.711 0,0.356 0.178,0.533 0.356,0.711 l 1.6,1.6 c 0.178,0.178 0.533,0.356 0.711,0.356 0.178,0 0.533,-0.178 0.711,-0.356 L 42.312,16.89 c 0.178,-0.356 0.356,-0.711 0.356,-0.889 0,-0.178 -0.178,-0.533 -0.356,-0.711 L 27.556,0.357 c 0,-0.178 -0.356,-0.356 -0.533,-0.356 -0.177,0 -0.533,0.178 -0.711,0.356 l -1.6,1.6 c -0.178,0.178 -0.356,0.533 -0.356,0.711 0,0.178 0.178,0.533 0.356,0.711 L 35.023,13.868 H 1.245 c -0.178,0 -0.533,0.178 -0.711,0.356 -0.356,0.178 -0.533,0.356 -0.533,0.711 v 2.311 c 0,0.178 0.178,0.533 0.356,0.711 z"/>
    </svg>
