<?xml version='1.0' encoding='UTF-8'?>
<svg xmlns="http://www.w3.org/2000/svg" viewBox="0 0 31 32" width="31" height="32" version="1.1"><path d="m 27.946,2.286 q 1.161,0 1.964,0.813 0.803,0.813 0.804,1.973 v 9.268 q 0,3.143 -1.214,6 -1.214,2.857 -3.259,4.911 -2.045,2.054 -4.893,3.259 -2.848,1.205 -5.973,1.205 -3.143,0 -5.991,-1.205 Q 6.536,27.305 4.482,25.251 2.428,23.197 1.214,20.34 0,17.483 0,14.34 V 5.072 Q 0,3.929 0.821,3.108 1.642,2.287 2.785,2.287 h 25.161 z m -12.571,19 q 0.839,0 1.464,-0.589 l 7.214,-6.929 q 0.661,-0.625 0.661,-1.518 0,-0.875 -0.616,-1.491 -0.616,-0.616 -1.491,-0.616 -0.839,0 -1.464,0.589 l -5.768,5.536 -5.768,-5.536 q -0.625,-0.589 -1.446,-0.589 -0.875,0 -1.491,0.616 -0.616,0.616 -0.616,1.491 0,0.911 0.643,1.518 l 7.232,6.929 q 0.589,0.589 1.446,0.589 z"/>
    </svg>
