<?xml version='1.0' encoding='UTF-8'?>
<svg xmlns="http://www.w3.org/2000/svg" viewBox="0 0 30 32" width="30" height="32" version="1.1"><path d="m 15.143,2.286 q 2.393,-0.018 4.295,1.223 1.902,1.241 2.92,3.438 0.482,1.036 0.482,3.196 0,0.839 -0.161,3.411 0.25,0.125 0.5,0.125 0.321,0 0.911,-0.241 0.59,-0.241 0.911,-0.241 0.518,0 1,0.321 0.482,0.321 0.482,0.821 0,0.571 -0.563,0.964 -0.563,0.393 -1.232,0.563 -0.669,0.17 -1.232,0.518 -0.563,0.348 -0.563,0.848 0,0.268 0.214,0.768 0.661,1.464 1.83,2.679 1.169,1.215 2.58,1.804 0.5,0.214 1.429,0.411 0.5,0.107 0.5,0.625 0,1.25 -3.911,1.839 -0.125,0.196 -0.196,0.696 -0.071,0.5 -0.25,0.83 -0.179,0.33 -0.589,0.33 -0.357,0 -1.107,-0.116 -0.75,-0.116 -1.143,-0.116 -0.661,0 -1.107,0.089 -0.571,0.089 -1.125,0.402 -0.554,0.313 -1.036,0.679 -0.482,0.366 -1.036,0.723 -0.554,0.357 -1.357,0.598 -0.803,0.241 -1.768,0.241 -0.929,0 -1.723,-0.241 Q 12.304,29.232 11.759,28.875 11.214,28.518 10.732,28.152 10.25,27.786 9.696,27.473 9.142,27.16 8.589,27.071 8.125,26.982 7.464,26.982 q -0.429,0 -1.17,0.134 Q 5.553,27.25 5.249,27.25 4.803,27.25 4.624,26.92 4.445,26.59 4.374,26.072 4.303,25.554 4.178,25.358 0.267,24.769 0.267,23.519 q 0,-0.518 0.5,-0.625 0.929,-0.196 1.429,-0.411 1.393,-0.571 2.58,-1.804 Q 5.963,19.446 6.606,18 6.82,17.5 6.82,17.232 6.82,16.732 6.257,16.384 5.694,16.036 5.016,15.857 4.338,15.678 3.775,15.294 3.212,14.91 3.212,14.356 q 0,-0.482 0.464,-0.813 0.464,-0.331 0.982,-0.33 0.268,0 0.857,0.232 0.589,0.232 0.946,0.232 0.321,0 0.571,-0.125 -0.161,-2.536 -0.161,-3.393 0,-2.179 0.482,-3.214 1.143,-2.446 3.071,-3.536 1.928,-1.09 4.714,-1.125 z"/>
    </svg>
