<?xml version='1.0' encoding='UTF-8'?>
<svg xmlns="http://www.w3.org/2000/svg" viewBox="0 0 41 32" width="41" height="32" version="1.1"><path d="m 25.661,16.304 q 0,3.714 -1.554,6.616 -1.554,2.902 -4.429,4.536 Q 16.803,29.09 13.089,29.09 10.428,29.09 8,28.054 5.572,27.018 3.821,25.268 2.07,23.518 1.035,21.089 0,18.66 -0.001,16 -0.002,13.34 1.035,10.911 2.072,8.482 3.821,6.732 5.57,4.982 8,3.946 10.43,2.91 13.089,2.91 q 5.107,0 8.768,3.429 L 18.303,9.75 Q 16.214,7.732 13.089,7.732 10.893,7.732 9.026,8.839 7.159,9.946 6.071,11.848 4.983,13.75 4.982,16 q -0.001,2.25 1.089,4.152 1.09,1.902 2.955,3.009 1.865,1.107 4.063,1.107 1.482,0 2.723,-0.411 1.241,-0.411 2.045,-1.027 0.804,-0.616 1.402,-1.402 0.598,-0.786 0.875,-1.482 0.277,-0.696 0.384,-1.321 h -7.429 v -4.5 h 12.357 q 0.214,1.125 0.214,2.179 z m 15.482,-2.179 v 3.75 h -3.732 v 3.732 h -3.75 v -3.732 h -3.732 v -3.75 h 3.732 v -3.732 h 3.75 v 3.732 z"/>
    </svg>
