<?xml version='1.0' encoding='UTF-8'?>
<svg xmlns="http://www.w3.org/2000/svg" viewBox="0 0 27 32" width="27" height="32" version="1.1"><path d="m 13.714,2.286 q 3.732,0 6.884,1.839 3.152,1.839 4.991,4.991 1.839,3.152 1.839,6.884 0,4.482 -2.616,8.063 -2.616,3.581 -6.759,4.955 -0.482,0.089 -0.714,-0.125 -0.232,-0.214 -0.232,-0.536 0,-0.054 0.009,-1.366 0.009,-1.312 0.009,-2.402 0,-1.732 -0.929,-2.536 1.018,-0.107 1.83,-0.321 0.812,-0.214 1.679,-0.696 0.867,-0.482 1.446,-1.188 0.579,-0.706 0.946,-1.875 0.367,-1.169 0.366,-2.688 0,-2.125 -1.411,-3.679 0.661,-1.625 -0.143,-3.643 -0.5,-0.161 -1.446,0.196 -0.946,0.357 -1.643,0.786 L 17.141,9.374 Q 15.48,8.91 13.712,8.91 11.944,8.91 10.283,9.374 9.997,9.178 9.524,8.892 9.051,8.606 8.033,8.204 7.015,7.802 6.515,7.963 5.711,9.981 6.372,11.606 4.961,13.16 4.961,15.285 q 0,1.518 0.366,2.679 0.366,1.161 0.938,1.875 0.572,0.714 1.438,1.196 0.866,0.482 1.679,0.696 0.813,0.214 1.83,0.321 -0.696,0.643 -0.875,1.839 -0.375,0.179 -0.804,0.268 -0.429,0.089 -1.018,0.089 -0.589,0 -1.17,-0.384 Q 6.764,23.48 6.354,22.748 6.015,22.177 5.488,21.819 4.961,21.461 4.604,21.39 L 4.247,21.336 q -0.375,0 -0.518,0.08 -0.143,0.08 -0.089,0.205 0.054,0.125 0.161,0.25 0.107,0.125 0.232,0.214 l 0.125,0.089 q 0.393,0.179 0.777,0.679 0.384,0.5 0.563,0.911 l 0.179,0.411 q 0.232,0.679 0.786,1.098 0.554,0.419 1.196,0.536 0.642,0.117 1.241,0.125 0.599,0.008 0.991,-0.063 L 10.302,25.8 q 0,0.679 0.009,1.58 0.009,0.901 0.009,0.973 0,0.321 -0.232,0.536 -0.232,0.215 -0.714,0.125 -4.143,-1.375 -6.759,-4.955 -2.616,-3.58 -2.616,-8.063 0,-3.732 1.839,-6.884 Q 3.677,5.96 6.829,4.121 9.981,2.282 13.713,2.282 Z M 5.196,21.982 Q 5.25,21.857 5.071,21.768 4.892,21.714 4.839,21.804 4.785,21.929 4.964,22.018 5.125,22.125 5.196,21.982 Z M 5.75,22.589 Q 5.875,22.5 5.714,22.303 5.535,22.142 5.428,22.249 q -0.125,0.089 0.036,0.286 0.179,0.179 0.286,0.054 z m 0.536,0.804 q 0.161,-0.125 0,-0.339 -0.143,-0.232 -0.304,-0.107 -0.161,0.089 0,0.321 0.161,0.232 0.304,0.125 z m 0.75,0.75 Q 7.179,24 6.965,23.804 6.751,23.59 6.608,23.75 q -0.161,0.143 0.071,0.339 0.214,0.214 0.357,0.054 z m 1.018,0.446 q 0.054,-0.196 -0.232,-0.286 -0.268,-0.071 -0.339,0.125 -0.071,0.196 0.232,0.268 0.268,0.107 0.339,-0.107 z m 1.125,0.09 q 0,-0.232 -0.304,-0.196 -0.286,0 -0.286,0.196 0,0.232 0.304,0.196 0.286,0 0.286,-0.196 z M 10.214,24.5 q -0.036,-0.196 -0.321,-0.161 -0.286,0.054 -0.25,0.268 0.036,0.214 0.321,0.143 0.285,-0.071 0.25,-0.25 z"/>
    </svg>
