<?xml version='1.0' encoding='UTF-8'?>
<svg xmlns="http://www.w3.org/2000/svg" viewBox="0 0 30 32" width="30" height="32" version="1.1"><path d="m 28.929,7.286 q -1.196,1.75 -2.893,2.982 0.018,0.25 0.018,0.75 0,2.321 -0.679,4.634 -0.679,2.313 -2.063,4.437 -1.384,2.124 -3.295,3.759 -1.911,1.635 -4.607,2.607 -2.696,0.972 -5.768,0.973 -4.839,0 -8.857,-2.589 0.625,0.071 1.393,0.071 4.018,0 7.161,-2.464 Q 7.464,22.41 5.982,21.294 4.5,20.178 3.946,18.446 q 0.589,0.089 1.089,0.089 0.768,0 1.518,-0.196 -2,-0.411 -3.313,-1.991 -1.313,-1.58 -1.313,-3.67 v -0.071 q 1.214,0.679 2.607,0.732 -1.179,-0.786 -1.875,-2.054 -0.696,-1.268 -0.696,-2.75 0,-1.571 0.786,-2.911 2.161,2.661 5.259,4.259 3.098,1.598 6.634,1.777 -0.143,-0.679 -0.143,-1.321 0,-2.393 1.688,-4.08 1.688,-1.687 4.08,-1.688 2.5,0 4.214,1.821 1.946,-0.375 3.661,-1.393 -0.661,2.054 -2.536,3.179 1.661,-0.179 3.321,-0.893 z"/>
    </svg>
