<?xml version='1.0' encoding='UTF-8'?>
<svg xmlns="http://www.w3.org/2000/svg" viewBox="0 0 32 32" width="32" height="32" version="1.1"><path d="m 16.762396,2.6184372 a 1.2897264,1.2897264 0 0 0 -1.116433,0.7424001 l -2.26813,4.852992 a 1.2897264,1.2897264 0 1 0 2.336136,1.091876 l 1.204589,-2.5760466 2.42996,4.3353903 A 1.2897264,1.2897264 0 1 0 21.598387,9.8044168 L 17.93928,3.2764594 A 1.2897264,1.2897264 0 0 0 16.762396,2.6184372 Z M 8.7502686,6.0678585 A 1.2897264,1.2897264 0 0 0 7.599202,6.8858209 L 0.09397158,26.047803 a 1.2897264,1.2897264 0 1 0 2.40162332,0.940752 l 6.6261883,-16.917151 6.1293658,8.785382 a 1.2897264,1.2897264 0 1 0 2.115116,-1.475984 L 9.8578864,6.6182042 A 1.2897264,1.2897264 0 0 0 8.7502686,6.0678585 Z M 24.909907,9.0525712 A 1.2897264,1.2897264 0 0 0 23.743728,9.7275949 L 16.609383,22.909447 a 1.2898623,1.2898623 0 1 0 2.268759,1.227888 l 5.762889,-10.649254 4.852991,13.4671 a 1.2897264,1.2897264 0 1 0 2.426811,-0.874004 L 26.091198,9.904537 A 1.2897264,1.2897264 0 0 0 24.909907,9.0525712 Z"/>
    </svg>
