<?xml version='1.0' encoding='UTF-8'?>
<svg xmlns="http://www.w3.org/2000/svg" viewBox="0 0 30 32" width="30" height="32" version="1.1"><path d="M 26,21.714 Q 26,21 25.5,20.5 l -3.714,-3.714 q -0.5,-0.5 -1.214,-0.5 -0.75,0 -1.286,0.571 0.054,0.054 0.339,0.33 0.285,0.276 0.384,0.384 0.099,0.108 0.268,0.339 0.169,0.231 0.232,0.455 0.063,0.224 0.063,0.491 0,0.714 -0.5,1.214 -0.5,0.5 -1.214,0.5 -0.268,0 -0.491,-0.063 -0.223,-0.063 -0.455,-0.232 -0.232,-0.169 -0.339,-0.268 -0.107,-0.099 -0.384,-0.384 -0.277,-0.285 -0.33,-0.339 -0.589,0.554 -0.589,1.304 0,0.714 0.5,1.214 l 3.679,3.696 q 0.482,0.482 1.214,0.482 0.714,0 1.214,-0.464 l 2.625,-2.607 q 0.5,-0.5 0.5,-1.196 z M 13.446,9.125 q 0,-0.714 -0.5,-1.214 L 9.267,4.215 q -0.5,-0.5 -1.214,-0.5 -0.696,0 -1.214,0.482 L 4.214,6.804 q -0.5,0.5 -0.5,1.196 0,0.714 0.5,1.214 l 3.714,3.714 q 0.482,0.482 1.214,0.482 0.75,0 1.286,-0.554 -0.054,-0.054 -0.339,-0.33 Q 9.804,12.25 9.705,12.142 9.606,12.034 9.437,11.803 9.268,11.572 9.205,11.348 9.142,11.124 9.142,10.857 q 0,-0.714 0.5,-1.214 0.5,-0.5 1.214,-0.5 0.268,0 0.491,0.063 0.223,0.063 0.455,0.232 0.232,0.169 0.339,0.268 0.107,0.099 0.384,0.384 0.277,0.285 0.33,0.339 0.589,-0.554 0.589,-1.304 z m 15.983,12.589 q 0,2.143 -1.518,3.625 l -2.625,2.607 q -1.482,1.482 -3.625,1.482 -2.161,0 -3.643,-1.518 l -3.679,-3.696 q -1.482,-1.482 -1.482,-3.625 0,-2.196 1.571,-3.732 L 12.857,15.286 Q 11.321,16.857 9.143,16.857 7,16.857 5.5,15.357 L 1.786,11.643 q -1.5,-1.5 -1.5,-3.643 0,-2.143 1.518,-3.625 L 4.429,1.768 q 1.482,-1.482 3.625,-1.482 2.161,0 3.643,1.518 L 15.376,5.5 q 1.482,1.482 1.482,3.625 0,2.196 -1.571,3.732 l 1.571,1.571 q 1.536,-1.571 3.714,-1.571 2.143,0 3.643,1.5 l 3.714,3.714 q 1.5,1.5 1.5,3.643 z"/>
    </svg>
