<?xml version='1.0' encoding='UTF-8'?>
<svg xmlns="http://www.w3.org/2000/svg" viewBox="0 0 21 32" width="21" height="32" version="1.1"><path d="m 8.571,15.429 v -8 Q 8.571,7.179 8.41,7.018 8.249,6.857 7.999,6.857 7.749,6.857 7.588,7.018 7.427,7.179 7.427,7.429 v 8 q 0,0.25 0.161,0.411 0.161,0.161 0.411,0.161 0.25,0 0.411,-0.161 0.161,-0.161 0.161,-0.411 z m 12,6.285 q 0,0.464 -0.339,0.804 -0.339,0.34 -0.804,0.339 h -7.661 l -0.911,8.625 Q 10.82,31.696 10.668,31.848 10.516,32 10.302,32 H 10.284 Q 9.802,32 9.713,31.518 L 8.356,22.857 H 1.142 q -0.464,0 -0.804,-0.339 -0.34,-0.339 -0.339,-0.804 0,-2.196 1.402,-3.955 Q 2.803,16 4.571,16 V 6.857 Q 3.642,6.857 2.964,6.178 2.286,5.499 2.285,4.571 2.284,3.643 2.964,2.964 3.644,2.285 4.571,2.285 H 16 q 0.929,0 1.607,0.679 0.678,0.679 0.679,1.607 10e-4,0.928 -0.679,1.607 Q 16.927,6.857 16,6.857 V 16 q 1.768,0 3.17,1.759 1.402,1.759 1.402,3.955 z"/>
    </svg>
