<?xml version='1.0' encoding='UTF-8'?>
<svg xmlns="http://www.w3.org/2000/svg" viewBox="0 0 27 32" width="27" height="32" version="1.1"><path d="m 23.411,15.036 v 2.036 q 0,0.429 -0.241,0.679 -0.241,0.25 -0.67,0.25 h -3.607 q -0.429,0 -0.679,-0.25 -0.25,-0.25 -0.25,-0.679 v -2.036 q 0,-0.429 0.25,-0.679 0.25,-0.25 0.679,-0.25 H 22.5 q 0.429,0 0.67,0.25 0.241,0.25 0.241,0.679 z m -8.75,4.107 v -4.464 q 0,-0.946 -0.58,-1.527 -0.58,-0.581 -1.527,-0.58 h -2.375 q -1.214,0 -1.714,0.929 -0.5,-0.929 -1.714,-0.929 H 4.43 q -0.946,0 -1.527,0.58 -0.581,0.58 -0.58,1.527 v 4.464 q 0,0.393 0.375,0.393 H 3.68 q 0.393,0 0.393,-0.393 v -4.107 q 0,-0.429 0.241,-0.679 0.241,-0.25 0.688,-0.25 h 1.679 q 0.429,0 0.679,0.25 0.25,0.25 0.25,0.679 v 4.107 q 0,0.393 0.375,0.393 h 0.964 q 0.393,0 0.393,-0.393 v -4.107 q 0,-0.429 0.25,-0.679 0.25,-0.25 0.679,-0.25 h 1.732 q 0.429,0 0.67,0.25 0.241,0.25 0.241,0.679 v 4.107 q 0,0.393 0.393,0.393 h 0.982 q 0.375,0 0.375,-0.393 z m 10.518,-1.714 v -2.75 q 0,-0.946 -0.589,-1.527 -0.589,-0.581 -1.536,-0.58 H 18.34 q -0.946,0 -1.536,0.58 -0.59,0.58 -0.589,1.527 V 22 q 0,0.375 0.393,0.375 h 0.982 q 0.375,0 0.375,-0.375 v -3.214 q 0.554,0.75 1.679,0.75 h 3.411 q 0.946,0 1.536,-0.58 0.59,-0.58 0.589,-1.527 z m 2.25,-11 v 19.143 q 0,1.714 -1.214,2.929 -1.214,1.215 -2.929,1.214 H 4.143 q -1.714,0 -2.929,-1.214 Q -0.001,27.287 0,25.572 V 6.429 Q 0,4.715 1.214,3.5 2.428,2.285 4.143,2.286 h 19.143 q 1.714,0 2.929,1.214 1.215,1.214 1.214,2.929 z"/>
    </svg>
