<?xml version='1.0' encoding='UTF-8'?>
<svg xmlns="http://www.w3.org/2000/svg" viewBox="0 0 32 32" width="32" height="32" version="1.1"><path d="m 2.268,16 q 0,-2.911 1.196,-5.589 l 6.554,17.946 Q 6.518,26.661 4.393,23.339 2.268,20.017 2.268,16 Z m 23,-0.696 q 0,0.339 -0.045,0.688 -0.045,0.349 -0.179,0.884 -0.134,0.535 -0.205,0.786 -0.071,0.251 -0.313,1.054 -0.242,0.803 -0.313,1.036 L 22.856,24.323 17.892,9.573 Q 18.713,9.519 19.463,9.43 19.802,9.394 19.927,9.1 20.052,8.806 19.882,8.546 19.712,8.286 19.373,8.305 L 15.712,8.484 Q 14.373,8.466 12.105,8.305 11.891,8.287 11.739,8.394 q -0.152,0.107 -0.205,0.268 -0.053,0.161 -0.027,0.33 0.026,0.169 0.161,0.295 0.135,0.126 0.348,0.143 l 1.429,0.143 2.143,5.857 -3,9 -5,-14.857 Q 8.409,9.519 9.159,9.43 9.498,9.394 9.623,9.1 9.748,8.806 9.578,8.546 9.408,8.286 9.069,8.305 L 5.408,8.484 Q 5.283,8.484 4.997,8.475 4.711,8.466 4.533,8.466 6.408,5.609 9.435,3.939 q 3.027,-1.67 6.563,-1.67 2.625,0 5.009,0.946 2.384,0.946 4.259,2.661 h -0.179 q -0.982,0 -1.643,0.723 -0.661,0.723 -0.661,1.705 0,0.214 0.036,0.429 0.036,0.215 0.071,0.384 0.035,0.169 0.143,0.411 0.108,0.242 0.161,0.375 0.053,0.133 0.214,0.402 0.161,0.269 0.223,0.375 0.062,0.106 0.259,0.429 0.197,0.323 0.25,0.411 1.125,1.911 1.125,3.786 z m -9.036,1.892 4.232,11.554 q 0.018,0.107 0.089,0.196 -2.25,0.786 -4.554,0.786 -2,0 -3.875,-0.571 z M 28.036,9.411 q 1.696,3.107 1.696,6.589 0,3.732 -1.857,6.884 -1.857,3.152 -4.982,4.973 L 27.089,15.75 q 1.054,-3.018 1.054,-4.929 0,-0.75 -0.107,-1.411 z M 16,0 q 3.25,0 6.214,1.268 2.964,1.268 5.107,3.411 2.143,2.143 3.411,5.107 Q 32,12.75 32,16 q 0,3.25 -1.268,6.214 -1.268,2.964 -3.411,5.107 -2.143,2.143 -5.107,3.411 Q 19.25,32 16,32 12.75,32 9.786,30.732 6.822,29.464 4.679,27.321 2.536,25.178 1.268,22.214 0,19.25 0,16 0,12.75 1.268,9.786 2.536,6.822 4.679,4.679 6.822,2.536 9.786,1.268 12.75,0 16,0 Z m 0,31.268 q 3.089,0 5.92,-1.214 2.831,-1.214 4.875,-3.259 Q 28.839,24.75 30.054,21.92 31.269,19.09 31.268,16 31.267,12.91 30.054,10.08 28.841,7.25 26.795,5.205 24.749,3.16 21.92,1.946 19.091,0.732 16,0.732 12.909,0.732 10.08,1.946 7.251,3.16 5.205,5.205 3.159,7.25 1.946,10.08 0.733,12.91 0.732,16 q -0.001,3.09 1.214,5.92 1.215,2.83 3.259,4.875 2.044,2.045 4.875,3.259 2.831,1.214 5.92,1.214 z"/>
    </svg>
