<?xml version='1.0' encoding='UTF-8'?>
<svg xmlns="http://www.w3.org/2000/svg" viewBox="0 0 27 32" width="27" height="32" version="1.1"><path d="m 13.804,23.554 v 2.268 q -0.018,5.214 -0.107,5.446 -0.214,0.571 -0.911,0.714 Q 11.822,32.143 9.545,31.303 7.268,30.463 6.643,29.714 6.411,29.446 6.339,29.071 6.321,28.857 6.41,28.607 q 0.071,-0.179 0.607,-0.839 0.536,-0.66 3.232,-3.857 0.018,0 1.071,-1.25 0.268,-0.339 0.705,-0.438 0.437,-0.099 0.884,0.063 0.429,0.179 0.67,0.518 0.241,0.339 0.223,0.75 z m -2.661,-4.483 q -0.054,0.982 -0.929,1.25 L 8.071,21.017 Q 3.16,22.588 2.857,22.588 2.232,22.552 1.893,21.945 1.679,21.499 1.589,20.606 1.446,19.249 1.607,17.633 1.768,16.017 2.143,15.41 q 0.375,-0.607 1,-0.571 0.232,0 3.607,1.375 1.25,0.518 2.054,0.839 l 1.5,0.607 q 0.411,0.161 0.634,0.545 0.223,0.384 0.205,0.866 z m 14.75,5.304 q -0.125,0.964 -1.634,2.875 -1.509,1.911 -2.42,2.268 -0.661,0.25 -1.125,-0.125 -0.25,-0.179 -3.286,-5.125 l -0.839,-1.375 q -0.25,-0.375 -0.205,-0.821 0.045,-0.446 0.348,-0.821 0.625,-0.768 1.482,-0.464 0.018,0.018 2.125,0.714 3.625,1.179 4.321,1.42 0.696,0.241 0.839,0.366 0.5,0.393 0.393,1.089 z m -12,-11.286 Q 13.982,14.91 12.929,15.268 11.893,15.572 10.893,14 L 4.143,3.321 Q 4,2.696 4.482,2.214 5.214,1.446 8.187,0.616 q 2.973,-0.83 4.009,-0.563 0.714,0.179 0.875,0.804 0.054,0.321 0.393,5.455 0.339,5.134 0.429,6.777 z m 11.821,1.929 q 0.054,0.696 -0.464,1.054 -0.268,0.179 -5.875,1.536 -1.196,0.268 -1.625,0.411 l 0.018,-0.036 q -0.411,0.107 -0.821,-0.071 -0.41,-0.178 -0.661,-0.571 -0.536,-0.839 0,-1.554 0.018,-0.018 1.339,-1.821 2.232,-3.054 2.679,-3.643 0.447,-0.589 0.607,-0.696 0.5,-0.339 1.161,-0.036 0.857,0.411 2.196,2.384 1.339,1.973 1.446,2.991 v 0.054 z"/>
    </svg>
