<?xml version='1.0' encoding='UTF-8'?>
<svg xmlns="http://www.w3.org/2000/svg" viewBox="0 0 41 32" width="41" height="32" version="1.1"><path d="M 14,24.5 14.286,20.196 14,10.857 q -0.018,-0.179 -0.134,-0.304 -0.116,-0.125 -0.295,-0.125 -0.161,0 -0.286,0.125 -0.125,0.125 -0.125,0.304 l -0.25,9.339 0.25,4.304 q 0.018,0.179 0.134,0.295 0.116,0.116 0.277,0.116 0.393,0 0.429,-0.411 z M 19.286,23.982 19.482,20.214 19.268,9.75 q 0,-0.286 -0.232,-0.429 -0.143,-0.089 -0.286,-0.089 -0.143,0 -0.286,0.089 -0.232,0.143 -0.232,0.429 l -0.018,0.107 -0.179,10.339 q 0,0.018 0.196,4.214 v 0.018 q 0,0.179 0.107,0.304 0.161,0.196 0.411,0.196 0.196,0 0.357,-0.161 0.161,-0.125 0.161,-0.357 z m -18.661,-6.071 0.357,2.286 -0.357,2.25 q -0.036,0.161 -0.161,0.161 -0.125,0 -0.161,-0.161 l -0.304,-2.25 0.304,-2.286 q 0.036,-0.161 0.161,-0.161 0.125,0 0.161,0.161 z M 2.161,16.5 2.625,20.196 2.161,23.821 q -0.036,0.161 -0.179,0.161 -0.161,0 -0.161,-0.179 L 1.41,20.196 1.821,16.5 q 0,-0.161 0.161,-0.161 0.143,0 0.179,0.161 z m 1.643,-0.679 0.446,4.375 -0.446,4.232 q 0,0.196 -0.196,0.196 -0.179,0 -0.214,-0.196 L 3.019,20.196 3.394,15.821 q 0.036,-0.214 0.214,-0.214 0.196,0 0.196,0.214 z m 1.678,-0.125 0.411,4.5 -0.411,4.357 Q 5.446,24.785 5.232,24.785 5,24.785 5,24.553 L 4.625,20.196 5,15.696 q 0,-0.232 0.232,-0.232 0.214,0 0.25,0.232 z m 1.679,0.322 0.375,4.179 -0.375,4.393 q -0.036,0.286 -0.286,0.286 -0.107,0 -0.188,-0.08 -0.081,-0.08 -0.08,-0.205 L 6.25,20.198 6.607,16.019 q 0,-0.107 0.08,-0.188 0.08,-0.081 0.188,-0.08 0.25,0 0.286,0.268 z m 1.678,-2.607 0.375,6.786 -0.375,4.393 q 0,0.125 -0.089,0.223 -0.089,0.098 -0.214,0.098 -0.286,0 -0.321,-0.321 L 7.894,20.197 8.215,13.411 q 0.036,-0.321 0.321,-0.321 0.125,0 0.214,0.098 0.089,0.098 0.089,0.223 z m 1.679,-1.536 0.339,8.357 -0.339,4.357 q 0,0.143 -0.098,0.241 -0.098,0.098 -0.241,0.098 -0.321,0 -0.357,-0.339 L 9.536,20.232 9.822,11.875 q 0.036,-0.339 0.357,-0.339 0.143,0 0.241,0.098 0.098,0.098 0.098,0.241 z m 1.75,-0.714 0.321,9.036 -0.321,4.321 q -0.036,0.375 -0.393,0.375 -0.339,0 -0.375,-0.375 L 11.214,20.197 11.5,11.161 q 0,-0.161 0.116,-0.277 0.116,-0.116 0.259,-0.116 0.161,0 0.268,0.116 0.107,0.116 0.125,0.277 z m 7,13.25 z M 15.732,11.089 16,20.196 15.732,24.464 q 0,0.179 -0.134,0.313 -0.134,0.134 -0.313,0.134 -0.179,0 -0.304,-0.125 -0.125,-0.125 -0.143,-0.321 l -0.25,-4.268 0.25,-9.107 q 0,-0.196 0.134,-0.321 0.134,-0.125 0.313,-0.125 0.179,0 0.313,0.125 0.134,0.125 0.134,0.321 z m 1.768,0.34 0.25,8.786 -0.25,4.214 q 0,0.196 -0.143,0.339 -0.143,0.143 -0.339,0.143 -0.196,0 -0.339,-0.143 -0.143,-0.143 -0.161,-0.339 l -0.214,-4.214 0.214,-8.786 q 0.018,-0.214 0.161,-0.357 0.143,-0.143 0.339,-0.143 0.196,0 0.33,0.143 0.134,0.143 0.152,0.357 z m 3.786,8.785 -0.25,4.125 q 0,0.232 -0.161,0.393 -0.161,0.161 -0.393,0.161 -0.232,0 -0.393,-0.161 -0.161,-0.161 -0.179,-0.393 L 19.803,22.303 19.696,20.214 19.91,8.857 V 8.803 q 0.036,-0.268 0.214,-0.429 0.161,-0.125 0.357,-0.125 0.143,0 0.268,0.089 0.25,0.143 0.286,0.464 z m 19.857,-0.339 q 0,2.089 -1.482,3.563 -1.482,1.474 -3.571,1.473 H 22.054 Q 21.822,24.875 21.661,24.715 21.5,24.555 21.5,24.322 V 8.268 q 0,-0.411 0.5,-0.589 1.518,-0.607 3.232,-0.607 3.482,0 6.036,2.348 2.554,2.348 2.857,5.777 0.946,-0.393 1.964,-0.393 2.089,0 3.571,1.482 1.482,1.482 1.482,3.589 z"/>
    </svg>
