<?xml version='1.0' encoding='UTF-8'?>
<svg xmlns="http://www.w3.org/2000/svg" viewBox="0 0 14 16" width="14" height="16" version="1.1"><path d="M 13,2 H 12 V 3.5 C 12,3.78 11.78,4 11.5,4 h -2 C 9.22,4 9,3.78 9,3.5 V 2 H 6 V 3.5 C 6,3.78 5.78,4 5.5,4 h -2 C 3.22,4 3,3.78 3,3.5 V 2 H 2 C 1.45,2 1,2.45 1,3 v 11 c 0,0.55 0.45,1 1,1 h 11 c 0.55,0 1,-0.45 1,-1 V 3 C 14,2.45 13.55,2 13,2 Z m 0,12 H 2 V 5 H 13 Z M 5,3 H 4 V 1 h 1 z m 6,0 H 10 V 1 h 1 z M 6,7 H 5 V 6 H 6 Z M 8,7 H 7 V 6 h 1 z m 2,0 H 9 V 6 h 1 z m 2,0 H 11 V 6 h 1 z M 4,9 H 3 V 8 H 4 Z M 6,9 H 5 V 8 H 6 Z M 8,9 H 7 V 8 h 1 z m 2,0 H 9 V 8 h 1 z m 2,0 H 11 V 8 h 1 z M 4,11 H 3 v -1 h 1 z m 2,0 H 5 v -1 h 1 z m 2,0 H 7 v -1 h 1 z m 2,0 H 9 v -1 h 1 z m 2,0 h -1 v -1 h 1 z M 4,13 H 3 v -1 h 1 z m 2,0 H 5 v -1 h 1 z m 2,0 H 7 v -1 h 1 z m 2,0 H 9 v -1 h 1 z" style="fill-rule:evenodd"/>
    </svg>
