<?xml version='1.0' encoding='UTF-8'?>
<svg xmlns="http://www.w3.org/2000/svg" viewBox="0 0 32 32" width="32" height="32" version="1.1"><path d="m 17.696,18.286 1.143,-4.571 h -4.536 l -1.143,4.571 z m 13.715,-9 -1,4 q -0.125,0.429 -0.554,0.429 h -5.839 l -1.143,4.571 h 5.554 q 0.268,0 0.446,0.214 0.179,0.25 0.107,0.5 l -1,4 q -0.089,0.429 -0.554,0.429 h -5.839 l -1.446,5.857 q -0.125,0.429 -0.554,0.429 h -4 q -0.286,0 -0.464,-0.214 -0.161,-0.214 -0.107,-0.5 l 1.393,-5.571 h -4.536 l -1.446,5.857 q -0.125,0.429 -0.554,0.429 H 5.857 q -0.268,0 -0.446,-0.214 -0.161,-0.214 -0.107,-0.5 L 6.697,23.431 H 1.143 q -0.268,0 -0.446,-0.214 -0.161,-0.214 -0.107,-0.5 l 1,-4 Q 1.715,18.288 2.144,18.288 H 7.983 L 9.126,13.717 H 3.572 q -0.268,0 -0.446,-0.214 -0.179,-0.25 -0.107,-0.5 l 1,-4 Q 4.108,8.574 4.573,8.574 h 5.839 l 1.446,-5.857 q 0.125,-0.429 0.571,-0.429 h 4 q 0.268,0 0.446,0.214 0.161,0.214 0.107,0.5 l -1.393,5.571 h 4.536 l 1.446,-5.857 q 0.125,-0.429 0.571,-0.429 h 4 q 0.268,0 0.446,0.214 0.161,0.214 0.107,0.5 l -1.393,5.571 h 5.554 q 0.268,0 0.446,0.214 0.161,0.214 0.107,0.5 z"/>
    </svg>
