<?xml version='1.0' encoding='UTF-8'?>
<svg xmlns="http://www.w3.org/2000/svg" viewBox="0 0 32 32" width="32" height="32" version="1.1"><path style="fill-rule:evenodd" d="m 19.5,18 c -0.822505,0 -1.453904,0.632418 -1.861328,1.447266 C 17.231248,20.262113 17,21.327875 17,22.5 c 0,1.172125 0.231248,2.237887 0.638672,3.052734 C 18.046096,26.367582 18.677495,27 19.5,27 20.322505,27 20.953904,26.367582 21.361328,25.552734 21.768752,24.737887 22,23.672125 22,22.5 22,21.327875 21.768752,20.262113 21.361328,19.447266 20.953904,18.632418 20.322505,18 19.5,18 Z m 0,1 c 0.282065,0 0.650363,0.261664 0.966797,0.894531 C 20.783231,20.527399 21,21.462986 21,22.5 21,23.537014 20.783231,24.472601 20.466797,25.105469 20.150363,25.738336 19.782065,26 19.5,26 19.217935,26 18.849637,25.738336 18.533203,25.105469 18.216769,24.472601 18,23.537014 18,22.5 18,21.462986 18.216769,20.527399 18.533203,19.894531 18.849637,19.261664 19.217935,19 19.5,19 Z m -7,-1 c -0.822505,0 -1.453904,0.632418 -1.861328,1.447266 C 10.231248,20.262113 10,21.327875 10,22.5 c 0,1.172125 0.231248,2.237887 0.638672,3.052734 C 11.046096,26.367582 11.677495,27 12.5,27 13.322505,27 13.953904,26.367582 14.361328,25.552734 14.768752,24.737887 15,23.672125 15,22.5 15,21.327875 14.768752,20.262113 14.361328,19.447266 13.953904,18.632418 13.322505,18 12.5,18 Z m 0,1 c 0.282065,0 0.650363,0.261664 0.966797,0.894531 C 13.783231,20.527399 14,21.462986 14,22.5 14,23.537014 13.783231,24.472601 13.466797,25.105469 13.150363,25.738336 12.782065,26 12.5,26 12.217935,26 11.849637,25.738336 11.533203,25.105469 11.216769,24.472601 11,23.537014 11,22.5 11,21.462986 11.216769,20.527399 11.533203,19.894531 11.849637,19.261664 12.217935,19 12.5,19 Z M 28,31 c -5.5e-5,0.552262 -0.447738,0.999945 -1,1 H 5 C 4.4477381,31.999945 4.0000552,31.552262 4,31 4,24.666666 4,18.333333 4,11.999999 4.0000006,5.3725824 9.3725834,0 16,0 c 6.627417,0 12,5.372583 12,12 0,6.333333 0,12.666667 0,19 z M 6,14 H 26 V 30 H 6 Z"/>
    </svg>
