<?xml version='1.0' encoding='UTF-8'?>
<svg xmlns="http://www.w3.org/2000/svg" viewBox="0 0 32 32" width="32" height="32" version="1.1"><path d="m 10.166653,13.857145 v 4.285713 c 0,0.710088 -0.5876168,1.285713 -1.3124996,1.285713 H 3.312505 c -0.7248828,0 -1.3125001,-0.575625 -1.3125001,-1.285713 v -4.285713 c 0,-0.710092 0.5876173,-1.285717 1.3125001,-1.285717 h 5.5416484 c 0.7248828,0 1.3124996,0.575625 1.3124996,1.285717 z m -8.1666481,8.571428 v 4.285714 C 2.0000049,27.424376 2.5876222,28 3.312505,28 h 5.5416484 c 0.7248828,0 1.3124996,-0.575624 1.3124996,-1.285713 v -4.285714 c 0,-0.710091 -0.5876168,-1.285715 -1.3124996,-1.285715 H 3.312505 c -0.7248828,0 -1.3125001,0.575624 -1.3125001,1.285715 z M 8.8541534,4 H 3.312505 C 2.5876222,4 2.0000049,4.5756247 2.0000049,5.2857143 v 4.2857141 c 0,0.7100896 0.5876173,1.2857136 1.3125001,1.2857136 h 5.5416484 c 0.7248828,0 1.3124996,-0.575624 1.3124996,-1.2857136 V 5.2857143 C 10.166653,4.5756247 9.5790362,4 8.8541534,4 Z m 4.3750006,24 h 15.458351 c 0.724883,0 1.3125,-0.575624 1.3125,-1.285713 v -4.285714 c 0,-0.710091 -0.587617,-1.285715 -1.3125,-1.285715 H 13.229154 c -0.724883,0 -1.312501,0.575624 -1.312501,1.285715 v 4.285714 C 11.916653,27.424376 12.504271,28 13.229154,28 Z M 11.916653,5.2857143 v 4.2857141 c 0,0.7100896 0.587618,1.2857136 1.312501,1.2857136 h 15.458351 c 0.724883,0 1.3125,-0.575624 1.3125,-1.2857136 V 5.2857143 C 30.000005,4.5756247 29.412388,4 28.687505,4 H 13.229154 c -0.724883,0 -1.312501,0.5756247 -1.312501,1.2857143 z m 1.312501,14.1428567 h 15.458351 c 0.724883,0 1.3125,-0.575625 1.3125,-1.285713 v -4.285713 c 0,-0.710092 -0.587617,-1.285717 -1.3125,-1.285717 H 13.229154 c -0.724883,0 -1.312501,0.575625 -1.312501,1.285717 v 4.285713 c 0,0.710088 0.587618,1.285713 1.312501,1.285713 z"/>
    </svg>
