<?xml version='1.0' encoding='UTF-8'?>
<svg xmlns="http://www.w3.org/2000/svg" viewBox="0 0 27 32" width="27" height="32" version="1.1"><path d="m 22.286,2.286 q 2.125,0 3.634,1.509 1.509,1.509 1.509,3.634 v 17.143 q 0,2.125 -1.509,3.634 -1.509,1.509 -3.634,1.509 H 5.143 q -2.125,0 -3.634,-1.509 Q 0,26.697 0,24.572 V 7.429 Q 0,5.304 1.509,3.795 3.018,2.286 5.143,2.286 Z M 12.464,16 q 0,-1.571 -1.107,-2.679 Q 10.25,12.213 8.678,12.214 7.106,12.215 5.999,13.321 4.892,14.427 4.892,16 q 0,1.573 1.107,2.679 1.107,1.106 2.679,1.107 1.572,10e-4 2.679,-1.107 1.107,-1.108 1.107,-2.679 z m 10.072,0 q 0,-1.571 -1.107,-2.679 -1.107,-1.108 -2.679,-1.107 -1.572,10e-4 -2.679,1.107 -1.107,1.106 -1.107,2.679 0,1.573 1.107,2.679 1.107,1.106 2.679,1.107 1.572,10e-4 2.679,-1.107 1.107,-1.108 1.107,-2.679 z"/>
    </svg>
