<?xml version='1.0' encoding='UTF-8'?>
<svg xmlns="http://www.w3.org/2000/svg" viewBox="0 0 27 32" width="27" height="32" version="1.1"><path d="M 6.232,11.161 V 28.857 H 0.339 V 11.161 Z M 6.607,5.696 Q 6.625,7 5.705,7.875 4.785,8.75 3.285,8.75 H 3.249 Q 1.785,8.75 0.892,7.875 -0.001,7 -0.001,5.696 q 0,-1.321 0.92,-2.188 0.92,-0.867 2.402,-0.866 1.482,10e-4 2.375,0.866 0.893,0.865 0.911,2.188 z m 20.822,13.018 v 10.143 h -5.875 v -9.464 q 0,-1.875 -0.723,-2.938 -0.723,-1.063 -2.259,-1.063 -1.125,0 -1.884,0.616 -0.759,0.616 -1.134,1.527 -0.196,0.536 -0.196,1.446 v 9.875 H 9.483 q 0.036,-7.125 0.036,-11.554 0,-4.429 -0.018,-5.286 L 9.483,11.159 h 5.875 v 2.571 h -0.036 q 0.357,-0.571 0.732,-1 0.375,-0.429 1.009,-0.929 0.634,-0.5 1.554,-0.777 0.92,-0.277 2.045,-0.277 3.054,0 4.911,2.027 1.857,2.027 1.857,5.938 z"/>
    </svg>
