<?xml version='1.0' encoding='UTF-8'?>
<svg xmlns="http://www.w3.org/2000/svg" viewBox="0 0 25 32" width="25" height="32" version="1.1"><path d="m 23.179,23.607 q 0,0.714 -0.5,1.214 L 20.25,27.25 q -0.5,0.5 -1.214,0.5 -0.714,0 -1.214,-0.5 L 12.572,22 7.322,27.25 q -0.5,0.5 -1.214,0.5 -0.714,0 -1.214,-0.5 L 2.465,24.821 q -0.5,-0.5 -0.5,-1.214 0,-0.714 0.5,-1.214 l 5.25,-5.25 -5.25,-5.25 q -0.5,-0.5 -0.5,-1.214 0,-0.714 0.5,-1.214 L 4.894,7.036 q 0.5,-0.5 1.214,-0.5 0.714,0 1.214,0.5 l 5.25,5.25 5.25,-5.25 q 0.5,-0.5 1.214,-0.5 0.714,0 1.214,0.5 l 2.429,2.429 q 0.5,0.5 0.5,1.214 0,0.714 -0.5,1.214 l -5.25,5.25 5.25,5.25 q 0.5,0.5 0.5,1.214 z"/>
    </svg>
