<?xml version='1.0' encoding='UTF-8'?>
<svg xmlns="http://www.w3.org/2000/svg" viewBox="0 0 27 32" width="27" height="32" version="1.1"><path d="m 17.339,22.214 v 3.768 q 0,1.196 -0.696,1.196 -0.411,0 -0.804,-0.393 V 21.41 q 0.393,-0.393 0.804,-0.393 0.696,0 0.696,1.196 z m 6.036,0.018 v 0.821 h -1.607 v -0.821 q 0,-1.214 0.804,-1.214 0.804,0 0.804,1.214 z M 6.125,18.339 H 8.036 V 16.66 H 2.465 v 1.679 H 4.34 V 28.5 H 6.126 V 18.339 Z M 11.268,28.5 h 1.589 v -8.821 h -1.589 v 6.75 q -0.536,0.75 -1.018,0.75 -0.321,0 -0.375,-0.375 Q 9.857,26.75 9.857,26.179 v -6.5 H 8.268 v 6.982 q 0,0.875 0.143,1.304 0.214,0.661 1.036,0.661 0.857,0 1.821,-1.089 v 0.964 z m 7.661,-2.643 v -3.518 q 0,-1.304 -0.161,-1.768 -0.304,-1 -1.268,-1 -0.893,0 -1.661,0.964 V 16.66 H 14.25 v 11.839 h 1.589 v -0.857 q 0.804,0.982 1.661,0.982 0.964,0 1.268,-0.982 0.161,-0.482 0.161,-1.786 z m 6.035,-0.178 v -0.232 h -1.625 q 0,0.911 -0.036,1.089 -0.125,0.643 -0.714,0.643 -0.821,0 -0.821,-1.232 v -1.554 h 3.196 v -1.839 q 0,-1.411 -0.482,-2.071 -0.696,-0.911 -1.893,-0.911 -1.214,0 -1.911,0.911 -0.5,0.661 -0.5,2.071 v 3.089 q 0,1.411 0.518,2.071 0.696,0.911 1.929,0.911 1.286,0 1.929,-0.946 0.321,-0.482 0.375,-0.964 0.036,-0.161 0.036,-1.036 z M 14.107,9.375 v -3.75 q 0,-1.232 -0.768,-1.232 -0.768,0 -0.768,1.232 v 3.75 q 0,1.25 0.768,1.25 0.768,0 0.768,-1.25 z m 12.839,13.411 q 0,4.179 -0.464,6.25 -0.25,1.054 -1.036,1.768 -0.786,0.714 -1.821,0.821 Q 20.339,32 13.714,32 7.089,32 3.803,31.625 2.767,31.518 1.973,30.804 1.179,30.09 0.946,29.036 q -0.464,-2 -0.464,-6.25 0,-4.179 0.464,-6.25 0.25,-1.054 1.036,-1.768 0.786,-0.714 1.839,-0.839 3.268,-0.357 9.893,-0.357 6.625,0 9.911,0.357 1.036,0.125 1.83,0.839 0.794,0.714 1.027,1.768 0.464,2 0.464,6.25 z M 9.125,0 h 1.821 L 8.785,7.125 v 4.839 H 6.999 V 7.125 Q 6.749,5.804 5.91,3.339 5.249,1.5 4.749,0 H 6.642 L 7.91,4.696 Z m 6.607,5.946 v 3.125 q 0,1.446 -0.5,2.107 -0.661,0.911 -1.893,0.911 -1.196,0 -1.875,-0.911 -0.5,-0.679 -0.5,-2.107 V 5.946 q 0,-1.429 0.5,-2.089 0.679,-0.911 1.875,-0.911 1.232,0 1.893,0.911 0.5,0.661 0.5,2.089 z m 5.982,-2.892 v 8.911 h -1.625 v -0.982 q -0.946,1.107 -1.839,1.107 -0.821,0 -1.054,-0.661 Q 17.053,11 17.053,10.09 V 3.054 h 1.625 v 6.554 q 0,0.589 0.018,0.625 0.054,0.393 0.375,0.393 0.482,0 1.018,-0.768 V 3.054 Z"/>
    </svg>
