<?xml version='1.0' encoding='UTF-8'?>
<svg xmlns="http://www.w3.org/2000/svg" viewBox="0 0 34 32" width="34" height="32" version="1.1"><path d="m 18.964,12.714 v -2.107 q 0,-0.75 -0.536,-1.286 -0.536,-0.536 -1.286,-0.536 -0.75,0 -1.286,0.536 -0.536,0.536 -0.536,1.286 v 10.929 q 0,3.125 -2.25,5.339 -2.25,2.214 -5.411,2.214 -3.179,0 -5.42,-2.241 -2.241,-2.241 -2.241,-5.42 v -4.75 h 5.857 v 4.679 q 0,0.768 0.536,1.295 0.536,0.527 1.286,0.527 0.75,0 1.286,-0.527 0.536,-0.527 0.536,-1.295 V 10.286 q 0,-3.054 2.259,-5.214 2.259,-2.16 5.384,-2.161 3.143,0 5.393,2.179 2.25,2.179 2.25,5.25 v 2.429 l -3.482,1.036 z m 9.465,3.965 h 5.857 v 4.75 q 0,3.179 -2.241,5.42 -2.241,2.241 -5.42,2.241 -3.161,0 -5.411,-2.223 -2.25,-2.223 -2.25,-5.366 v -4.786 l 2.339,1.089 3.482,-1.036 v 4.821 q 0,0.75 0.536,1.277 0.536,0.527 1.286,0.527 0.75,0 1.286,-0.527 0.536,-0.527 0.536,-1.277 v -4.911 z"/>
    </svg>
