<?xml version='1.0' encoding='UTF-8'?>
<svg xmlns="http://www.w3.org/2000/svg" viewBox="0 0 23 32" width="23" height="32" version="1.1"><path d="M 0,10.661 Q 0,8.732 0.67,7.027 1.34,5.322 2.518,4.054 3.696,2.786 5.232,1.858 6.768,0.93 8.536,0.465 10.304,0 12.143,0.001 q 2.821,0 5.25,1.188 2.429,1.188 3.946,3.455 1.517,2.267 1.518,5.125 0,1.714 -0.339,3.357 -0.339,1.643 -1.071,3.161 -0.732,1.518 -1.786,2.67 -1.054,1.152 -2.589,1.839 -1.535,0.687 -3.375,0.688 -1.214,0 -2.411,-0.571 -1.197,-0.571 -1.714,-1.571 -0.179,0.696 -0.5,2.009 -0.321,1.313 -0.42,1.696 Q 8.553,23.43 8.286,24.315 8.019,25.2 7.822,25.583 7.625,25.966 7.251,26.699 6.877,27.432 6.43,28.083 5.983,28.734 5.323,29.628 L 5.073,29.717 4.912,29.538 Q 4.644,26.734 4.644,26.181 4.644,24.538 5.028,22.493 5.412,20.448 6.216,17.359 7.02,14.27 7.145,13.734 6.574,12.573 6.574,10.716 6.574,9.234 7.503,7.93 8.432,6.626 9.86,6.626 q 1.089,0 1.696,0.723 0.607,0.723 0.607,1.83 0,1.179 -0.786,3.411 -0.786,2.232 -0.786,3.339 0,1.125 0.804,1.866 0.804,0.741 1.946,0.741 0.982,0 1.821,-0.446 0.839,-0.446 1.402,-1.214 0.563,-0.768 1,-1.696 0.437,-0.928 0.679,-1.973 0.242,-1.045 0.357,-1.982 0.115,-0.937 0.116,-1.777 0,-3.089 -1.955,-4.813 -1.955,-1.724 -5.098,-1.723 -3.571,0 -5.964,2.313 -2.393,2.313 -2.393,5.866 0,0.786 0.223,1.518 0.223,0.732 0.482,1.161 0.259,0.429 0.482,0.813 0.223,0.384 0.223,0.545 0,0.5 -0.268,1.304 -0.268,0.804 -0.661,0.804 -0.036,0 -0.304,-0.054 -0.911,-0.268 -1.616,-1 Q 1.162,15.45 0.778,14.494 0.394,13.538 0.198,12.565 0.002,11.592 0.002,10.663 Z"/>
    </svg>
