<?xml version='1.0' encoding='UTF-8'?>
<svg xmlns="http://www.w3.org/2000/svg" viewBox="0 0 32 32" width="32" height="32" version="1.1"><path d="m 3.857,20.875 10.768,7.179 V 21.643 L 8.661,17.661 Z M 2.75,18.304 6.196,16 2.75,13.696 v 4.607 z m 14.625,9.75 10.768,-7.179 -4.804,-3.214 -5.964,3.982 z M 16,19.25 20.857,16 16,12.75 11.143,16 Z M 8.661,14.339 14.625,10.357 V 3.946 L 3.857,11.125 Z M 25.804,16 29.25,18.304 V 13.697 Z M 23.339,14.339 28.143,11.125 17.375,3.946 v 6.411 z M 32,11.125 v 9.75 q 0,0.732 -0.607,1.143 l -14.625,9.75 Q 16.393,32 16,32 15.607,32 15.232,31.768 L 0.607,22.018 Q 0,21.607 0,20.875 v -9.75 Q 0,10.393 0.607,9.982 L 15.232,0.232 Q 15.607,0 16,0 q 0.393,0 0.768,0.232 l 14.625,9.75 Q 32,10.393 32,11.125 Z"/>
    </svg>
