<?xml version='1.0' encoding='UTF-8'?>
<svg xmlns="http://www.w3.org/2000/svg" viewBox="0 0 30 32" width="30" height="32" version="1.1"><path d="m 13.714,5.714 v 12.571 q 0,1.857 -0.723,3.545 -0.723,1.688 -1.955,2.92 -1.232,1.232 -2.92,1.955 -1.688,0.723 -3.545,0.723 H 3.428 q -0.464,0 -0.804,-0.339 -0.34,-0.339 -0.339,-0.804 v -2.286 q 0,-0.464 0.339,-0.804 0.339,-0.34 0.804,-0.339 h 1.143 q 1.893,0 3.232,-1.339 1.339,-1.339 1.339,-3.232 V 17.714 Q 9.142,17 8.642,16.5 8.142,16 7.428,16 h -4 q -1.429,0 -2.429,-1 -1,-1 -1,-2.429 V 5.714 q 0,-1.429 1,-2.429 1,-1 2.429,-1 h 6.857 q 1.429,0 2.429,1 1,1 1,2.429 z m 16,0 v 12.571 q 0,1.857 -0.723,3.545 -0.723,1.688 -1.955,2.92 -1.232,1.232 -2.92,1.955 -1.688,0.723 -3.545,0.723 h -1.143 q -0.464,0 -0.804,-0.339 -0.34,-0.339 -0.339,-0.804 v -2.286 q 0,-0.464 0.339,-0.804 0.339,-0.34 0.804,-0.339 h 1.143 q 1.893,0 3.232,-1.339 1.339,-1.339 1.339,-3.232 V 17.714 Q 25.142,17 24.642,16.5 24.142,16 23.428,16 h -4 q -1.429,0 -2.429,-1 -1,-1 -1,-2.429 V 5.714 q 0,-1.429 1,-2.429 1,-1 2.429,-1 h 6.857 q 1.429,0 2.429,1 1,1 1,2.429 z"/>
    </svg>
