<?xml version='1.0' encoding='UTF-8'?>
<svg xmlns="http://www.w3.org/2000/svg" viewBox="0 0 32 32" width="32" height="32" version="1.1"><path d="m 30.518,9.25 q -0.179,4.214 -5.929,11.625 -5.946,7.696 -10.036,7.696 -2.536,0 -4.286,-4.696 Q 9.481,21.018 7.91,15.268 6.624,10.589 5.106,10.589 q -0.321,0 -2.268,1.357 L 1.463,10.196 Q 1.892,9.821 3.392,8.473 4.892,7.125 5.713,6.41 8.499,3.946 10.017,3.803 q 1.696,-0.161 2.732,0.991 1.036,1.152 1.446,3.634 0.786,5.125 1.179,6.661 0.982,4.446 2.143,4.446 0.911,0 2.75,-2.875 1.804,-2.875 1.946,-4.393 0.232,-2.482 -1.946,-2.482 -1.018,0 -2.161,0.464 2.143,-7.018 8.196,-6.821 4.482,0.143 4.214,5.821 z"/>
    </svg>
