<?xml version='1.0' encoding='UTF-8'?>
<svg xmlns="http://www.w3.org/2000/svg" viewBox="0 0 43 32" width="43" height="32" version="1.1"><path d="M 42.311,14.044 C 42.133,13.866 41.778,13.688 41.6,13.688 H 7.822 L 18.133,3.199 c 0.178,-0.178 0.356,-0.533 0.356,-0.711 0,-0.356 -0.178,-0.533 -0.356,-0.711 l -1.6,-1.422 C 16.177,0.177 16,-0.001 15.644,-0.001 c -0.356,0 -0.533,0.178 -0.711,0.356 L 0.355,15.288 c -0.178,0.178 -0.356,0.533 -0.356,0.711 0,0.178 0.178,0.533 0.356,0.711 l 14.756,14.933 c 0,0.178 0.356,0.356 0.533,0.356 0.177,0 0.533,-0.178 0.711,-0.356 l 1.6,-1.6 c 0.178,-0.178 0.356,-0.533 0.356,-0.711 0,-0.178 -0.178,-0.533 -0.356,-0.711 L 7.644,18.132 h 33.778 c 0.178,0 0.533,-0.178 0.711,-0.356 0.356,-0.178 0.533,-0.356 0.533,-0.711 v -2.133 c 0,-0.356 -0.178,-0.711 -0.356,-0.889 z"/>
    </svg>
