<?xml version='1.0' encoding='UTF-8'?>
<svg xmlns="http://www.w3.org/2000/svg" viewBox="0 0 34 32" width="34" height="32" version="1.1"><path d="m 33.554,17 q 0,0.554 -0.554,1.179 l -6,7.071 q -0.768,0.911 -2.152,1.545 -1.384,0.634 -2.563,0.634 H 2.856 q -0.607,0 -1.08,-0.232 -0.473,-0.232 -0.473,-0.768 0,-0.554 0.554,-1.179 l 6,-7.071 Q 8.625,17.268 10.009,16.634 11.393,16 12.572,16 h 19.429 q 0.607,0 1.08,0.232 0.473,0.232 0.473,0.768 z m -6.125,-6.143 v 2.857 H 12.572 q -1.679,0 -3.518,0.848 -1.839,0.848 -2.929,2.134 l -6.107,7.179 q 0,-0.071 -0.009,-0.223 Q 0,23.5 0,23.429 V 6.286 Q 0,4.643 1.179,3.465 2.358,2.287 4,2.286 h 5.714 q 1.643,0 2.821,1.179 1.178,1.179 1.179,2.821 v 0.571 h 9.714 q 1.643,0 2.821,1.179 1.178,1.179 1.179,2.821 z"/>
    </svg>
