<?xml version='1.0' encoding='UTF-8'?>
<svg xmlns="http://www.w3.org/2000/svg" viewBox="0 0 32 32" width="32" height="32" version="1.1"><path d="M 12.169544,2.662355e-7 C 11.784822,2.3123211e-4 11.671879,0.01812881 11.563753,0.05304637 L 6.3251228,1.0206095 C 4.8739727,1.270084 5.2767474,3.4401886 6.7216986,3.1573114 L 9.4508179,2.6544332 0.28907842,15.568006 c -0.97264337,1.33726 0.73064848,2.57919 1.83575938,1.177627 L 11.288709,3.8299373 11.811081,6.6371439 c 0.250693,1.4441418 2.431281,1.0433139 2.147049,-0.3946638 L 12.988013,1.0397063 C 12.962852,0.45886135 12.482696,6.5437985e-4 11.898497,2.662355e-7 Z M 26.013162,0.46468525 C 25.325548,0.45291316 24.7038,0.8699353 24.456712,1.5086349 l -5.45824,14.1230271 c -0.85918,2.059429 2.304193,3.272106 3.055334,1.171261 l 3.249359,-8.4067661 3.430587,22.1924181 c 0.300861,2.19004 3.612383,1.68203 3.236565,-0.496511 L 27.603726,1.846009 C 27.482271,1.0615466 26.810608,0.47824184 26.013162,0.46468525 Z M 14.966626,12.417061 c -0.492219,0.03109 -0.944143,0.281296 -1.230237,0.681114 L 2.8199115,28.307589 c -1.3489809,1.781148 1.4113199,3.741405 2.665155,1.892688 l 9.0721905,-12.641975 2.741912,7.882668 c 0.669098,2.141757 3.897617,1.030174 3.093713,-1.065168 L 16.614757,13.511935 c -0.240001,-0.691861 -0.914036,-1.139632 -1.648131,-1.094874 z"/>
    </svg>
