<?xml version='1.0' encoding='UTF-8'?>
<svg xmlns="http://www.w3.org/2000/svg" viewBox="0 0 32 32" width="32" height="32" version="1.1"><path d="m 15.589,13.214 q 0,1.482 -1.134,2.545 -1.134,1.063 -2.723,1.063 -1.589,0 -2.723,-1.063 -1.134,-1.063 -1.134,-2.545 0,-1.5 1.134,-2.554 1.134,-1.054 2.723,-1.054 1.589,0 2.723,1.054 1.134,1.054 1.134,2.554 z m 8.965,0 q 0,1.482 -1.125,2.545 -1.125,1.063 -2.732,1.063 -1.589,0 -2.723,-1.063 -1.134,-1.063 -1.134,-2.545 0,-1.5 1.134,-2.554 1.134,-1.054 2.723,-1.054 1.607,0 2.732,1.054 1.125,1.054 1.125,2.554 z m 4.017,3.215 V 4.518 Q 28.571,2.964 28,2.313 27.429,1.662 26.018,1.661 H 6.161 q -1.482,0 -2.009,0.607 -0.527,0.607 -0.527,2.25 v 12.018 q 0.768,0.411 1.58,0.714 0.812,0.303 1.446,0.5 0.634,0.197 1.446,0.33 0.812,0.133 1.268,0.196 0.456,0.063 1.25,0.071 0.794,0.008 1.045,0.009 0.251,10e-4 1.009,-0.036 0.758,-0.037 0.795,-0.036 1.214,-0.018 1.696,0.482 0.107,0.107 0.179,0.161 0.464,0.446 1.089,0.911 0.125,-1.625 2.107,-1.554 0.089,0 0.652,0.027 0.563,0.027 0.768,0.036 0.205,0.009 0.813,0.018 0.608,0.009 0.946,-0.018 0.338,-0.027 0.973,-0.08 0.635,-0.053 1.089,-0.152 0.454,-0.099 1.107,-0.241 0.653,-0.142 1.196,-0.348 0.543,-0.206 1.205,-0.482 0.662,-0.276 1.286,-0.616 z m 2.911,-0.09 q -2.161,2.661 -6.643,4.5 1.5,5.089 -0.411,8.304 -1.179,2.018 -3.268,2.643 -1.857,0.571 -3.25,-0.268 -1.536,-0.911 -1.464,-2.929 L 16.428,22.768 V 22.75 Q 16.285,22.714 15.99,22.643 15.695,22.572 15.57,22.554 l -0.018,6.036 q 0.071,2.036 -1.482,2.929 -1.411,0.839 -3.268,0.268 Q 8.713,31.144 7.552,29.108 5.677,25.894 7.159,20.84 2.677,19.001 0.516,16.34 0.07,15.679 0.445,15.215 q 0.375,-0.464 1.071,0.018 0.054,0.036 0.196,0.125 0.142,0.089 0.196,0.143 V 3.108 q 0,-1.286 0.839,-2.196 0.839,-0.91 2.036,-0.911 h 22.446 q 1.196,0 2.036,0.911 0.84,0.911 0.839,2.196 v 12.393 l 0.375,-0.268 q 0.696,-0.482 1.071,-0.018 0.375,0.464 -0.071,1.125 z"/>
    </svg>
