<?xml version='1.0' encoding='UTF-8'?>
<svg xmlns="http://www.w3.org/2000/svg" viewBox="0 0 32 32" width="32" height="32" version="1.1"><path d="M 7.179,12.625 16,18.071 9.893,23.16 1.143,17.464 Z m 17.607,9.911 v 1.929 l -8.75,5.232 v 0.018 L 16.018,29.697 16,29.715 V 29.697 L 7.268,24.465 V 22.536 L 9.893,24.25 16,19.179 v -0.036 l 0.018,0.018 0.018,-0.018 v 0.036 l 6.125,5.071 z M 9.893,2.107 16,7.196 7.179,12.625 1.143,7.804 Z M 24.821,12.625 30.857,17.464 22.125,23.16 16,18.071 Z M 22.125,2.107 30.857,7.803 24.821,12.624 16,7.195 Z"/>
    </svg>
