<?xml version='1.0' encoding='UTF-8'?>
<svg xmlns="http://www.w3.org/2000/svg" viewBox="0 0 37 32" width="37" height="32" version="1.1"><path d="M 33,6.054 H 23.875 V 8.268 H 33 Z m -4.5,7.607 q -1.607,0 -2.607,0.938 -1,0.938 -1.107,2.545 h 7.286 q -0.321,-3.482 -3.571,-3.482 z m 0.286,10.446 q 1.125,0 2.179,-0.571 1.054,-0.571 1.357,-1.554 h 3.946 q -1.786,5.482 -7.625,5.482 -3.821,0 -6.08,-2.357 -2.259,-2.357 -2.259,-6.196 0,-3.714 2.33,-6.17 2.33,-2.456 6.009,-2.455 2.464,0 4.295,1.214 1.831,1.214 2.732,3.196 0.901,1.982 0.902,4.429 0,0.304 -0.036,0.839 h -11.75 q 0,1.982 1.027,3.063 1.027,1.081 2.973,1.08 z M 4.946,23.214 h 5.286 q 3.661,0 3.661,-2.982 0,-3.214 -3.554,-3.214 H 4.946 Z m 0,-9.589 h 5.018 q 1.393,0 2.205,-0.652 0.812,-0.652 0.813,-2.027 0,-2.571 -3.393,-2.571 H 4.946 Z M 0,4.536 h 10.607 q 1.554,0 2.768,0.25 1.214,0.25 2.259,0.848 1.045,0.598 1.607,1.723 0.562,1.125 0.563,2.75 0,3.232 -3.071,4.696 2.036,0.571 3.071,2.054 1.035,1.483 1.036,3.643 0,1.339 -0.438,2.438 -0.438,1.099 -1.179,1.848 -0.741,0.749 -1.759,1.268 -1.018,0.519 -2.161,0.75 -1.143,0.231 -2.393,0.232 H -0.001 v -22.5 z"/>
    </svg>
