<?xml version='1.0' encoding='UTF-8'?>
<svg xmlns="http://www.w3.org/2000/svg" viewBox="0 0 27 32" width="27" height="32" version="1.1"><path d="m 20.125,21.607 q 0,-0.571 -0.536,-0.911 -3.446,-2.054 -7.982,-2.054 -2.375,0 -5.125,0.607 -0.75,0.161 -0.75,0.929 0,0.357 0.241,0.616 0.241,0.259 0.634,0.259 0.089,0 0.661,-0.143 2.357,-0.482 4.339,-0.482 4.036,0 7.089,1.839 0.339,0.196 0.589,0.196 0.339,0 0.589,-0.241 0.25,-0.241 0.25,-0.616 z m 1.714,-3.839 q 0,-0.714 -0.625,-1.089 -4.232,-2.518 -9.786,-2.518 -2.732,0 -5.411,0.75 -0.857,0.232 -0.857,1.143 0,0.446 0.313,0.759 0.313,0.313 0.759,0.313 0.125,0 0.661,-0.143 2.179,-0.589 4.482,-0.589 4.982,0 8.714,2.214 0.429,0.232 0.679,0.232 0.446,0 0.759,-0.313 0.313,-0.313 0.313,-0.759 z m 1.929,-4.429 q 0,-0.839 -0.714,-1.25 -2.25,-1.304 -5.232,-1.973 -2.982,-0.669 -6.125,-0.67 -3.643,0 -6.5,0.839 -0.411,0.125 -0.688,0.455 -0.277,0.33 -0.277,0.866 0,0.554 0.366,0.929 0.366,0.375 0.92,0.375 0.196,0 0.714,-0.143 2.375,-0.661 5.482,-0.661 2.839,0 5.527,0.607 2.688,0.607 4.527,1.696 0.375,0.214 0.714,0.214 0.518,0 0.902,-0.366 0.384,-0.366 0.384,-0.92 z M 27.429,16 q 0,3.732 -1.839,6.884 -1.839,3.152 -4.991,4.991 -3.152,1.839 -6.884,1.839 -3.732,0 -6.884,-1.839 Q 3.679,26.036 1.84,22.884 0.001,19.732 0.001,16 0.001,12.268 1.84,9.116 3.679,5.964 6.831,4.125 9.983,2.286 13.715,2.286 q 3.732,0 6.884,1.839 3.152,1.839 4.991,4.991 1.839,3.152 1.839,6.884 z"/>
    </svg>
