<?xml version='1.0' encoding='UTF-8'?>
<svg xmlns="http://www.w3.org/2000/svg" viewBox="0 0 27 32" width="27" height="32" version="1.1"><path d="m 18.286,16 q 0,-1.893 -1.339,-3.232 -1.339,-1.339 -3.232,-1.339 -1.893,0 -3.232,1.339 -1.339,1.339 -1.339,3.232 0,1.893 1.339,3.232 1.339,1.339 3.232,1.339 1.893,0 3.232,-1.339 1.339,-1.339 1.339,-3.232 z m 2.464,0 q 0,2.929 -2.054,4.982 -2.054,2.053 -4.982,2.054 Q 10.786,23.037 8.732,20.982 6.678,18.927 6.678,16 q 0,-2.927 2.054,-4.982 2.054,-2.055 4.982,-2.054 2.928,10e-4 4.982,2.054 2.054,2.053 2.054,4.982 z m 1.929,-7.321 q 0,0.679 -0.482,1.161 -0.482,0.482 -1.161,0.482 -0.679,0 -1.161,-0.482 -0.482,-0.482 -0.482,-1.161 0,-0.679 0.482,-1.161 0.482,-0.482 1.161,-0.482 0.679,0 1.161,0.482 Q 22.679,8 22.679,8.679 Z M 13.714,4.75 q -0.125,0 -1.366,-0.009 -1.241,-0.009 -1.884,0 Q 9.821,4.75 8.741,4.795 7.661,4.84 6.902,4.974 6.143,5.108 5.625,5.304 4.732,5.661 4.054,6.34 3.376,7.019 3.018,7.911 2.822,8.429 2.688,9.188 2.554,9.947 2.509,11.027 q -0.045,1.08 -0.054,1.723 -0.009,0.643 0,1.884 0.009,1.241 0.009,1.366 0,0.125 -0.009,1.366 -0.009,1.241 0,1.884 0.009,0.643 0.054,1.723 0.045,1.08 0.179,1.839 0.134,0.759 0.33,1.277 0.357,0.893 1.036,1.571 0.679,0.678 1.571,1.036 0.518,0.196 1.277,0.33 0.759,0.134 1.839,0.179 1.08,0.045 1.723,0.054 0.643,0.009 1.884,0 1.241,-0.009 1.366,-0.009 0.125,0 1.366,0.009 1.241,0.009 1.884,0 0.643,-0.009 1.723,-0.054 1.08,-0.045 1.839,-0.179 0.759,-0.134 1.277,-0.33 0.893,-0.357 1.571,-1.036 0.678,-0.679 1.036,-1.571 0.196,-0.518 0.33,-1.277 0.134,-0.759 0.179,-1.839 0.045,-1.08 0.054,-1.723 0.009,-0.643 0,-1.884 -0.009,-1.241 -0.009,-1.366 0,-0.125 0.009,-1.366 0.009,-1.241 0,-1.884 Q 24.964,12.107 24.919,11.027 24.874,9.947 24.74,9.188 24.606,8.429 24.41,7.911 24.053,7.018 23.374,6.34 22.695,5.662 21.803,5.304 21.285,5.108 20.526,4.974 19.767,4.84 18.687,4.795 17.607,4.75 16.964,4.741 16.321,4.732 15.08,4.741 13.839,4.75 13.714,4.75 Z M 27.429,16 q 0,4.089 -0.089,5.661 -0.179,3.714 -2.214,5.75 -2.035,2.036 -5.75,2.214 -1.571,0.089 -5.661,0.089 -4.09,0 -5.661,-0.089 Q 4.34,29.446 2.304,27.411 0.268,25.376 0.09,21.661 0.001,20.09 0.001,16 q 0,-4.09 0.089,-5.661 0.179,-3.714 2.214,-5.75 2.035,-2.036 5.75,-2.214 1.571,-0.089 5.661,-0.089 4.09,0 5.661,0.089 3.714,0.179 5.75,2.214 2.036,2.035 2.214,5.75 0.089,1.571 0.089,5.661 z"/>
    </svg>
