<svg
   xmlns="http://www.w3.org/2000/svg"
   height="20"
   width="20"
   xml:space="preserve"
   viewBox="0 0 20 20"
   y="0px"
   x="0px"
   id="trail-icon"
><path
  fill="black"
  d="M 18.89707,18.182773 C 18.80057,17.983819 12.92891,6.8869092 12.277649,5.7504579 c 1.430268,-0.3729275 2.666057,0.141055 3.639582,1.5049428 1.040921,1.4536967 2.664151,0.102805 1.605214,-1.3768456 -1.766813,-2.4750078 -5.26503,-3.5852317 -8.0013217,-1.9616862 -1.200962,0.7138705 -2.175461,1.2585547 -3.519735,1.2585547 -2.81248,0 -2.78497,-2.1650383 -4.092861,-2.1650383 -0.787568,0 -1.34645303,0.9150437 -0.636086,1.9091556 1.882264,2.6363348 4.422442,3.4305587 6.907871,2.7226796 0.730952,1.2610844 1.444511,2.5648535 2.1786527,3.9827915 l -2.9450128,2.030286 c -0.952981,0.833758 -0.198643,2.001843 0.413084,2.36874 0.7376051,0.443748 1.6779391,0.907145 2.5923578,1.359103 1.937946,0.956174 2.039155,1.072558 2.55726,1.112092 1.060843,0.08097 1.767436,-1.503971 0.514604,-2.25613 -0.784415,-0.471296 -1.856971,-1.176296 -2.671738,-1.676037 0.721769,-0.46149 2.412705,-1.167463 2.494613,-1.213923 1.06812,1.813628 1.827554,3.132923 2.388346,4.093183 -0.0035,9.3e-4 -0.0063,0.0025 -0.0095,0.0031 0.0025,0.0051 0.0054,0.0089 0.0076,0.01327 1.098821,1.8611 1.119988,2.013555 1.531827,2.33014 0.84325,0.649356 2.302001,-0.29098 1.664671,-1.606114 z M 9.2206493,3.4933553 C 9.5796463,3.0435768 9.7403123,2.4802543 9.6751733,1.9087216 9.5505413,0.82098839 8.6320363,-4.3399552e-4 7.5379622,-4.3399552e-4 c -1.290148,0 -2.288693,1.12380439552 -2.143826,2.39846859552 0.221406,1.9192728 2.648002,2.5809636 3.8265131,1.0953207 z" />
</svg>
