<svg style="position: absolute; width: 0; height: 0; overflow: hidden;" version="1.1" xmlns="http://www.w3.org/2000/svg" xmlns:xlink="http://www.w3.org/1999/xlink">
  <metadata
     id="metadata10347">
    <rdf:RDF>
      <cc:Work
         rdf:about="">
        <dc:format>image/svg+xml</dc:format>
        <dc:type
           rdf:resource="http://purl.org/dc/dcmitype/StillImage" />
        <dc:title></dc:title>
      </cc:Work>
    </rdf:RDF>
  </metadata>
  <defs
     id="defs154">
    <symbol
       id="icon-behance"
       viewBox="0 0 37 32">
      <path
         class="path1"
         d="M 33,6.054 H 23.875 V 8.268 H 33 Z m -4.5,7.607 q -1.607,0 -2.607,0.938 -1,0.938 -1.107,2.545 h 7.286 q -0.321,-3.482 -3.571,-3.482 z m 0.286,10.446 q 1.125,0 2.179,-0.571 1.054,-0.571 1.357,-1.554 h 3.946 q -1.786,5.482 -7.625,5.482 -3.821,0 -6.08,-2.357 -2.259,-2.357 -2.259,-6.196 0,-3.714 2.33,-6.17 2.33,-2.456 6.009,-2.455 2.464,0 4.295,1.214 1.831,1.214 2.732,3.196 0.901,1.982 0.902,4.429 0,0.304 -0.036,0.839 h -11.75 q 0,1.982 1.027,3.063 1.027,1.081 2.973,1.08 z M 4.946,23.214 h 5.286 q 3.661,0 3.661,-2.982 0,-3.214 -3.554,-3.214 H 4.946 Z m 0,-9.589 h 5.018 q 1.393,0 2.205,-0.652 0.812,-0.652 0.813,-2.027 0,-2.571 -3.393,-2.571 H 4.946 Z M 0,4.536 h 10.607 q 1.554,0 2.768,0.25 1.214,0.25 2.259,0.848 1.045,0.598 1.607,1.723 0.562,1.125 0.563,2.75 0,3.232 -3.071,4.696 2.036,0.571 3.071,2.054 1.035,1.483 1.036,3.643 0,1.339 -0.438,2.438 -0.438,1.099 -1.179,1.848 -0.741,0.749 -1.759,1.268 -1.018,0.519 -2.161,0.75 -1.143,0.231 -2.393,0.232 H -0.001 v -22.5 z"
         id="path2" />
    </symbol>
    <symbol
       id="icon-deviantart"
       viewBox="0 0 18 32">
      <path
         class="path1"
         d="m 18.286,5.411 -5.411,10.393 0.429,0.554 h 4.982 v 7.411 H 9.232 L 8.446,24.305 5.91,29.18 5.374,29.716 H -0.001 V 24.305 L 5.41,13.894 4.981,13.358 H -0.001 V 5.947 H 9.053 L 9.839,5.411 12.375,0.536 12.911,0 h 5.375 z"
         id="path5" />
    </symbol>
    <symbol
       id="icon-medium"
       viewBox="0 0 32 32">
      <path
         class="path1"
         d="m 10.661,7.518 v 20.946 q 0,0.446 -0.223,0.759 -0.223,0.313 -0.652,0.313 -0.304,0 -0.589,-0.143 L 0.893,25.232 Q 0.518,25.053 0.259,24.634 0,24.215 0,23.804 V 3.447 Q 0,3.09 0.179,2.84 0.358,2.59 0.697,2.59 q 0.25,0 0.786,0.268 l 9.125,4.571 q 0.054,0.054 0.054,0.089 z m 1.143,1.803 9.536,15.464 -9.536,-4.75 z M 32,9.643 v 18.821 q 0,0.446 -0.25,0.723 -0.25,0.277 -0.679,0.277 -0.429,0 -0.839,-0.232 L 22.357,25.303 Z M 31.946,7.5 q 0,0.054 -4.58,7.491 -4.58,7.437 -5.366,8.705 L 15.036,12.375 20.822,2.964 q 0.304,-0.5 0.929,-0.5 0.25,0 0.464,0.107 l 9.661,4.821 q 0.071,0.036 0.071,0.107 z"
         id="path8" />
    </symbol>
    <symbol
       id="icon-slideshare"
       viewBox="0 0 32 32">
      <path
         class="path1"
         d="m 15.589,13.214 q 0,1.482 -1.134,2.545 -1.134,1.063 -2.723,1.063 -1.589,0 -2.723,-1.063 -1.134,-1.063 -1.134,-2.545 0,-1.5 1.134,-2.554 1.134,-1.054 2.723,-1.054 1.589,0 2.723,1.054 1.134,1.054 1.134,2.554 z m 8.965,0 q 0,1.482 -1.125,2.545 -1.125,1.063 -2.732,1.063 -1.589,0 -2.723,-1.063 -1.134,-1.063 -1.134,-2.545 0,-1.5 1.134,-2.554 1.134,-1.054 2.723,-1.054 1.607,0 2.732,1.054 1.125,1.054 1.125,2.554 z m 4.017,3.215 V 4.518 Q 28.571,2.964 28,2.313 27.429,1.662 26.018,1.661 H 6.161 q -1.482,0 -2.009,0.607 -0.527,0.607 -0.527,2.25 v 12.018 q 0.768,0.411 1.58,0.714 0.812,0.303 1.446,0.5 0.634,0.197 1.446,0.33 0.812,0.133 1.268,0.196 0.456,0.063 1.25,0.071 0.794,0.008 1.045,0.009 0.251,10e-4 1.009,-0.036 0.758,-0.037 0.795,-0.036 1.214,-0.018 1.696,0.482 0.107,0.107 0.179,0.161 0.464,0.446 1.089,0.911 0.125,-1.625 2.107,-1.554 0.089,0 0.652,0.027 0.563,0.027 0.768,0.036 0.205,0.009 0.813,0.018 0.608,0.009 0.946,-0.018 0.338,-0.027 0.973,-0.08 0.635,-0.053 1.089,-0.152 0.454,-0.099 1.107,-0.241 0.653,-0.142 1.196,-0.348 0.543,-0.206 1.205,-0.482 0.662,-0.276 1.286,-0.616 z m 2.911,-0.09 q -2.161,2.661 -6.643,4.5 1.5,5.089 -0.411,8.304 -1.179,2.018 -3.268,2.643 -1.857,0.571 -3.25,-0.268 -1.536,-0.911 -1.464,-2.929 L 16.428,22.768 V 22.75 Q 16.285,22.714 15.99,22.643 15.695,22.572 15.57,22.554 l -0.018,6.036 q 0.071,2.036 -1.482,2.929 -1.411,0.839 -3.268,0.268 Q 8.713,31.144 7.552,29.108 5.677,25.894 7.159,20.84 2.677,19.001 0.516,16.34 0.07,15.679 0.445,15.215 q 0.375,-0.464 1.071,0.018 0.054,0.036 0.196,0.125 0.142,0.089 0.196,0.143 V 3.108 q 0,-1.286 0.839,-2.196 0.839,-0.91 2.036,-0.911 h 22.446 q 1.196,0 2.036,0.911 0.84,0.911 0.839,2.196 v 12.393 l 0.375,-0.268 q 0.696,-0.482 1.071,-0.018 0.375,0.464 -0.071,1.125 z"
         id="path11" />
    </symbol>
    <symbol
       id="icon-snapchat-ghost"
       viewBox="0 0 30 32">
      <path
         class="path1"
         d="m 15.143,2.286 q 2.393,-0.018 4.295,1.223 1.902,1.241 2.92,3.438 0.482,1.036 0.482,3.196 0,0.839 -0.161,3.411 0.25,0.125 0.5,0.125 0.321,0 0.911,-0.241 0.59,-0.241 0.911,-0.241 0.518,0 1,0.321 0.482,0.321 0.482,0.821 0,0.571 -0.563,0.964 -0.563,0.393 -1.232,0.563 -0.669,0.17 -1.232,0.518 -0.563,0.348 -0.563,0.848 0,0.268 0.214,0.768 0.661,1.464 1.83,2.679 1.169,1.215 2.58,1.804 0.5,0.214 1.429,0.411 0.5,0.107 0.5,0.625 0,1.25 -3.911,1.839 -0.125,0.196 -0.196,0.696 -0.071,0.5 -0.25,0.83 -0.179,0.33 -0.589,0.33 -0.357,0 -1.107,-0.116 -0.75,-0.116 -1.143,-0.116 -0.661,0 -1.107,0.089 -0.571,0.089 -1.125,0.402 -0.554,0.313 -1.036,0.679 -0.482,0.366 -1.036,0.723 -0.554,0.357 -1.357,0.598 -0.803,0.241 -1.768,0.241 -0.929,0 -1.723,-0.241 Q 12.304,29.232 11.759,28.875 11.214,28.518 10.732,28.152 10.25,27.786 9.696,27.473 9.142,27.16 8.589,27.071 8.125,26.982 7.464,26.982 q -0.429,0 -1.17,0.134 Q 5.553,27.25 5.249,27.25 4.803,27.25 4.624,26.92 4.445,26.59 4.374,26.072 4.303,25.554 4.178,25.358 0.267,24.769 0.267,23.519 q 0,-0.518 0.5,-0.625 0.929,-0.196 1.429,-0.411 1.393,-0.571 2.58,-1.804 Q 5.963,19.446 6.606,18 6.82,17.5 6.82,17.232 6.82,16.732 6.257,16.384 5.694,16.036 5.016,15.857 4.338,15.678 3.775,15.294 3.212,14.91 3.212,14.356 q 0,-0.482 0.464,-0.813 0.464,-0.331 0.982,-0.33 0.268,0 0.857,0.232 0.589,0.232 0.946,0.232 0.321,0 0.571,-0.125 -0.161,-2.536 -0.161,-3.393 0,-2.179 0.482,-3.214 1.143,-2.446 3.071,-3.536 1.928,-1.09 4.714,-1.125 z"
         id="path14" />
    </symbol>
    <symbol
       id="icon-yelp"
       viewBox="0 0 27 32">
      <path
         class="path1"
         d="m 13.804,23.554 v 2.268 q -0.018,5.214 -0.107,5.446 -0.214,0.571 -0.911,0.714 Q 11.822,32.143 9.545,31.303 7.268,30.463 6.643,29.714 6.411,29.446 6.339,29.071 6.321,28.857 6.41,28.607 q 0.071,-0.179 0.607,-0.839 0.536,-0.66 3.232,-3.857 0.018,0 1.071,-1.25 0.268,-0.339 0.705,-0.438 0.437,-0.099 0.884,0.063 0.429,0.179 0.67,0.518 0.241,0.339 0.223,0.75 z m -2.661,-4.483 q -0.054,0.982 -0.929,1.25 L 8.071,21.017 Q 3.16,22.588 2.857,22.588 2.232,22.552 1.893,21.945 1.679,21.499 1.589,20.606 1.446,19.249 1.607,17.633 1.768,16.017 2.143,15.41 q 0.375,-0.607 1,-0.571 0.232,0 3.607,1.375 1.25,0.518 2.054,0.839 l 1.5,0.607 q 0.411,0.161 0.634,0.545 0.223,0.384 0.205,0.866 z m 14.75,5.304 q -0.125,0.964 -1.634,2.875 -1.509,1.911 -2.42,2.268 -0.661,0.25 -1.125,-0.125 -0.25,-0.179 -3.286,-5.125 l -0.839,-1.375 q -0.25,-0.375 -0.205,-0.821 0.045,-0.446 0.348,-0.821 0.625,-0.768 1.482,-0.464 0.018,0.018 2.125,0.714 3.625,1.179 4.321,1.42 0.696,0.241 0.839,0.366 0.5,0.393 0.393,1.089 z m -12,-11.286 Q 13.982,14.91 12.929,15.268 11.893,15.572 10.893,14 L 4.143,3.321 Q 4,2.696 4.482,2.214 5.214,1.446 8.187,0.616 q 2.973,-0.83 4.009,-0.563 0.714,0.179 0.875,0.804 0.054,0.321 0.393,5.455 0.339,5.134 0.429,6.777 z m 11.821,1.929 q 0.054,0.696 -0.464,1.054 -0.268,0.179 -5.875,1.536 -1.196,0.268 -1.625,0.411 l 0.018,-0.036 q -0.411,0.107 -0.821,-0.071 -0.41,-0.178 -0.661,-0.571 -0.536,-0.839 0,-1.554 0.018,-0.018 1.339,-1.821 2.232,-3.054 2.679,-3.643 0.447,-0.589 0.607,-0.696 0.5,-0.339 1.161,-0.036 0.857,0.411 2.196,2.384 1.339,1.973 1.446,2.991 v 0.054 z"
         id="path17" />
    </symbol>
    <symbol
       id="icon-vine"
       viewBox="0 0 27 32">
      <path
         class="path1"
         d="m 26.732,14.768 v 3.536 q -1.804,0.411 -3.536,0.411 -1.161,2.429 -2.955,4.839 -1.794,2.41 -3.241,3.848 -1.447,1.438 -2.286,1.902 -1.429,0.804 -2.893,-0.054 -0.5,-0.304 -1.08,-0.777 Q 10.161,28 9.223,26.982 8.285,25.964 7.393,24.687 6.501,23.41 5.473,21.401 4.445,19.392 3.589,17.044 2.733,14.696 1.955,11.428 1.177,8.16 0.696,4.464 H 5.75 Q 6.214,8.357 7,11.58 q 0.786,3.223 1.866,5.661 1.08,2.438 2.17,4.205 1.09,1.767 2.5,3.482 3.018,-3.018 5.125,-7.25 -2.536,-1.286 -3.982,-3.929 -1.446,-2.643 -1.446,-5.946 0,-3.429 1.857,-5.616 1.857,-2.187 5.071,-2.188 3.179,0 4.875,1.884 1.696,1.884 1.696,5.313 0,2.839 -1.036,5.107 -0.125,0.018 -0.348,0.054 -0.223,0.036 -0.821,0.036 -0.598,0 -1.125,-0.107 -0.527,-0.107 -1.107,-0.455 -0.58,-0.348 -0.902,-0.92 0.554,-1.839 0.554,-3.286 0,-1.554 -0.518,-2.357 -0.518,-0.803 -1.411,-0.804 -0.946,0 -1.518,0.884 -0.572,0.884 -0.571,2.509 0,3.321 1.875,5.241 1.875,1.92 4.768,1.92 1.107,0 2.161,-0.25 z"
         id="path20" />
    </symbol>
    <symbol
       id="icon-vk"
       viewBox="0 0 35 32">
      <path
         class="path1"
         d="m 34.232,9.286 q 0.411,1.143 -2.679,5.25 -0.429,0.571 -1.161,1.518 -1.393,1.786 -1.607,2.339 -0.304,0.732 0.25,1.446 0.304,0.375 1.446,1.464 h 0.018 l 0.071,0.071 q 2.518,2.339 3.411,3.946 0.054,0.089 0.116,0.223 0.062,0.134 0.125,0.473 0.063,0.339 -0.009,0.607 -0.072,0.268 -0.446,0.491 -0.374,0.223 -1.054,0.223 l -4.571,0.071 q -0.429,0.089 -1,-0.089 -0.571,-0.178 -0.929,-0.393 l -0.357,-0.214 q -0.536,-0.375 -1.25,-1.143 -0.714,-0.768 -1.223,-1.384 -0.509,-0.616 -1.089,-1.036 -0.58,-0.42 -1.009,-0.277 -0.054,0.018 -0.143,0.063 -0.089,0.045 -0.304,0.259 -0.215,0.214 -0.384,0.527 -0.169,0.313 -0.304,0.929 -0.135,0.616 -0.116,1.384 0,0.268 -0.063,0.491 -0.063,0.223 -0.134,0.33 l -0.071,0.089 q -0.321,0.339 -0.946,0.393 H 16.766 Q 15.498,27.408 14.159,27.042 12.82,26.676 11.811,26.096 10.802,25.516 9.972,24.917 9.142,24.318 8.713,23.89 L 8.267,23.461 Q 8.088,23.282 7.776,22.925 7.464,22.568 6.499,21.3 5.534,20.032 4.606,18.604 3.678,17.176 2.418,14.836 1.158,12.496 0.088,9.979 -0.019,9.693 -0.019,9.497 q 0,-0.196 0.054,-0.286 L 0.106,9.104 Q 0.374,8.765 1.124,8.765 L 6.017,8.729 q 0.214,0.036 0.411,0.116 0.197,0.08 0.286,0.152 l 0.089,0.054 q 0.286,0.196 0.429,0.571 0.357,0.893 0.821,1.848 0.464,0.955 0.732,1.455 l 0.286,0.518 q 0.518,1.071 1,1.857 0.482,0.786 0.866,1.223 0.384,0.437 0.741,0.688 0.357,0.251 0.607,0.25 0.25,-10e-4 0.482,-0.089 0.036,-0.018 0.089,-0.089 0.053,-0.071 0.214,-0.393 0.161,-0.322 0.241,-0.839 0.08,-0.517 0.17,-1.446 0.09,-0.929 0,-2.232 -0.036,-0.714 -0.161,-1.304 -0.125,-0.59 -0.25,-0.821 L 12.963,10.034 Q 12.517,9.427 11.445,9.266 11.213,9.23 11.534,8.837 q 0.304,-0.339 0.679,-0.536 0.946,-0.464 4.268,-0.429 1.464,0.018 2.411,0.232 0.357,0.089 0.598,0.241 0.241,0.152 0.366,0.429 0.125,0.277 0.188,0.571 0.063,0.294 0.063,0.813 0,0.519 -0.018,0.982 -0.018,0.463 -0.045,1.259 -0.027,0.796 -0.027,1.473 0,0.196 -0.018,0.75 -0.018,0.554 -0.009,0.857 0.009,0.303 0.063,0.723 0.054,0.42 0.205,0.696 0.151,0.276 0.402,0.438 0.143,0.036 0.304,0.071 0.161,0.035 0.464,-0.196 0.303,-0.231 0.679,-0.616 0.376,-0.385 0.929,-1.196 0.553,-0.811 1.214,-1.92 1.071,-1.857 1.911,-4.018 0.071,-0.179 0.179,-0.313 0.108,-0.134 0.196,-0.188 l 0.071,-0.054 0.089,-0.045 q 0,0 0.232,-0.054 0.232,-0.054 0.357,-0.009 l 5.143,-0.036 q 0.696,-0.089 1.143,0.045 0.447,0.134 0.554,0.295 z"
         id="path23" />
    </symbol>
    <symbol
       id="icon-search"
       viewBox="0 0 30 32">
      <path
         class="path1"
         d="m 20.571,14.857 q 0,-3.304 -2.348,-5.652 -2.348,-2.348 -5.652,-2.348 -3.304,0 -5.652,2.348 -2.348,2.348 -2.348,5.652 0,3.304 2.348,5.652 2.348,2.348 5.652,2.348 3.304,0 5.652,-2.348 2.348,-2.348 2.348,-5.652 z m 9.143,14.857 q 0,0.929 -0.679,1.607 -0.679,0.678 -1.607,0.679 -0.964,0 -1.607,-0.679 l -6.125,-6.107 q -3.196,2.214 -7.125,2.214 -2.554,0 -4.884,-0.991 Q 5.357,25.446 3.669,23.758 1.981,22.07 0.99,19.74 q -0.991,-2.33 -0.991,-4.884 0,-2.554 0.991,-4.884 0.991,-2.33 2.679,-4.018 1.688,-1.688 4.018,-2.679 2.33,-0.991 4.884,-0.991 2.554,0 4.884,0.991 2.33,0.991 4.018,2.679 1.688,1.688 2.679,4.018 0.991,2.33 0.991,4.884 0,3.929 -2.214,7.125 l 6.125,6.125 q 0.661,0.661 0.661,1.607 z"
         id="path26" />
    </symbol>
    <symbol
       id="icon-envelope-o"
       viewBox="0 0 32 32">
      <path
         class="path1"
         d="M 29.714,26.857 V 13.143 q -0.571,0.643 -1.232,1.179 -4.786,3.679 -7.607,6.036 -0.911,0.768 -1.482,1.196 -0.571,0.428 -1.545,0.866 -0.974,0.438 -1.83,0.438 h -0.036 q -0.857,0 -1.83,-0.438 Q 13.179,21.982 12.607,21.554 12.035,21.126 11.125,20.358 8.304,18.001 3.518,14.322 2.857,13.786 2.286,13.143 v 13.714 q 0,0.232 0.17,0.402 0.17,0.17 0.402,0.17 h 26.286 q 0.232,0 0.402,-0.17 0.17,-0.17 0.17,-0.402 z m 0,-18.768 V 7.651 q 0,0 -0.009,-0.232 Q 29.696,7.187 29.651,7.196 29.606,7.205 29.553,7.035 29.5,6.865 29.392,6.901 29.284,6.937 29.142,6.856 H 2.856 q -0.232,0 -0.402,0.17 -0.17,0.17 -0.17,0.402 0,3 2.625,5.071 3.446,2.714 7.161,5.661 0.107,0.089 0.625,0.527 0.518,0.438 0.821,0.67 0.303,0.232 0.795,0.563 0.492,0.331 0.902,0.491 0.41,0.16 0.768,0.161 h 0.036 q 0.357,0 0.768,-0.161 0.411,-0.161 0.902,-0.491 0.491,-0.33 0.795,-0.563 0.304,-0.233 0.821,-0.67 0.517,-0.437 0.625,-0.527 3.714,-2.946 7.161,-5.661 0.964,-0.768 1.795,-2.063 0.831,-1.295 0.83,-2.348 z M 32,7.429 v 19.429 q 0,1.179 -0.839,2.018 -0.839,0.839 -2.018,0.839 H 2.857 q -1.179,0 -2.018,-0.839 Q 0,28.037 0,26.858 V 7.429 Q 0,6.25 0.839,5.411 1.678,4.572 2.857,4.572 h 26.286 q 1.179,0 2.018,0.839 Q 32,6.25 32,7.429 Z"
         id="path29" />
    </symbol>
    <symbol
       id="icon-close"
       viewBox="0 0 25 32">
      <path
         class="path1"
         d="m 23.179,23.607 q 0,0.714 -0.5,1.214 L 20.25,27.25 q -0.5,0.5 -1.214,0.5 -0.714,0 -1.214,-0.5 L 12.572,22 7.322,27.25 q -0.5,0.5 -1.214,0.5 -0.714,0 -1.214,-0.5 L 2.465,24.821 q -0.5,-0.5 -0.5,-1.214 0,-0.714 0.5,-1.214 l 5.25,-5.25 -5.25,-5.25 q -0.5,-0.5 -0.5,-1.214 0,-0.714 0.5,-1.214 L 4.894,7.036 q 0.5,-0.5 1.214,-0.5 0.714,0 1.214,0.5 l 5.25,5.25 5.25,-5.25 q 0.5,-0.5 1.214,-0.5 0.714,0 1.214,0.5 l 2.429,2.429 q 0.5,0.5 0.5,1.214 0,0.714 -0.5,1.214 l -5.25,5.25 5.25,5.25 q 0.5,0.5 0.5,1.214 z"
         id="path32" />
    </symbol>
    <symbol
       id="icon-angle-down"
       viewBox="0 0 21 32">
      <path
         class="path1"
         d="m 19.196,13.143 q 0,0.232 -0.179,0.411 l -8.321,8.321 q -0.179,0.179 -0.411,0.179 -0.232,0 -0.411,-0.179 L 1.553,13.554 q -0.179,-0.179 -0.179,-0.411 0,-0.232 0.179,-0.411 l 0.893,-0.893 q 0.179,-0.179 0.411,-0.179 0.232,0 0.411,0.179 l 7.018,7.018 7.018,-7.018 q 0.179,-0.179 0.411,-0.179 0.232,0 0.411,0.179 l 0.893,0.893 q 0.179,0.179 0.179,0.411 z"
         id="path35" />
    </symbol>
    <symbol
       id="icon-folder-open"
       viewBox="0 0 34 32">
      <path
         class="path1"
         d="m 33.554,17 q 0,0.554 -0.554,1.179 l -6,7.071 q -0.768,0.911 -2.152,1.545 -1.384,0.634 -2.563,0.634 H 2.856 q -0.607,0 -1.08,-0.232 -0.473,-0.232 -0.473,-0.768 0,-0.554 0.554,-1.179 l 6,-7.071 Q 8.625,17.268 10.009,16.634 11.393,16 12.572,16 h 19.429 q 0.607,0 1.08,0.232 0.473,0.232 0.473,0.768 z m -6.125,-6.143 v 2.857 H 12.572 q -1.679,0 -3.518,0.848 -1.839,0.848 -2.929,2.134 l -6.107,7.179 q 0,-0.071 -0.009,-0.223 Q 0,23.5 0,23.429 V 6.286 Q 0,4.643 1.179,3.465 2.358,2.287 4,2.286 h 5.714 q 1.643,0 2.821,1.179 1.178,1.179 1.179,2.821 v 0.571 h 9.714 q 1.643,0 2.821,1.179 1.178,1.179 1.179,2.821 z"
         id="path38" />
    </symbol>
    <symbol
       id="icon-twitter"
       viewBox="0 0 30 32">
      <path
         class="path1"
         d="m 28.929,7.286 q -1.196,1.75 -2.893,2.982 0.018,0.25 0.018,0.75 0,2.321 -0.679,4.634 -0.679,2.313 -2.063,4.437 -1.384,2.124 -3.295,3.759 -1.911,1.635 -4.607,2.607 -2.696,0.972 -5.768,0.973 -4.839,0 -8.857,-2.589 0.625,0.071 1.393,0.071 4.018,0 7.161,-2.464 Q 7.464,22.41 5.982,21.294 4.5,20.178 3.946,18.446 q 0.589,0.089 1.089,0.089 0.768,0 1.518,-0.196 -2,-0.411 -3.313,-1.991 -1.313,-1.58 -1.313,-3.67 v -0.071 q 1.214,0.679 2.607,0.732 -1.179,-0.786 -1.875,-2.054 -0.696,-1.268 -0.696,-2.75 0,-1.571 0.786,-2.911 2.161,2.661 5.259,4.259 3.098,1.598 6.634,1.777 -0.143,-0.679 -0.143,-1.321 0,-2.393 1.688,-4.08 1.688,-1.687 4.08,-1.688 2.5,0 4.214,1.821 1.946,-0.375 3.661,-1.393 -0.661,2.054 -2.536,3.179 1.661,-0.179 3.321,-0.893 z"
         id="path41" />
    </symbol>
    <symbol
       id="icon-facebook"
       viewBox="0 0 19 32">
      <path
         class="path1"
         d="m 17.125,0.214 v 4.714 h -2.804 q -1.536,0 -2.071,0.643 -0.535,0.643 -0.536,1.929 v 3.375 h 5.232 L 16.25,16.161 H 11.714 V 29.715 H 6.25 V 16.161 H 1.696 V 10.875 H 6.25 V 6.982 Q 6.25,3.661 8.107,1.83 9.964,-0.001 13.053,0 q 2.625,0 4.071,0.214 z"
         id="path44" />
    </symbol>
    <symbol
       id="icon-github"
       viewBox="0 0 27 32">
      <path
         class="path1"
         d="m 13.714,2.286 q 3.732,0 6.884,1.839 3.152,1.839 4.991,4.991 1.839,3.152 1.839,6.884 0,4.482 -2.616,8.063 -2.616,3.581 -6.759,4.955 -0.482,0.089 -0.714,-0.125 -0.232,-0.214 -0.232,-0.536 0,-0.054 0.009,-1.366 0.009,-1.312 0.009,-2.402 0,-1.732 -0.929,-2.536 1.018,-0.107 1.83,-0.321 0.812,-0.214 1.679,-0.696 0.867,-0.482 1.446,-1.188 0.579,-0.706 0.946,-1.875 0.367,-1.169 0.366,-2.688 0,-2.125 -1.411,-3.679 0.661,-1.625 -0.143,-3.643 -0.5,-0.161 -1.446,0.196 -0.946,0.357 -1.643,0.786 L 17.141,9.374 Q 15.48,8.91 13.712,8.91 11.944,8.91 10.283,9.374 9.997,9.178 9.524,8.892 9.051,8.606 8.033,8.204 7.015,7.802 6.515,7.963 5.711,9.981 6.372,11.606 4.961,13.16 4.961,15.285 q 0,1.518 0.366,2.679 0.366,1.161 0.938,1.875 0.572,0.714 1.438,1.196 0.866,0.482 1.679,0.696 0.813,0.214 1.83,0.321 -0.696,0.643 -0.875,1.839 -0.375,0.179 -0.804,0.268 -0.429,0.089 -1.018,0.089 -0.589,0 -1.17,-0.384 Q 6.764,23.48 6.354,22.748 6.015,22.177 5.488,21.819 4.961,21.461 4.604,21.39 L 4.247,21.336 q -0.375,0 -0.518,0.08 -0.143,0.08 -0.089,0.205 0.054,0.125 0.161,0.25 0.107,0.125 0.232,0.214 l 0.125,0.089 q 0.393,0.179 0.777,0.679 0.384,0.5 0.563,0.911 l 0.179,0.411 q 0.232,0.679 0.786,1.098 0.554,0.419 1.196,0.536 0.642,0.117 1.241,0.125 0.599,0.008 0.991,-0.063 L 10.302,25.8 q 0,0.679 0.009,1.58 0.009,0.901 0.009,0.973 0,0.321 -0.232,0.536 -0.232,0.215 -0.714,0.125 -4.143,-1.375 -6.759,-4.955 -2.616,-3.58 -2.616,-8.063 0,-3.732 1.839,-6.884 Q 3.677,5.96 6.829,4.121 9.981,2.282 13.713,2.282 Z M 5.196,21.982 Q 5.25,21.857 5.071,21.768 4.892,21.714 4.839,21.804 4.785,21.929 4.964,22.018 5.125,22.125 5.196,21.982 Z M 5.75,22.589 Q 5.875,22.5 5.714,22.303 5.535,22.142 5.428,22.249 q -0.125,0.089 0.036,0.286 0.179,0.179 0.286,0.054 z m 0.536,0.804 q 0.161,-0.125 0,-0.339 -0.143,-0.232 -0.304,-0.107 -0.161,0.089 0,0.321 0.161,0.232 0.304,0.125 z m 0.75,0.75 Q 7.179,24 6.965,23.804 6.751,23.59 6.608,23.75 q -0.161,0.143 0.071,0.339 0.214,0.214 0.357,0.054 z m 1.018,0.446 q 0.054,-0.196 -0.232,-0.286 -0.268,-0.071 -0.339,0.125 -0.071,0.196 0.232,0.268 0.268,0.107 0.339,-0.107 z m 1.125,0.09 q 0,-0.232 -0.304,-0.196 -0.286,0 -0.286,0.196 0,0.232 0.304,0.196 0.286,0 0.286,-0.196 z M 10.214,24.5 q -0.036,-0.196 -0.321,-0.161 -0.286,0.054 -0.25,0.268 0.036,0.214 0.321,0.143 0.285,-0.071 0.25,-0.25 z"
         id="path47" />
    </symbol>
    <symbol
       id="icon-bars"
       viewBox="0 0 27 32">
      <path
         class="path1"
         d="m 27.429,24 v 2.286 q 0,0.464 -0.339,0.804 -0.339,0.34 -0.804,0.339 H 1.143 Q 0.679,27.429 0.339,27.09 -0.001,26.751 0,26.286 V 24 q 0,-0.464 0.339,-0.804 0.339,-0.34 0.804,-0.339 h 25.143 q 0.464,0 0.804,0.339 0.34,0.339 0.339,0.804 z m 0,-9.143 v 2.286 q 0,0.464 -0.339,0.804 -0.339,0.34 -0.804,0.339 H 1.143 q -0.464,0 -0.804,-0.339 Q -0.001,17.608 0,17.143 v -2.286 q 0,-0.464 0.339,-0.804 0.339,-0.34 0.804,-0.339 h 25.143 q 0.464,0 0.804,0.339 0.34,0.339 0.339,0.804 z m 0,-9.143 V 8 q 0,0.464 -0.339,0.804 -0.339,0.34 -0.804,0.339 H 1.143 Q 0.679,9.143 0.339,8.804 -0.001,8.465 0,8 V 5.714 Q 0,5.25 0.339,4.91 0.678,4.57 1.143,4.571 h 25.143 q 0.464,0 0.804,0.339 0.34,0.339 0.339,0.804 z"
         id="path50" />
    </symbol>
    <symbol
       id="icon-google-plus"
       viewBox="0 0 41 32">
      <path
         class="path1"
         d="m 25.661,16.304 q 0,3.714 -1.554,6.616 -1.554,2.902 -4.429,4.536 Q 16.803,29.09 13.089,29.09 10.428,29.09 8,28.054 5.572,27.018 3.821,25.268 2.07,23.518 1.035,21.089 0,18.66 -0.001,16 -0.002,13.34 1.035,10.911 2.072,8.482 3.821,6.732 5.57,4.982 8,3.946 10.43,2.91 13.089,2.91 q 5.107,0 8.768,3.429 L 18.303,9.75 Q 16.214,7.732 13.089,7.732 10.893,7.732 9.026,8.839 7.159,9.946 6.071,11.848 4.983,13.75 4.982,16 q -0.001,2.25 1.089,4.152 1.09,1.902 2.955,3.009 1.865,1.107 4.063,1.107 1.482,0 2.723,-0.411 1.241,-0.411 2.045,-1.027 0.804,-0.616 1.402,-1.402 0.598,-0.786 0.875,-1.482 0.277,-0.696 0.384,-1.321 h -7.429 v -4.5 h 12.357 q 0.214,1.125 0.214,2.179 z m 15.482,-2.179 v 3.75 h -3.732 v 3.732 h -3.75 v -3.732 h -3.732 v -3.75 h 3.732 v -3.732 h 3.75 v 3.732 z"
         id="path53" />
    </symbol>
    <symbol
       id="icon-linkedin"
       viewBox="0 0 27 32">
      <path
         class="path1"
         d="M 6.232,11.161 V 28.857 H 0.339 V 11.161 Z M 6.607,5.696 Q 6.625,7 5.705,7.875 4.785,8.75 3.285,8.75 H 3.249 Q 1.785,8.75 0.892,7.875 -0.001,7 -0.001,5.696 q 0,-1.321 0.92,-2.188 0.92,-0.867 2.402,-0.866 1.482,10e-4 2.375,0.866 0.893,0.865 0.911,2.188 z m 20.822,13.018 v 10.143 h -5.875 v -9.464 q 0,-1.875 -0.723,-2.938 -0.723,-1.063 -2.259,-1.063 -1.125,0 -1.884,0.616 -0.759,0.616 -1.134,1.527 -0.196,0.536 -0.196,1.446 v 9.875 H 9.483 q 0.036,-7.125 0.036,-11.554 0,-4.429 -0.018,-5.286 L 9.483,11.159 h 5.875 v 2.571 h -0.036 q 0.357,-0.571 0.732,-1 0.375,-0.429 1.009,-0.929 0.634,-0.5 1.554,-0.777 0.92,-0.277 2.045,-0.277 3.054,0 4.911,2.027 1.857,2.027 1.857,5.938 z"
         id="path56" />
    </symbol>
    <symbol
       id="icon-quote-right"
       viewBox="0 0 30 32">
      <path
         class="path1"
         d="m 13.714,5.714 v 12.571 q 0,1.857 -0.723,3.545 -0.723,1.688 -1.955,2.92 -1.232,1.232 -2.92,1.955 -1.688,0.723 -3.545,0.723 H 3.428 q -0.464,0 -0.804,-0.339 -0.34,-0.339 -0.339,-0.804 v -2.286 q 0,-0.464 0.339,-0.804 0.339,-0.34 0.804,-0.339 h 1.143 q 1.893,0 3.232,-1.339 1.339,-1.339 1.339,-3.232 V 17.714 Q 9.142,17 8.642,16.5 8.142,16 7.428,16 h -4 q -1.429,0 -2.429,-1 -1,-1 -1,-2.429 V 5.714 q 0,-1.429 1,-2.429 1,-1 2.429,-1 h 6.857 q 1.429,0 2.429,1 1,1 1,2.429 z m 16,0 v 12.571 q 0,1.857 -0.723,3.545 -0.723,1.688 -1.955,2.92 -1.232,1.232 -2.92,1.955 -1.688,0.723 -3.545,0.723 h -1.143 q -0.464,0 -0.804,-0.339 -0.34,-0.339 -0.339,-0.804 v -2.286 q 0,-0.464 0.339,-0.804 0.339,-0.34 0.804,-0.339 h 1.143 q 1.893,0 3.232,-1.339 1.339,-1.339 1.339,-3.232 V 17.714 Q 25.142,17 24.642,16.5 24.142,16 23.428,16 h -4 q -1.429,0 -2.429,-1 -1,-1 -1,-2.429 V 5.714 q 0,-1.429 1,-2.429 1,-1 2.429,-1 h 6.857 q 1.429,0 2.429,1 1,1 1,2.429 z"
         id="path59" />
    </symbol>
    <symbol
       id="icon-mail-reply"
       viewBox="0 0 32 32">
      <path
         class="path1"
         d="m 32,20 q 0,2.964 -2.268,8.054 -0.054,0.125 -0.188,0.429 -0.134,0.304 -0.241,0.536 -0.107,0.232 -0.232,0.393 -0.214,0.304 -0.5,0.304 -0.268,0 -0.42,-0.179 -0.152,-0.179 -0.152,-0.446 0,-0.161 0.045,-0.473 0.045,-0.312 0.045,-0.42 0.089,-1.214 0.089,-2.196 0,-1.804 -0.313,-3.232 -0.313,-1.428 -0.866,-2.473 -0.553,-1.045 -1.429,-1.804 -0.876,-0.759 -1.884,-1.241 -1.008,-0.482 -2.375,-0.759 -1.367,-0.277 -2.75,-0.384 -1.383,-0.107 -3.134,-0.107 h -4 v 4.571 q 0,0.464 -0.339,0.804 -0.339,0.34 -0.804,0.339 Q 9.819,21.715 9.48,21.377 L 0.337,12.234 q -0.339,-0.339 -0.339,-0.804 0,-0.465 0.339,-0.804 L 9.48,1.483 q 0.339,-0.339 0.804,-0.339 0.465,0 0.804,0.339 0.339,0.339 0.339,0.804 v 4.571 h 4 q 12.732,0 15.625,7.196 0.946,2.393 0.946,5.946 z"
         id="path62" />
    </symbol>
    <symbol
       id="icon-youtube"
       viewBox="0 0 27 32">
      <path
         class="path1"
         d="m 17.339,22.214 v 3.768 q 0,1.196 -0.696,1.196 -0.411,0 -0.804,-0.393 V 21.41 q 0.393,-0.393 0.804,-0.393 0.696,0 0.696,1.196 z m 6.036,0.018 v 0.821 h -1.607 v -0.821 q 0,-1.214 0.804,-1.214 0.804,0 0.804,1.214 z M 6.125,18.339 H 8.036 V 16.66 H 2.465 v 1.679 H 4.34 V 28.5 H 6.126 V 18.339 Z M 11.268,28.5 h 1.589 v -8.821 h -1.589 v 6.75 q -0.536,0.75 -1.018,0.75 -0.321,0 -0.375,-0.375 Q 9.857,26.75 9.857,26.179 v -6.5 H 8.268 v 6.982 q 0,0.875 0.143,1.304 0.214,0.661 1.036,0.661 0.857,0 1.821,-1.089 v 0.964 z m 7.661,-2.643 v -3.518 q 0,-1.304 -0.161,-1.768 -0.304,-1 -1.268,-1 -0.893,0 -1.661,0.964 V 16.66 H 14.25 v 11.839 h 1.589 v -0.857 q 0.804,0.982 1.661,0.982 0.964,0 1.268,-0.982 0.161,-0.482 0.161,-1.786 z m 6.035,-0.178 v -0.232 h -1.625 q 0,0.911 -0.036,1.089 -0.125,0.643 -0.714,0.643 -0.821,0 -0.821,-1.232 v -1.554 h 3.196 v -1.839 q 0,-1.411 -0.482,-2.071 -0.696,-0.911 -1.893,-0.911 -1.214,0 -1.911,0.911 -0.5,0.661 -0.5,2.071 v 3.089 q 0,1.411 0.518,2.071 0.696,0.911 1.929,0.911 1.286,0 1.929,-0.946 0.321,-0.482 0.375,-0.964 0.036,-0.161 0.036,-1.036 z M 14.107,9.375 v -3.75 q 0,-1.232 -0.768,-1.232 -0.768,0 -0.768,1.232 v 3.75 q 0,1.25 0.768,1.25 0.768,0 0.768,-1.25 z m 12.839,13.411 q 0,4.179 -0.464,6.25 -0.25,1.054 -1.036,1.768 -0.786,0.714 -1.821,0.821 Q 20.339,32 13.714,32 7.089,32 3.803,31.625 2.767,31.518 1.973,30.804 1.179,30.09 0.946,29.036 q -0.464,-2 -0.464,-6.25 0,-4.179 0.464,-6.25 0.25,-1.054 1.036,-1.768 0.786,-0.714 1.839,-0.839 3.268,-0.357 9.893,-0.357 6.625,0 9.911,0.357 1.036,0.125 1.83,0.839 0.794,0.714 1.027,1.768 0.464,2 0.464,6.25 z M 9.125,0 h 1.821 L 8.785,7.125 v 4.839 H 6.999 V 7.125 Q 6.749,5.804 5.91,3.339 5.249,1.5 4.749,0 H 6.642 L 7.91,4.696 Z m 6.607,5.946 v 3.125 q 0,1.446 -0.5,2.107 -0.661,0.911 -1.893,0.911 -1.196,0 -1.875,-0.911 -0.5,-0.679 -0.5,-2.107 V 5.946 q 0,-1.429 0.5,-2.089 0.679,-0.911 1.875,-0.911 1.232,0 1.893,0.911 0.5,0.661 0.5,2.089 z m 5.982,-2.892 v 8.911 h -1.625 v -0.982 q -0.946,1.107 -1.839,1.107 -0.821,0 -1.054,-0.661 Q 17.053,11 17.053,10.09 V 3.054 h 1.625 v 6.554 q 0,0.589 0.018,0.625 0.054,0.393 0.375,0.393 0.482,0 1.018,-0.768 V 3.054 Z"
         id="path65" />
    </symbol>
    <symbol
       id="icon-dropbox"
       viewBox="0 0 32 32">
      <path
         class="path1"
         d="M 7.179,12.625 16,18.071 9.893,23.16 1.143,17.464 Z m 17.607,9.911 v 1.929 l -8.75,5.232 v 0.018 L 16.018,29.697 16,29.715 V 29.697 L 7.268,24.465 V 22.536 L 9.893,24.25 16,19.179 v -0.036 l 0.018,0.018 0.018,-0.018 v 0.036 l 6.125,5.071 z M 9.893,2.107 16,7.196 7.179,12.625 1.143,7.804 Z M 24.821,12.625 30.857,17.464 22.125,23.16 16,18.071 Z M 22.125,2.107 30.857,7.803 24.821,12.624 16,7.195 Z"
         id="path68" />
    </symbol>
    <symbol
       id="icon-instagram"
       viewBox="0 0 27 32">
      <path
         class="path1"
         d="m 18.286,16 q 0,-1.893 -1.339,-3.232 -1.339,-1.339 -3.232,-1.339 -1.893,0 -3.232,1.339 -1.339,1.339 -1.339,3.232 0,1.893 1.339,3.232 1.339,1.339 3.232,1.339 1.893,0 3.232,-1.339 1.339,-1.339 1.339,-3.232 z m 2.464,0 q 0,2.929 -2.054,4.982 -2.054,2.053 -4.982,2.054 Q 10.786,23.037 8.732,20.982 6.678,18.927 6.678,16 q 0,-2.927 2.054,-4.982 2.054,-2.055 4.982,-2.054 2.928,10e-4 4.982,2.054 2.054,2.053 2.054,4.982 z m 1.929,-7.321 q 0,0.679 -0.482,1.161 -0.482,0.482 -1.161,0.482 -0.679,0 -1.161,-0.482 -0.482,-0.482 -0.482,-1.161 0,-0.679 0.482,-1.161 0.482,-0.482 1.161,-0.482 0.679,0 1.161,0.482 Q 22.679,8 22.679,8.679 Z M 13.714,4.75 q -0.125,0 -1.366,-0.009 -1.241,-0.009 -1.884,0 Q 9.821,4.75 8.741,4.795 7.661,4.84 6.902,4.974 6.143,5.108 5.625,5.304 4.732,5.661 4.054,6.34 3.376,7.019 3.018,7.911 2.822,8.429 2.688,9.188 2.554,9.947 2.509,11.027 q -0.045,1.08 -0.054,1.723 -0.009,0.643 0,1.884 0.009,1.241 0.009,1.366 0,0.125 -0.009,1.366 -0.009,1.241 0,1.884 0.009,0.643 0.054,1.723 0.045,1.08 0.179,1.839 0.134,0.759 0.33,1.277 0.357,0.893 1.036,1.571 0.679,0.678 1.571,1.036 0.518,0.196 1.277,0.33 0.759,0.134 1.839,0.179 1.08,0.045 1.723,0.054 0.643,0.009 1.884,0 1.241,-0.009 1.366,-0.009 0.125,0 1.366,0.009 1.241,0.009 1.884,0 0.643,-0.009 1.723,-0.054 1.08,-0.045 1.839,-0.179 0.759,-0.134 1.277,-0.33 0.893,-0.357 1.571,-1.036 0.678,-0.679 1.036,-1.571 0.196,-0.518 0.33,-1.277 0.134,-0.759 0.179,-1.839 0.045,-1.08 0.054,-1.723 0.009,-0.643 0,-1.884 -0.009,-1.241 -0.009,-1.366 0,-0.125 0.009,-1.366 0.009,-1.241 0,-1.884 Q 24.964,12.107 24.919,11.027 24.874,9.947 24.74,9.188 24.606,8.429 24.41,7.911 24.053,7.018 23.374,6.34 22.695,5.662 21.803,5.304 21.285,5.108 20.526,4.974 19.767,4.84 18.687,4.795 17.607,4.75 16.964,4.741 16.321,4.732 15.08,4.741 13.839,4.75 13.714,4.75 Z M 27.429,16 q 0,4.089 -0.089,5.661 -0.179,3.714 -2.214,5.75 -2.035,2.036 -5.75,2.214 -1.571,0.089 -5.661,0.089 -4.09,0 -5.661,-0.089 Q 4.34,29.446 2.304,27.411 0.268,25.376 0.09,21.661 0.001,20.09 0.001,16 q 0,-4.09 0.089,-5.661 0.179,-3.714 2.214,-5.75 2.035,-2.036 5.75,-2.214 1.571,-0.089 5.661,-0.089 4.09,0 5.661,0.089 3.714,0.179 5.75,2.214 2.036,2.035 2.214,5.75 0.089,1.571 0.089,5.661 z"
         id="path71" />
    </symbol>
    <symbol
       id="icon-flickr"
       viewBox="0 0 27 32">
      <path
         class="path1"
         d="m 22.286,2.286 q 2.125,0 3.634,1.509 1.509,1.509 1.509,3.634 v 17.143 q 0,2.125 -1.509,3.634 -1.509,1.509 -3.634,1.509 H 5.143 q -2.125,0 -3.634,-1.509 Q 0,26.697 0,24.572 V 7.429 Q 0,5.304 1.509,3.795 3.018,2.286 5.143,2.286 Z M 12.464,16 q 0,-1.571 -1.107,-2.679 Q 10.25,12.213 8.678,12.214 7.106,12.215 5.999,13.321 4.892,14.427 4.892,16 q 0,1.573 1.107,2.679 1.107,1.106 2.679,1.107 1.572,10e-4 2.679,-1.107 1.107,-1.108 1.107,-2.679 z m 10.072,0 q 0,-1.571 -1.107,-2.679 -1.107,-1.108 -2.679,-1.107 -1.572,10e-4 -2.679,1.107 -1.107,1.106 -1.107,2.679 0,1.573 1.107,2.679 1.107,1.106 2.679,1.107 1.572,10e-4 2.679,-1.107 1.107,-1.108 1.107,-2.679 z"
         id="path74" />
    </symbol>
    <symbol
       id="icon-tumblr"
       viewBox="0 0 19 32">
      <path
         class="path1"
         d="m 16.857,23.732 1.429,4.232 q -0.411,0.625 -1.982,1.179 -1.571,0.554 -3.161,0.571 Q 11.286,29.75 9.741,29.25 8.196,28.75 7.196,27.929 6.196,27.108 5.5,26.036 4.804,24.964 4.509,23.893 4.214,22.822 4.214,21.786 v -9.714 h -3 V 8.233 Q 2.5,7.769 3.518,6.992 4.536,6.215 5.143,5.385 5.75,4.555 6.179,3.564 6.608,2.573 6.786,1.796 6.964,1.019 7.054,0.216 7.072,0.127 7.134,0.064 7.196,0.001 7.268,0.001 h 4.357 v 7.571 h 5.946 v 4.5 h -5.964 v 9.25 q 0,0.536 0.116,1 0.116,0.464 0.402,0.938 0.286,0.474 0.884,0.741 0.598,0.267 1.455,0.25 1.393,-0.036 2.393,-0.518 z"
         id="path77" />
    </symbol>
    <symbol
       id="icon-dockerhub"
       viewBox="0 0 24 28">
      <path
         class="path1"
         d="m 1.597,10.257 h 2.911 v 2.83 H 1.597 Z m 3.573,0 h 2.91 v 2.83 H 5.17 Z m 0,-3.627 H 8.08 V 9.459 H 5.17 Z m 3.57,3.627 h 2.912 v 2.83 H 8.74 Z m 0,-3.627 h 2.912 V 9.459 H 8.74 Z m 3.573,3.627 h 2.911 v 2.83 h -2.911 z m 0,-3.627 h 2.911 v 2.829 h -2.911 z m 3.572,3.627 h 2.911 v 2.83 H 15.885 Z M 12.313,3 h 2.911 v 2.83 h -2.911 z m -6.65,14.173 c -0.449,0 -0.812,0.354 -0.812,0.788 0,0.435 0.364,0.788 0.812,0.788 0.447,0 0.811,-0.353 0.811,-0.788 0,-0.434 -0.363,-0.788 -0.811,-0.788"
         id="path80" />
      <path
         class="path2"
         d="M 28.172,11.721 C 27.194,11.172 25.894,11.097 24.784,11.415 24.648,10.269 23.874,9.266 22.954,8.546 L 22.588,8.26 22.281,8.605 c -0.618,0.692 -0.8,1.845 -0.718,2.73 0.063,0.651 0.273,1.312 0.685,1.834 -0.313,0.183 -0.668,0.328 -0.985,0.434 -0.646,0.212 -1.347,0.33 -2.028,0.33 H 0.083 l -0.042,0.429 c -0.137,1.432 0.065,2.866 0.674,4.173 l 0.262,0.519 0.03,0.048 c 1.8,2.973 4.963,4.225 8.41,4.225 6.672,0 12.174,-2.896 14.702,-9.015 1.689,0.085 3.417,-0.4 4.243,-1.968 l 0.211,-0.4 z M 5.664,19.458 c -0.85,0 -1.542,-0.671 -1.542,-1.497 0,-0.825 0.691,-1.498 1.541,-1.498 0.849,0 1.54,0.672 1.54,1.497 0,0.825 -0.69,1.498 -1.539,1.498 z"
         id="path82" />
    </symbol>
    <symbol
       id="icon-dribbble"
       viewBox="0 0 27 32">
      <path
         class="path1"
         d="m 18.286,26.786 q -0.75,-4.304 -2.5,-8.893 H 15.75 l -0.036,0.018 q -0.286,0.107 -0.768,0.295 -0.482,0.188 -1.804,0.875 -1.322,0.687 -2.446,1.464 -1.124,0.777 -2.339,2.045 -1.215,1.268 -1.839,2.643 L 6.25,25.037 q 3.286,2.679 7.464,2.679 2.357,0 4.571,-0.929 z M 14.982,15.946 Q 14.607,15.071 14.036,13.964 8.482,15.625 2.018,15.625 2,15.75 2,16 2,18.214 2.786,20.223 3.572,22.232 5,23.821 5.893,22.232 7.205,20.848 8.517,19.464 9.75,18.625 q 1.233,-0.839 2.33,-1.446 1.097,-0.607 1.777,-0.857 l 0.661,-0.232 q 0.071,-0.018 0.232,-0.063 0.161,-0.045 0.232,-0.08 z M 13.071,12.161 Q 10.928,8.357 8.714,5.411 6.25,6.572 4.535,8.732 q -1.715,2.16 -2.286,4.857 5.393,0 10.821,-1.429 z m 12.215,5.696 q -3.75,-1.071 -7.304,-0.518 1.554,4.268 2.286,8.375 1.982,-1.339 3.304,-3.384 1.322,-2.045 1.714,-4.473 z M 10.911,4.625 q -0.018,0 -0.036,0.018 0.018,-0.018 0.036,-0.018 z m 10.535,2.589 q -3.304,-2.929 -7.732,-2.929 -1.357,0 -2.768,0.339 2.339,3.036 4.393,6.821 1.232,-0.464 2.321,-1.08 1.089,-0.616 1.723,-1.098 0.634,-0.482 1.17,-1.018 0.536,-0.536 0.67,-0.723 z m 3.983,8.661 Q 25.375,11.732 22.768,8.554 L 22.75,8.572 q -0.161,0.214 -0.339,0.438 -0.178,0.224 -0.777,0.795 -0.599,0.571 -1.268,1.08 -0.669,0.509 -1.786,1.161 -1.117,0.652 -2.348,1.152 0.446,0.946 0.786,1.696 0.036,0.107 0.116,0.313 0.08,0.206 0.134,0.295 0.643,-0.089 1.33,-0.125 0.687,-0.036 1.313,-0.036 0.626,0 1.232,0.027 0.606,0.027 1.143,0.071 0.537,0.044 1.009,0.098 0.472,0.054 0.857,0.116 0.385,0.062 0.652,0.107 0.267,0.045 0.446,0.08 z m 2,0.125 q 0,3.732 -1.839,6.884 -1.839,3.152 -4.991,4.991 -3.152,1.839 -6.884,1.839 -3.732,0 -6.884,-1.839 Q 3.679,26.036 1.84,22.884 0.001,19.732 0.001,16 0.001,12.268 1.84,9.116 3.679,5.964 6.831,4.125 9.983,2.286 13.715,2.286 q 3.732,0 6.884,1.839 3.152,1.839 4.991,4.991 1.839,3.152 1.839,6.884 z"
         id="path85" />
    </symbol>
    <symbol
       id="icon-skype"
       viewBox="0 0 27 32">
      <path
         class="path1"
         d="m 20.946,18.982 q 0,-0.893 -0.348,-1.634 -0.348,-0.741 -0.866,-1.223 -0.518,-0.482 -1.304,-0.875 -0.786,-0.393 -1.473,-0.607 -0.687,-0.214 -1.563,-0.411 l -1.857,-0.429 q -0.536,-0.125 -0.786,-0.188 -0.25,-0.063 -0.625,-0.205 -0.375,-0.142 -0.536,-0.286 -0.161,-0.144 -0.295,-0.375 -0.134,-0.231 -0.134,-0.536 0,-1.375 2.571,-1.375 0.768,0 1.375,0.214 0.607,0.214 0.964,0.509 0.357,0.295 0.679,0.598 0.322,0.303 0.714,0.518 0.392,0.215 0.857,0.214 0.839,0 1.348,-0.571 0.509,-0.571 0.509,-1.375 0,-0.982 -1,-1.777 -1,-0.795 -2.536,-1.205 -1.536,-0.41 -3.25,-0.411 -1.214,0 -2.357,0.277 Q 9.89,8.106 8.899,8.668 7.908,9.23 7.31,10.222 q -0.598,0.992 -0.598,2.295 0,1.089 0.339,1.902 0.339,0.813 1,1.348 0.661,0.535 1.429,0.866 0.768,0.331 1.839,0.58 l 2.607,0.643 q 1.607,0.393 2,0.643 0.571,0.357 0.571,1.071 0,0.696 -0.714,1.152 -0.714,0.456 -1.875,0.455 -0.911,0 -1.634,-0.286 Q 11.551,20.605 11.113,20.203 10.675,19.801 10.3,19.399 9.925,18.997 9.479,18.711 9.033,18.425 8.515,18.425 q -0.893,0 -1.348,0.536 -0.455,0.536 -0.455,1.339 0,1.643 2.179,2.813 2.179,1.17 5.196,1.17 1.304,0 2.5,-0.33 1.196,-0.33 2.188,-0.955 0.992,-0.625 1.58,-1.67 0.588,-1.045 0.589,-2.348 z m 6.483,3.875 q 0,2.839 -2.009,4.848 -2.009,2.009 -4.848,2.009 -2.321,0 -4.179,-1.429 -1.375,0.286 -2.679,0.286 -2.554,0 -4.884,-0.991 Q 6.5,26.589 4.812,24.901 3.124,23.213 2.133,20.883 1.142,18.553 1.142,15.999 q 0,-1.304 0.286,-2.679 -1.429,-1.857 -1.429,-4.179 0,-2.839 2.009,-4.848 2.009,-2.009 4.848,-2.009 2.321,0 4.179,1.429 1.375,-0.286 2.679,-0.286 2.554,0 4.884,0.991 2.33,0.991 4.018,2.679 1.688,1.688 2.679,4.018 0.991,2.33 0.991,4.884 0,1.304 -0.286,2.679 1.429,1.857 1.429,4.179 z"
         id="path88" />
    </symbol>
    <symbol
       id="icon-foursquare"
       viewBox="0 0 23 32">
      <path
         class="path1"
         d="M 17.857,7.75 18.518,4.286 Q 18.607,3.875 18.357,3.572 18.107,3.269 17.732,3.268 H 5.018 Q 4.607,3.268 4.33,3.572 4.053,3.876 4.053,4.233 v 19.661 q 0,0.125 0.107,0.018 l 5.196,-6.286 q 0.411,-0.464 0.679,-0.598 0.268,-0.134 0.857,-0.134 h 4.268 q 0.393,0 0.661,-0.259 0.268,-0.259 0.321,-0.527 0.429,-2.321 0.661,-3.411 0.071,-0.375 -0.205,-0.714 -0.276,-0.339 -0.652,-0.339 h -5.25 q -0.518,0 -0.857,-0.339 Q 9.5,10.966 9.5,10.448 V 9.698 Q 9.5,9.18 9.839,8.85 10.178,8.52 10.696,8.52 h 6.179 q 0.321,0 0.625,-0.241 0.304,-0.241 0.357,-0.527 z m 4.054,-3.964 q -0.268,1.304 -0.955,4.759 -0.687,3.455 -1.241,6.25 -0.554,2.795 -0.625,3.098 -0.107,0.393 -0.161,0.58 -0.054,0.187 -0.25,0.58 -0.196,0.393 -0.438,0.589 -0.242,0.196 -0.688,0.375 -0.446,0.179 -1.036,0.179 h -4.839 q -0.232,0 -0.393,0.179 -0.143,0.161 -7.607,8.821 Q 3.285,29.642 2.633,29.705 1.981,29.768 1.767,29.607 0.785,29.214 0.785,27.857 V 2.678 q 0,-0.982 0.679,-1.83 Q 2.143,0 3.607,0 h 15.857 q 1.696,0 2.268,0.946 0.572,0.946 0.179,2.839 z m 0,0 -2.821,14.107 q 0.071,-0.304 0.625,-3.098 0.554,-2.794 1.241,-6.25 0.687,-3.456 0.955,-4.759 z"
         id="path91" />
    </symbol>
    <symbol
       id="icon-wordpress"
       viewBox="0 0 32 32">
      <path
         class="path1"
         d="m 2.268,16 q 0,-2.911 1.196,-5.589 l 6.554,17.946 Q 6.518,26.661 4.393,23.339 2.268,20.017 2.268,16 Z m 23,-0.696 q 0,0.339 -0.045,0.688 -0.045,0.349 -0.179,0.884 -0.134,0.535 -0.205,0.786 -0.071,0.251 -0.313,1.054 -0.242,0.803 -0.313,1.036 L 22.856,24.323 17.892,9.573 Q 18.713,9.519 19.463,9.43 19.802,9.394 19.927,9.1 20.052,8.806 19.882,8.546 19.712,8.286 19.373,8.305 L 15.712,8.484 Q 14.373,8.466 12.105,8.305 11.891,8.287 11.739,8.394 q -0.152,0.107 -0.205,0.268 -0.053,0.161 -0.027,0.33 0.026,0.169 0.161,0.295 0.135,0.126 0.348,0.143 l 1.429,0.143 2.143,5.857 -3,9 -5,-14.857 Q 8.409,9.519 9.159,9.43 9.498,9.394 9.623,9.1 9.748,8.806 9.578,8.546 9.408,8.286 9.069,8.305 L 5.408,8.484 Q 5.283,8.484 4.997,8.475 4.711,8.466 4.533,8.466 6.408,5.609 9.435,3.939 q 3.027,-1.67 6.563,-1.67 2.625,0 5.009,0.946 2.384,0.946 4.259,2.661 h -0.179 q -0.982,0 -1.643,0.723 -0.661,0.723 -0.661,1.705 0,0.214 0.036,0.429 0.036,0.215 0.071,0.384 0.035,0.169 0.143,0.411 0.108,0.242 0.161,0.375 0.053,0.133 0.214,0.402 0.161,0.269 0.223,0.375 0.062,0.106 0.259,0.429 0.197,0.323 0.25,0.411 1.125,1.911 1.125,3.786 z m -9.036,1.892 4.232,11.554 q 0.018,0.107 0.089,0.196 -2.25,0.786 -4.554,0.786 -2,0 -3.875,-0.571 z M 28.036,9.411 q 1.696,3.107 1.696,6.589 0,3.732 -1.857,6.884 -1.857,3.152 -4.982,4.973 L 27.089,15.75 q 1.054,-3.018 1.054,-4.929 0,-0.75 -0.107,-1.411 z M 16,0 q 3.25,0 6.214,1.268 2.964,1.268 5.107,3.411 2.143,2.143 3.411,5.107 Q 32,12.75 32,16 q 0,3.25 -1.268,6.214 -1.268,2.964 -3.411,5.107 -2.143,2.143 -5.107,3.411 Q 19.25,32 16,32 12.75,32 9.786,30.732 6.822,29.464 4.679,27.321 2.536,25.178 1.268,22.214 0,19.25 0,16 0,12.75 1.268,9.786 2.536,6.822 4.679,4.679 6.822,2.536 9.786,1.268 12.75,0 16,0 Z m 0,31.268 q 3.089,0 5.92,-1.214 2.831,-1.214 4.875,-3.259 Q 28.839,24.75 30.054,21.92 31.269,19.09 31.268,16 31.267,12.91 30.054,10.08 28.841,7.25 26.795,5.205 24.749,3.16 21.92,1.946 19.091,0.732 16,0.732 12.909,0.732 10.08,1.946 7.251,3.16 5.205,5.205 3.159,7.25 1.946,10.08 0.733,12.91 0.732,16 q -0.001,3.09 1.214,5.92 1.215,2.83 3.259,4.875 2.044,2.045 4.875,3.259 2.831,1.214 5.92,1.214 z"
         id="path94" />
    </symbol>
    <symbol
       id="icon-stumbleupon"
       viewBox="0 0 34 32">
      <path
         class="path1"
         d="m 18.964,12.714 v -2.107 q 0,-0.75 -0.536,-1.286 -0.536,-0.536 -1.286,-0.536 -0.75,0 -1.286,0.536 -0.536,0.536 -0.536,1.286 v 10.929 q 0,3.125 -2.25,5.339 -2.25,2.214 -5.411,2.214 -3.179,0 -5.42,-2.241 -2.241,-2.241 -2.241,-5.42 v -4.75 h 5.857 v 4.679 q 0,0.768 0.536,1.295 0.536,0.527 1.286,0.527 0.75,0 1.286,-0.527 0.536,-0.527 0.536,-1.295 V 10.286 q 0,-3.054 2.259,-5.214 2.259,-2.16 5.384,-2.161 3.143,0 5.393,2.179 2.25,2.179 2.25,5.25 v 2.429 l -3.482,1.036 z m 9.465,3.965 h 5.857 v 4.75 q 0,3.179 -2.241,5.42 -2.241,2.241 -5.42,2.241 -3.161,0 -5.411,-2.223 -2.25,-2.223 -2.25,-5.366 v -4.786 l 2.339,1.089 3.482,-1.036 v 4.821 q 0,0.75 0.536,1.277 0.536,0.527 1.286,0.527 0.75,0 1.286,-0.527 0.536,-0.527 0.536,-1.277 v -4.911 z"
         id="path97" />
    </symbol>
    <symbol
       id="icon-digg"
       viewBox="0 0 37 32">
      <path
         class="path1"
         d="M 5.857,5.036 H 9.5 V 22.59 H 0 V 10.144 H 5.857 V 5.037 Z m 0,14.625 V 13.072 H 3.661 v 6.589 z m 5.107,-9.518 v 12.446 h 3.661 V 10.143 Z m 0,-5.107 v 3.643 h 3.661 V 5.036 Z m 5.125,5.107 h 9.518 v 16.821 h -9.518 v -2.911 h 5.857 v -1.464 h -5.857 z m 5.857,9.518 V 13.072 H 19.75 v 6.589 z m 5.125,-9.518 h 9.5 v 16.821 h -9.5 v -2.911 h 5.839 v -1.464 h -5.839 z m 5.84,9.518 v -6.589 h -2.196 v 6.589 z"
         id="path100" />
    </symbol>
    <symbol
       id="icon-spotify"
       viewBox="0 0 27 32">
      <path
         class="path1"
         d="m 20.125,21.607 q 0,-0.571 -0.536,-0.911 -3.446,-2.054 -7.982,-2.054 -2.375,0 -5.125,0.607 -0.75,0.161 -0.75,0.929 0,0.357 0.241,0.616 0.241,0.259 0.634,0.259 0.089,0 0.661,-0.143 2.357,-0.482 4.339,-0.482 4.036,0 7.089,1.839 0.339,0.196 0.589,0.196 0.339,0 0.589,-0.241 0.25,-0.241 0.25,-0.616 z m 1.714,-3.839 q 0,-0.714 -0.625,-1.089 -4.232,-2.518 -9.786,-2.518 -2.732,0 -5.411,0.75 -0.857,0.232 -0.857,1.143 0,0.446 0.313,0.759 0.313,0.313 0.759,0.313 0.125,0 0.661,-0.143 2.179,-0.589 4.482,-0.589 4.982,0 8.714,2.214 0.429,0.232 0.679,0.232 0.446,0 0.759,-0.313 0.313,-0.313 0.313,-0.759 z m 1.929,-4.429 q 0,-0.839 -0.714,-1.25 -2.25,-1.304 -5.232,-1.973 -2.982,-0.669 -6.125,-0.67 -3.643,0 -6.5,0.839 -0.411,0.125 -0.688,0.455 -0.277,0.33 -0.277,0.866 0,0.554 0.366,0.929 0.366,0.375 0.92,0.375 0.196,0 0.714,-0.143 2.375,-0.661 5.482,-0.661 2.839,0 5.527,0.607 2.688,0.607 4.527,1.696 0.375,0.214 0.714,0.214 0.518,0 0.902,-0.366 0.384,-0.366 0.384,-0.92 z M 27.429,16 q 0,3.732 -1.839,6.884 -1.839,3.152 -4.991,4.991 -3.152,1.839 -6.884,1.839 -3.732,0 -6.884,-1.839 Q 3.679,26.036 1.84,22.884 0.001,19.732 0.001,16 0.001,12.268 1.84,9.116 3.679,5.964 6.831,4.125 9.983,2.286 13.715,2.286 q 3.732,0 6.884,1.839 3.152,1.839 4.991,4.991 1.839,3.152 1.839,6.884 z"
         id="path103" />
    </symbol>
    <symbol
       id="icon-soundcloud"
       viewBox="0 0 41 32">
      <path
         class="path1"
         d="M 14,24.5 14.286,20.196 14,10.857 q -0.018,-0.179 -0.134,-0.304 -0.116,-0.125 -0.295,-0.125 -0.161,0 -0.286,0.125 -0.125,0.125 -0.125,0.304 l -0.25,9.339 0.25,4.304 q 0.018,0.179 0.134,0.295 0.116,0.116 0.277,0.116 0.393,0 0.429,-0.411 z M 19.286,23.982 19.482,20.214 19.268,9.75 q 0,-0.286 -0.232,-0.429 -0.143,-0.089 -0.286,-0.089 -0.143,0 -0.286,0.089 -0.232,0.143 -0.232,0.429 l -0.018,0.107 -0.179,10.339 q 0,0.018 0.196,4.214 v 0.018 q 0,0.179 0.107,0.304 0.161,0.196 0.411,0.196 0.196,0 0.357,-0.161 0.161,-0.125 0.161,-0.357 z m -18.661,-6.071 0.357,2.286 -0.357,2.25 q -0.036,0.161 -0.161,0.161 -0.125,0 -0.161,-0.161 l -0.304,-2.25 0.304,-2.286 q 0.036,-0.161 0.161,-0.161 0.125,0 0.161,0.161 z M 2.161,16.5 2.625,20.196 2.161,23.821 q -0.036,0.161 -0.179,0.161 -0.161,0 -0.161,-0.179 L 1.41,20.196 1.821,16.5 q 0,-0.161 0.161,-0.161 0.143,0 0.179,0.161 z m 1.643,-0.679 0.446,4.375 -0.446,4.232 q 0,0.196 -0.196,0.196 -0.179,0 -0.214,-0.196 L 3.019,20.196 3.394,15.821 q 0.036,-0.214 0.214,-0.214 0.196,0 0.196,0.214 z m 1.678,-0.125 0.411,4.5 -0.411,4.357 Q 5.446,24.785 5.232,24.785 5,24.785 5,24.553 L 4.625,20.196 5,15.696 q 0,-0.232 0.232,-0.232 0.214,0 0.25,0.232 z m 1.679,0.322 0.375,4.179 -0.375,4.393 q -0.036,0.286 -0.286,0.286 -0.107,0 -0.188,-0.08 -0.081,-0.08 -0.08,-0.205 L 6.25,20.198 6.607,16.019 q 0,-0.107 0.08,-0.188 0.08,-0.081 0.188,-0.08 0.25,0 0.286,0.268 z m 1.678,-2.607 0.375,6.786 -0.375,4.393 q 0,0.125 -0.089,0.223 -0.089,0.098 -0.214,0.098 -0.286,0 -0.321,-0.321 L 7.894,20.197 8.215,13.411 q 0.036,-0.321 0.321,-0.321 0.125,0 0.214,0.098 0.089,0.098 0.089,0.223 z m 1.679,-1.536 0.339,8.357 -0.339,4.357 q 0,0.143 -0.098,0.241 -0.098,0.098 -0.241,0.098 -0.321,0 -0.357,-0.339 L 9.536,20.232 9.822,11.875 q 0.036,-0.339 0.357,-0.339 0.143,0 0.241,0.098 0.098,0.098 0.098,0.241 z m 1.75,-0.714 0.321,9.036 -0.321,4.321 q -0.036,0.375 -0.393,0.375 -0.339,0 -0.375,-0.375 L 11.214,20.197 11.5,11.161 q 0,-0.161 0.116,-0.277 0.116,-0.116 0.259,-0.116 0.161,0 0.268,0.116 0.107,0.116 0.125,0.277 z m 7,13.25 z M 15.732,11.089 16,20.196 15.732,24.464 q 0,0.179 -0.134,0.313 -0.134,0.134 -0.313,0.134 -0.179,0 -0.304,-0.125 -0.125,-0.125 -0.143,-0.321 l -0.25,-4.268 0.25,-9.107 q 0,-0.196 0.134,-0.321 0.134,-0.125 0.313,-0.125 0.179,0 0.313,0.125 0.134,0.125 0.134,0.321 z m 1.768,0.34 0.25,8.786 -0.25,4.214 q 0,0.196 -0.143,0.339 -0.143,0.143 -0.339,0.143 -0.196,0 -0.339,-0.143 -0.143,-0.143 -0.161,-0.339 l -0.214,-4.214 0.214,-8.786 q 0.018,-0.214 0.161,-0.357 0.143,-0.143 0.339,-0.143 0.196,0 0.33,0.143 0.134,0.143 0.152,0.357 z m 3.786,8.785 -0.25,4.125 q 0,0.232 -0.161,0.393 -0.161,0.161 -0.393,0.161 -0.232,0 -0.393,-0.161 -0.161,-0.161 -0.179,-0.393 L 19.803,22.303 19.696,20.214 19.91,8.857 V 8.803 q 0.036,-0.268 0.214,-0.429 0.161,-0.125 0.357,-0.125 0.143,0 0.268,0.089 0.25,0.143 0.286,0.464 z m 19.857,-0.339 q 0,2.089 -1.482,3.563 -1.482,1.474 -3.571,1.473 H 22.054 Q 21.822,24.875 21.661,24.715 21.5,24.555 21.5,24.322 V 8.268 q 0,-0.411 0.5,-0.589 1.518,-0.607 3.232,-0.607 3.482,0 6.036,2.348 2.554,2.348 2.857,5.777 0.946,-0.393 1.964,-0.393 2.089,0 3.571,1.482 1.482,1.482 1.482,3.589 z"
         id="path106" />
    </symbol>
    <symbol
       id="icon-codepen"
       viewBox="0 0 32 32">
      <path
         class="path1"
         d="m 3.857,20.875 10.768,7.179 V 21.643 L 8.661,17.661 Z M 2.75,18.304 6.196,16 2.75,13.696 v 4.607 z m 14.625,9.75 10.768,-7.179 -4.804,-3.214 -5.964,3.982 z M 16,19.25 20.857,16 16,12.75 11.143,16 Z M 8.661,14.339 14.625,10.357 V 3.946 L 3.857,11.125 Z M 25.804,16 29.25,18.304 V 13.697 Z M 23.339,14.339 28.143,11.125 17.375,3.946 v 6.411 z M 32,11.125 v 9.75 q 0,0.732 -0.607,1.143 l -14.625,9.75 Q 16.393,32 16,32 15.607,32 15.232,31.768 L 0.607,22.018 Q 0,21.607 0,20.875 v -9.75 Q 0,10.393 0.607,9.982 L 15.232,0.232 Q 15.607,0 16,0 q 0.393,0 0.768,0.232 l 14.625,9.75 Q 32,10.393 32,11.125 Z"
         id="path109" />
    </symbol>
    <symbol
       id="icon-twitch"
       viewBox="0 0 32 32">
      <path
         class="path1"
         d="M 16,7.75 V 15.5 H 13.411 V 7.75 Z m 7.107,0 V 15.5 H 20.518 V 7.75 Z m 0,13.571 4.518,-4.536 V 2.589 H 6.304 v 18.732 h 5.821 v 3.875 L 16,21.321 Z M 30.214,0 v 18.089 l -7.75,7.75 h -5.821 l -3.875,3.875 H 8.893 V 25.839 H 1.786 V 5.16 l 1.946,-5.161 h 26.482 z"
         id="path112" />
    </symbol>
    <symbol
       id="icon-meanpath"
       viewBox="0 0 27 32">
      <path
         class="path1"
         d="m 23.411,15.036 v 2.036 q 0,0.429 -0.241,0.679 -0.241,0.25 -0.67,0.25 h -3.607 q -0.429,0 -0.679,-0.25 -0.25,-0.25 -0.25,-0.679 v -2.036 q 0,-0.429 0.25,-0.679 0.25,-0.25 0.679,-0.25 H 22.5 q 0.429,0 0.67,0.25 0.241,0.25 0.241,0.679 z m -8.75,4.107 v -4.464 q 0,-0.946 -0.58,-1.527 -0.58,-0.581 -1.527,-0.58 h -2.375 q -1.214,0 -1.714,0.929 -0.5,-0.929 -1.714,-0.929 H 4.43 q -0.946,0 -1.527,0.58 -0.581,0.58 -0.58,1.527 v 4.464 q 0,0.393 0.375,0.393 H 3.68 q 0.393,0 0.393,-0.393 v -4.107 q 0,-0.429 0.241,-0.679 0.241,-0.25 0.688,-0.25 h 1.679 q 0.429,0 0.679,0.25 0.25,0.25 0.25,0.679 v 4.107 q 0,0.393 0.375,0.393 h 0.964 q 0.393,0 0.393,-0.393 v -4.107 q 0,-0.429 0.25,-0.679 0.25,-0.25 0.679,-0.25 h 1.732 q 0.429,0 0.67,0.25 0.241,0.25 0.241,0.679 v 4.107 q 0,0.393 0.393,0.393 h 0.982 q 0.375,0 0.375,-0.393 z m 10.518,-1.714 v -2.75 q 0,-0.946 -0.589,-1.527 -0.589,-0.581 -1.536,-0.58 H 18.34 q -0.946,0 -1.536,0.58 -0.59,0.58 -0.589,1.527 V 22 q 0,0.375 0.393,0.375 h 0.982 q 0.375,0 0.375,-0.375 v -3.214 q 0.554,0.75 1.679,0.75 h 3.411 q 0.946,0 1.536,-0.58 0.59,-0.58 0.589,-1.527 z m 2.25,-11 v 19.143 q 0,1.714 -1.214,2.929 -1.214,1.215 -2.929,1.214 H 4.143 q -1.714,0 -2.929,-1.214 Q -0.001,27.287 0,25.572 V 6.429 Q 0,4.715 1.214,3.5 2.428,2.285 4.143,2.286 h 19.143 q 1.714,0 2.929,1.214 1.215,1.214 1.214,2.929 z"
         id="path115" />
    </symbol>
    <symbol
       id="icon-pinterest-p"
       viewBox="0 0 23 32">
      <path
         class="path1"
         d="M 0,10.661 Q 0,8.732 0.67,7.027 1.34,5.322 2.518,4.054 3.696,2.786 5.232,1.858 6.768,0.93 8.536,0.465 10.304,0 12.143,0.001 q 2.821,0 5.25,1.188 2.429,1.188 3.946,3.455 1.517,2.267 1.518,5.125 0,1.714 -0.339,3.357 -0.339,1.643 -1.071,3.161 -0.732,1.518 -1.786,2.67 -1.054,1.152 -2.589,1.839 -1.535,0.687 -3.375,0.688 -1.214,0 -2.411,-0.571 -1.197,-0.571 -1.714,-1.571 -0.179,0.696 -0.5,2.009 -0.321,1.313 -0.42,1.696 Q 8.553,23.43 8.286,24.315 8.019,25.2 7.822,25.583 7.625,25.966 7.251,26.699 6.877,27.432 6.43,28.083 5.983,28.734 5.323,29.628 L 5.073,29.717 4.912,29.538 Q 4.644,26.734 4.644,26.181 4.644,24.538 5.028,22.493 5.412,20.448 6.216,17.359 7.02,14.27 7.145,13.734 6.574,12.573 6.574,10.716 6.574,9.234 7.503,7.93 8.432,6.626 9.86,6.626 q 1.089,0 1.696,0.723 0.607,0.723 0.607,1.83 0,1.179 -0.786,3.411 -0.786,2.232 -0.786,3.339 0,1.125 0.804,1.866 0.804,0.741 1.946,0.741 0.982,0 1.821,-0.446 0.839,-0.446 1.402,-1.214 0.563,-0.768 1,-1.696 0.437,-0.928 0.679,-1.973 0.242,-1.045 0.357,-1.982 0.115,-0.937 0.116,-1.777 0,-3.089 -1.955,-4.813 -1.955,-1.724 -5.098,-1.723 -3.571,0 -5.964,2.313 -2.393,2.313 -2.393,5.866 0,0.786 0.223,1.518 0.223,0.732 0.482,1.161 0.259,0.429 0.482,0.813 0.223,0.384 0.223,0.545 0,0.5 -0.268,1.304 -0.268,0.804 -0.661,0.804 -0.036,0 -0.304,-0.054 -0.911,-0.268 -1.616,-1 Q 1.162,15.45 0.778,14.494 0.394,13.538 0.198,12.565 0.002,11.592 0.002,10.663 Z"
         id="path118" />
    </symbol>
    <symbol
       id="icon-periscope"
       viewBox="0 0 24 28">
      <path
         class="path1"
         d="M 12.285,1 C 6.696,1 2.277,5.643 2.277,11.243 c 0,5.851 7.77,14.578 10.007,14.578 1.959,0 9.729,-8.728 9.729,-14.578 C 22.015,5.643 17.596,1 12.285,1 Z m 0.032,15.551 c -3.473,0 -6.152,-2.611 -6.152,-5.664 0,-1.292 0.39,-2.472 1.065,-3.438 0.206,1.084 1.18,1.906 2.352,1.906 1.322,0 2.393,-1.043 2.393,-2.333 0,-0.832 -0.447,-1.561 -1.119,-1.975 0.467,-0.105 0.955,-0.161 1.46,-0.161 3.133,0 5.81,2.611 5.81,5.998 0,3.056 -2.677,5.667 -5.809,5.667 z"
         id="path121" />
    </symbol>
    <symbol
       id="icon-get-pocket"
       viewBox="0 0 31 32">
      <path
         class="path1"
         d="m 27.946,2.286 q 1.161,0 1.964,0.813 0.803,0.813 0.804,1.973 v 9.268 q 0,3.143 -1.214,6 -1.214,2.857 -3.259,4.911 -2.045,2.054 -4.893,3.259 -2.848,1.205 -5.973,1.205 -3.143,0 -5.991,-1.205 Q 6.536,27.305 4.482,25.251 2.428,23.197 1.214,20.34 0,17.483 0,14.34 V 5.072 Q 0,3.929 0.821,3.108 1.642,2.287 2.785,2.287 h 25.161 z m -12.571,19 q 0.839,0 1.464,-0.589 l 7.214,-6.929 q 0.661,-0.625 0.661,-1.518 0,-0.875 -0.616,-1.491 -0.616,-0.616 -1.491,-0.616 -0.839,0 -1.464,0.589 l -5.768,5.536 -5.768,-5.536 q -0.625,-0.589 -1.446,-0.589 -0.875,0 -1.491,0.616 -0.616,0.616 -0.616,1.491 0,0.911 0.643,1.518 l 7.232,6.929 q 0.589,0.589 1.446,0.589 z"
         id="path124" />
    </symbol>
    <symbol
       id="icon-vimeo"
       viewBox="0 0 32 32">
      <path
         class="path1"
         d="m 30.518,9.25 q -0.179,4.214 -5.929,11.625 -5.946,7.696 -10.036,7.696 -2.536,0 -4.286,-4.696 Q 9.481,21.018 7.91,15.268 6.624,10.589 5.106,10.589 q -0.321,0 -2.268,1.357 L 1.463,10.196 Q 1.892,9.821 3.392,8.473 4.892,7.125 5.713,6.41 8.499,3.946 10.017,3.803 q 1.696,-0.161 2.732,0.991 1.036,1.152 1.446,3.634 0.786,5.125 1.179,6.661 0.982,4.446 2.143,4.446 0.911,0 2.75,-2.875 1.804,-2.875 1.946,-4.393 0.232,-2.482 -1.946,-2.482 -1.018,0 -2.161,0.464 2.143,-7.018 8.196,-6.821 4.482,0.143 4.214,5.821 z"
         id="path127" />
    </symbol>
    <symbol
       id="icon-reddit-alien"
       viewBox="0 0 32 32">
      <path
         class="path1"
         d="m 32,15.107 q 0,1.036 -0.527,1.884 -0.527,0.848 -1.42,1.295 0.214,0.821 0.214,1.714 0,2.768 -1.902,5.125 -1.902,2.357 -5.188,3.723 -3.286,1.366 -7.143,1.366 -3.857,0 -7.134,-1.366 Q 5.623,27.482 3.721,25.125 1.819,22.768 1.819,20 q 0,-0.839 0.196,-1.679 -0.911,-0.446 -1.464,-1.313 -0.553,-0.867 -0.554,-1.902 0,-1.464 1.036,-2.509 1.036,-1.045 2.518,-1.045 1.518,0 2.589,1.125 3.893,-2.714 9.196,-2.893 L 17.407,0.48 q 0.054,-0.232 0.268,-0.375 0.214,-0.143 0.464,-0.089 l 6.589,1.446 q 0.321,-0.661 0.964,-1.063 0.643,-0.402 1.411,-0.402 1.107,0 1.893,0.777 0.786,0.777 0.786,1.884 0,1.107 -0.786,1.893 -0.786,0.786 -1.893,0.786 -1.107,0 -1.884,-0.777 Q 24.442,3.783 24.442,2.676 L 18.478,1.355 16.621,9.784 q 5.357,0.161 9.268,2.857 1.036,-1.089 2.554,-1.089 1.482,0 2.518,1.045 1.036,1.045 1.036,2.509 z M 7.464,18.661 q 0,1.107 0.777,1.893 0.777,0.786 1.884,0.786 1.107,0 1.893,-0.786 0.786,-0.786 0.786,-1.893 0,-1.107 -0.786,-1.884 Q 11.232,16 10.125,16 9.036,16 8.25,16.786 7.464,17.572 7.464,18.661 Z M 21.929,25 q 0.196,-0.196 0.196,-0.464 0,-0.268 -0.196,-0.464 -0.179,-0.179 -0.446,-0.179 -0.267,0 -0.464,0.179 -0.732,0.75 -2.161,1.107 -1.429,0.357 -2.857,0.357 -1.428,0 -2.857,-0.357 -1.429,-0.357 -2.161,-1.107 -0.196,-0.179 -0.464,-0.179 -0.268,0 -0.446,0.179 -0.196,0.179 -0.196,0.455 0,0.276 0.196,0.473 0.768,0.768 2.116,1.214 1.348,0.446 2.188,0.527 0.84,0.081 1.625,0.08 0.785,-0.001 1.625,-0.08 0.84,-0.079 2.188,-0.527 1.348,-0.448 2.116,-1.214 z m -0.054,-3.661 q 1.107,0 1.884,-0.786 0.777,-0.786 0.777,-1.893 0,-1.089 -0.786,-1.875 -0.786,-0.786 -1.875,-0.786 -1.107,0 -1.893,0.777 -0.786,0.777 -0.786,1.884 0,1.107 0.786,1.893 0.786,0.786 1.893,0.786 z"
         id="path130" />
    </symbol>
    <symbol
       id="icon-hashtag"
       viewBox="0 0 32 32">
      <path
         class="path1"
         d="m 17.696,18.286 1.143,-4.571 h -4.536 l -1.143,4.571 z m 13.715,-9 -1,4 q -0.125,0.429 -0.554,0.429 h -5.839 l -1.143,4.571 h 5.554 q 0.268,0 0.446,0.214 0.179,0.25 0.107,0.5 l -1,4 q -0.089,0.429 -0.554,0.429 h -5.839 l -1.446,5.857 q -0.125,0.429 -0.554,0.429 h -4 q -0.286,0 -0.464,-0.214 -0.161,-0.214 -0.107,-0.5 l 1.393,-5.571 h -4.536 l -1.446,5.857 q -0.125,0.429 -0.554,0.429 H 5.857 q -0.268,0 -0.446,-0.214 -0.161,-0.214 -0.107,-0.5 L 6.697,23.431 H 1.143 q -0.268,0 -0.446,-0.214 -0.161,-0.214 -0.107,-0.5 l 1,-4 Q 1.715,18.288 2.144,18.288 H 7.983 L 9.126,13.717 H 3.572 q -0.268,0 -0.446,-0.214 -0.179,-0.25 -0.107,-0.5 l 1,-4 Q 4.108,8.574 4.573,8.574 h 5.839 l 1.446,-5.857 q 0.125,-0.429 0.571,-0.429 h 4 q 0.268,0 0.446,0.214 0.161,0.214 0.107,0.5 l -1.393,5.571 h 4.536 l 1.446,-5.857 q 0.125,-0.429 0.571,-0.429 h 4 q 0.268,0 0.446,0.214 0.161,0.214 0.107,0.5 l -1.393,5.571 h 5.554 q 0.268,0 0.446,0.214 0.161,0.214 0.107,0.5 z"
         id="path133" />
    </symbol>
    <symbol
       id="icon-chain"
       viewBox="0 0 30 32">
      <path
         class="path1"
         d="M 26,21.714 Q 26,21 25.5,20.5 l -3.714,-3.714 q -0.5,-0.5 -1.214,-0.5 -0.75,0 -1.286,0.571 0.054,0.054 0.339,0.33 0.285,0.276 0.384,0.384 0.099,0.108 0.268,0.339 0.169,0.231 0.232,0.455 0.063,0.224 0.063,0.491 0,0.714 -0.5,1.214 -0.5,0.5 -1.214,0.5 -0.268,0 -0.491,-0.063 -0.223,-0.063 -0.455,-0.232 -0.232,-0.169 -0.339,-0.268 -0.107,-0.099 -0.384,-0.384 -0.277,-0.285 -0.33,-0.339 -0.589,0.554 -0.589,1.304 0,0.714 0.5,1.214 l 3.679,3.696 q 0.482,0.482 1.214,0.482 0.714,0 1.214,-0.464 l 2.625,-2.607 q 0.5,-0.5 0.5,-1.196 z M 13.446,9.125 q 0,-0.714 -0.5,-1.214 L 9.267,4.215 q -0.5,-0.5 -1.214,-0.5 -0.696,0 -1.214,0.482 L 4.214,6.804 q -0.5,0.5 -0.5,1.196 0,0.714 0.5,1.214 l 3.714,3.714 q 0.482,0.482 1.214,0.482 0.75,0 1.286,-0.554 -0.054,-0.054 -0.339,-0.33 Q 9.804,12.25 9.705,12.142 9.606,12.034 9.437,11.803 9.268,11.572 9.205,11.348 9.142,11.124 9.142,10.857 q 0,-0.714 0.5,-1.214 0.5,-0.5 1.214,-0.5 0.268,0 0.491,0.063 0.223,0.063 0.455,0.232 0.232,0.169 0.339,0.268 0.107,0.099 0.384,0.384 0.277,0.285 0.33,0.339 0.589,-0.554 0.589,-1.304 z m 15.983,12.589 q 0,2.143 -1.518,3.625 l -2.625,2.607 q -1.482,1.482 -3.625,1.482 -2.161,0 -3.643,-1.518 l -3.679,-3.696 q -1.482,-1.482 -1.482,-3.625 0,-2.196 1.571,-3.732 L 12.857,15.286 Q 11.321,16.857 9.143,16.857 7,16.857 5.5,15.357 L 1.786,11.643 q -1.5,-1.5 -1.5,-3.643 0,-2.143 1.518,-3.625 L 4.429,1.768 q 1.482,-1.482 3.625,-1.482 2.161,0 3.643,1.518 L 15.376,5.5 q 1.482,1.482 1.482,3.625 0,2.196 -1.571,3.732 l 1.571,1.571 q 1.536,-1.571 3.714,-1.571 2.143,0 3.643,1.5 l 3.714,3.714 q 1.5,1.5 1.5,3.643 z"
         id="path136" />
    </symbol>
    <symbol
       id="icon-thumb-tack"
       viewBox="0 0 21 32">
      <path
         class="path1"
         d="m 8.571,15.429 v -8 Q 8.571,7.179 8.41,7.018 8.249,6.857 7.999,6.857 7.749,6.857 7.588,7.018 7.427,7.179 7.427,7.429 v 8 q 0,0.25 0.161,0.411 0.161,0.161 0.411,0.161 0.25,0 0.411,-0.161 0.161,-0.161 0.161,-0.411 z m 12,6.285 q 0,0.464 -0.339,0.804 -0.339,0.34 -0.804,0.339 h -7.661 l -0.911,8.625 Q 10.82,31.696 10.668,31.848 10.516,32 10.302,32 H 10.284 Q 9.802,32 9.713,31.518 L 8.356,22.857 H 1.142 q -0.464,0 -0.804,-0.339 -0.34,-0.339 -0.339,-0.804 0,-2.196 1.402,-3.955 Q 2.803,16 4.571,16 V 6.857 Q 3.642,6.857 2.964,6.178 2.286,5.499 2.285,4.571 2.284,3.643 2.964,2.964 3.644,2.285 4.571,2.285 H 16 q 0.929,0 1.607,0.679 0.678,0.679 0.679,1.607 10e-4,0.928 -0.679,1.607 Q 16.927,6.857 16,6.857 V 16 q 1.768,0 3.17,1.759 1.402,1.759 1.402,3.955 z"
         id="path139" />
    </symbol>
    <symbol
       id="icon-arrow-left"
       viewBox="0 0 43 32">
      <path
         class="path1"
         d="M 42.311,14.044 C 42.133,13.866 41.778,13.688 41.6,13.688 H 7.822 L 18.133,3.199 c 0.178,-0.178 0.356,-0.533 0.356,-0.711 0,-0.356 -0.178,-0.533 -0.356,-0.711 l -1.6,-1.422 C 16.177,0.177 16,-0.001 15.644,-0.001 c -0.356,0 -0.533,0.178 -0.711,0.356 L 0.355,15.288 c -0.178,0.178 -0.356,0.533 -0.356,0.711 0,0.178 0.178,0.533 0.356,0.711 l 14.756,14.933 c 0,0.178 0.356,0.356 0.533,0.356 0.177,0 0.533,-0.178 0.711,-0.356 l 1.6,-1.6 c 0.178,-0.178 0.356,-0.533 0.356,-0.711 0,-0.178 -0.178,-0.533 -0.356,-0.711 L 7.644,18.132 h 33.778 c 0.178,0 0.533,-0.178 0.711,-0.356 0.356,-0.178 0.533,-0.356 0.533,-0.711 v -2.133 c 0,-0.356 -0.178,-0.711 -0.356,-0.889 z"
         id="path142" />
    </symbol>
    <symbol
       id="icon-arrow-right"
       viewBox="0 0 43 32">
      <path
         class="path1"
         d="m 0.356,17.956 c 0.178,0.178 0.533,0.356 0.711,0.356 H 34.845 L 24.534,28.801 c -0.178,0.178 -0.356,0.533 -0.356,0.711 0,0.356 0.178,0.533 0.356,0.711 l 1.6,1.6 c 0.178,0.178 0.533,0.356 0.711,0.356 0.178,0 0.533,-0.178 0.711,-0.356 L 42.312,16.89 c 0.178,-0.356 0.356,-0.711 0.356,-0.889 0,-0.178 -0.178,-0.533 -0.356,-0.711 L 27.556,0.357 c 0,-0.178 -0.356,-0.356 -0.533,-0.356 -0.177,0 -0.533,0.178 -0.711,0.356 l -1.6,1.6 c -0.178,0.178 -0.356,0.533 -0.356,0.711 0,0.178 0.178,0.533 0.356,0.711 L 35.023,13.868 H 1.245 c -0.178,0 -0.533,0.178 -0.711,0.356 -0.356,0.178 -0.533,0.356 -0.533,0.711 v 2.311 c 0,0.178 0.178,0.533 0.356,0.711 z"
         id="path145" />
    </symbol>
    <symbol
       id="icon-play"
       viewBox="0 0 22 28">
      <path
         d="M 21.625,14.484 0.875,26.015 C 0.391,26.281 0,26.046 0,25.499 v -23 C 0,1.952 0.391,1.718 0.875,1.983 l 20.75,11.531 c 0.484,0.266 0.484,0.703 0,0.969 z"
         id="path148" />
    </symbol>
    <symbol
       id="icon-pause"
       viewBox="0 0 24 28">
      <path
         d="m 24,3 v 22 c 0,0.547 -0.453,1 -1,1 h -8 c -0.547,0 -1,-0.453 -1,-1 V 3 c 0,-0.547 0.453,-1 1,-1 h 8 c 0.547,0 1,0.453 1,1 z M 10,3 v 22 c 0,0.547 -0.453,1 -1,1 H 1 C 0.453,26 0,25.547 0,25 V 3 C 0,2.453 0.453,2 1,2 h 8 c 0.547,0 1,0.453 1,1 z"
         id="path151" />
    </symbol>
    <symbol
       id="icon-chevron-up"
       viewBox="0 0 448 512">
      <path
         d="M240.971 130.524l194.343 194.343c9.373 9.373 9.373 24.569 0 33.941l-22.667 22.667c-9.357 9.357-24.522 9.375-33.901.04L224 227.495 69.255 381.516c-9.379 9.335-24.544 9.317-33.901-.04l-22.667-22.667c-9.373-9.373-9.373-24.569 0-33.941L207.03 130.525c9.372-9.373 24.568-9.373 33.941-.001z"
         id="path20001" />
    </symbol>
    <symbol
       viewBox="0 0 32 32"
       id="icon-t3p">
      <path
         id="path9748"
         d="m 16.762396,2.6184372 a 1.2897264,1.2897264 0 0 0 -1.116433,0.7424001 l -2.26813,4.852992 a 1.2897264,1.2897264 0 1 0 2.336136,1.091876 l 1.204589,-2.5760466 2.42996,4.3353903 A 1.2897264,1.2897264 0 1 0 21.598387,9.8044168 L 17.93928,3.2764594 A 1.2897264,1.2897264 0 0 0 16.762396,2.6184372 Z M 8.7502686,6.0678585 A 1.2897264,1.2897264 0 0 0 7.599202,6.8858209 L 0.09397158,26.047803 a 1.2897264,1.2897264 0 1 0 2.40162332,0.940752 l 6.6261883,-16.917151 6.1293658,8.785382 a 1.2897264,1.2897264 0 1 0 2.115116,-1.475984 L 9.8578864,6.6182042 A 1.2897264,1.2897264 0 0 0 8.7502686,6.0678585 Z M 24.909907,9.0525712 A 1.2897264,1.2897264 0 0 0 23.743728,9.7275949 L 16.609383,22.909447 a 1.2898623,1.2898623 0 1 0 2.268759,1.227888 l 5.762889,-10.649254 4.852991,13.4671 a 1.2897264,1.2897264 0 1 0 2.426811,-0.874004 L 26.091198,9.904537 A 1.2897264,1.2897264 0 0 0 24.909907,9.0525712 Z" />
    </symbol>
    <symbol
       viewBox="0 0 14 16"
       id="icon-calendar">
      <path
         id="path152"
         d="M 13,2 H 12 V 3.5 C 12,3.78 11.78,4 11.5,4 h -2 C 9.22,4 9,3.78 9,3.5 V 2 H 6 V 3.5 C 6,3.78 5.78,4 5.5,4 h -2 C 3.22,4 3,3.78 3,3.5 V 2 H 2 C 1.45,2 1,2.45 1,3 v 11 c 0,0.55 0.45,1 1,1 h 11 c 0.55,0 1,-0.45 1,-1 V 3 C 14,2.45 13.55,2 13,2 Z m 0,12 H 2 V 5 H 13 Z M 5,3 H 4 V 1 h 1 z m 6,0 H 10 V 1 h 1 z M 6,7 H 5 V 6 H 6 Z M 8,7 H 7 V 6 h 1 z m 2,0 H 9 V 6 h 1 z m 2,0 H 11 V 6 h 1 z M 4,9 H 3 V 8 H 4 Z M 6,9 H 5 V 8 H 6 Z M 8,9 H 7 V 8 h 1 z m 2,0 H 9 V 8 h 1 z m 2,0 H 11 V 8 h 1 z M 4,11 H 3 v -1 h 1 z m 2,0 H 5 v -1 h 1 z m 2,0 H 7 v -1 h 1 z m 2,0 H 9 v -1 h 1 z m 2,0 h -1 v -1 h 1 z M 4,13 H 3 v -1 h 1 z m 2,0 H 5 v -1 h 1 z m 2,0 H 7 v -1 h 1 z m 2,0 H 9 v -1 h 1 z"
         style="fill-rule:evenodd" />
    </symbol>
    <symbol
       viewBox="0 0 16 16"
       id="icon-comments">
      <path
         id="path153"
         d="M 15,1 H 6 C 5.45,1 5,1.45 5,2 V 4 H 1 C 0.45,4 0,4.45 0,5 v 6 c 0,0.55 0.45,1 1,1 h 1 v 3 l 3,-3 h 4 c 0.55,0 1,-0.45 1,-1 V 9 h 1 l 3,3 V 9 h 1 c 0.55,0 1,-0.45 1,-1 V 2 C 16,1.45 15.55,1 15,1 Z M 9,11 H 4.5 L 3,12.5 V 11 H 1 V 5 H 5 V 8 C 5,8.55 5.45,9 6,9 H 9 Z M 15,8 H 13 V 9.5 L 11.5,8 H 6 V 2 h 9 z"
         style="fill-rule:evenodd" />
    </symbol>
    <symbol
       viewBox="0 0 12 16"
       id="icon-person">
      <path
         id="path154"
         d="M 12,14.002 A 0.998,0.998 0 0 1 11.002,15 H 1.001 A 1,1 0 0 1 0,13.999 V 13 C 0,10.367 4,9 4,9 4,9 4.229,8.591 4,8 3.159,7.38 3.056,6.41 3,4 3.173,1.587 4.867,1 6,1 7.133,1 8.827,1.586 9,4 8.944,6.41 8.841,7.38 8,8 7.771,8.59 8,9 8,9 c 0,0 4,1.367 4,4 z"
         style="fill-rule:evenodd" />
    </symbol>
    <symbol
       id="icon-categories"
       viewBox="0 0 32 32">
      <path
         d="m 10.166653,13.857145 v 4.285713 c 0,0.710088 -0.5876168,1.285713 -1.3124996,1.285713 H 3.312505 c -0.7248828,0 -1.3125001,-0.575625 -1.3125001,-1.285713 v -4.285713 c 0,-0.710092 0.5876173,-1.285717 1.3125001,-1.285717 h 5.5416484 c 0.7248828,0 1.3124996,0.575625 1.3124996,1.285717 z m -8.1666481,8.571428 v 4.285714 C 2.0000049,27.424376 2.5876222,28 3.312505,28 h 5.5416484 c 0.7248828,0 1.3124996,-0.575624 1.3124996,-1.285713 v -4.285714 c 0,-0.710091 -0.5876168,-1.285715 -1.3124996,-1.285715 H 3.312505 c -0.7248828,0 -1.3125001,0.575624 -1.3125001,1.285715 z M 8.8541534,4 H 3.312505 C 2.5876222,4 2.0000049,4.5756247 2.0000049,5.2857143 v 4.2857141 c 0,0.7100896 0.5876173,1.2857136 1.3125001,1.2857136 h 5.5416484 c 0.7248828,0 1.3124996,-0.575624 1.3124996,-1.2857136 V 5.2857143 C 10.166653,4.5756247 9.5790362,4 8.8541534,4 Z m 4.3750006,24 h 15.458351 c 0.724883,0 1.3125,-0.575624 1.3125,-1.285713 v -4.285714 c 0,-0.710091 -0.587617,-1.285715 -1.3125,-1.285715 H 13.229154 c -0.724883,0 -1.312501,0.575624 -1.312501,1.285715 v 4.285714 C 11.916653,27.424376 12.504271,28 13.229154,28 Z M 11.916653,5.2857143 v 4.2857141 c 0,0.7100896 0.587618,1.2857136 1.312501,1.2857136 h 15.458351 c 0.724883,0 1.3125,-0.575624 1.3125,-1.2857136 V 5.2857143 C 30.000005,4.5756247 29.412388,4 28.687505,4 H 13.229154 c -0.724883,0 -1.312501,0.5756247 -1.312501,1.2857143 z m 1.312501,14.1428567 h 15.458351 c 0.724883,0 1.3125,-0.575625 1.3125,-1.285713 v -4.285713 c 0,-0.710092 -0.587617,-1.285717 -1.3125,-1.285717 H 13.229154 c -0.724883,0 -1.312501,0.575625 -1.312501,1.285717 v 4.285713 c 0,0.710088 0.587618,1.285713 1.312501,1.285713 z"
         id="path10569" />
    </symbol>
    <symbol
       id="icon-edit"
       viewBox="0 0 32 32">
      <path
         d="M 31.118709,8.8769157 28.237326,11.75828 c -0.293763,0.293762 -0.768786,0.293762 -1.062549,0 L 20.236955,4.8205043 c -0.293763,-0.2937617 -0.293763,-0.7687806 0,-1.0625424 l 2.881384,-2.88136461 c 1.168803,-1.16879651 3.068891,-1.16879651 4.243947,0 l 3.756423,3.75639951 c 1.175055,1.1687966 1.175055,3.0688721 0,4.2439189 z M 17.76184,6.2330604 1.3485815,22.646213 0.02352015,30.240266 c -0.1812584,1.025041 0.71253296,1.912575 1.73758035,1.737569 L 9.3552019,30.646532 25.768462,14.233378 c 0.293763,-0.293761 0.293763,-0.76878 0,-1.062541 L 18.83064,6.2330604 c -0.300013,-0.2937616 -0.775035,-0.2937616 -1.0688,0 z M 7.7551279,21.239908 c -0.3437659,-0.343764 -0.3437659,-0.893787 0,-1.237549 l 9.6254451,-9.625383 c 0.343766,-0.343764 0.893792,-0.343764 1.237559,0 0.343764,0.343763 0.343764,0.893785 0,1.237549 l -9.6254469,9.625383 c -0.3437659,0.343763 -0.8937913,0.343763 -1.2375572,0 z m -2.2563544,5.256458 h 3.0001387 v 2.268841 l -4.0314364,0.706278 -1.94384,-1.943828 0.7062827,-4.031409 h 2.268855 z"
         id="path10595" />
    </symbol>
    <symbol
       viewBox="0 0 32 32"
       id="icon-dpos">
      <path
         d="m -22.90625,6.1445312 a 1.0001,1.0001 0 0 0 -0.306641,0.048828 l -4.798828,0.890625 a 1.0001,1.0001 0 1 0 0.363281,1.9667968 l 2.5,-0.4628906 -8.392578,11.8867186 -0.478515,-2.583984 a 1.0001,1.0001 0 1 0 -1.966797,0.363281 l 0.888672,4.78711 a 1.0001,1.0001 0 0 0 1.316406,0.90625 l 4.789062,-0.886719 a 1.0002108,1.0002108 0 1 0 -0.365234,-1.966797 l -2.501953,0.464844 8.394531,-11.8886723 0.478516,2.5839843 a 1.0001,1.0001 0 1 0 1.966797,-0.363281 L -21.908203,7.1015625 A 1.0001,1.0001 0 0 0 -22.90625,6.1445312 Z m 12.9296875,0.4277344 a 1.50015,1.50015 0 0 0 -1.4257815,0.9609375 l -5,12.9999999 a 1.50015,1.50015 0 1 0 2.798828,1.078125 l 2.976563,-7.738281 3.142578,20.427734 a 1.50015,1.50015 0 1 0 2.9648438,-0.457031 l -4,-26 A 1.50015,1.50015 0 0 0 -9.9765625,6.5722656 Z M -20.095703,17.574219 a 1.50015,1.50015 0 0 0 -1.126953,0.626953 l -10,14 a 1.50015,1.50015 0 1 0 2.441406,1.742187 l 8.310547,-11.636718 2.511719,7.255859 A 1.50015,1.50015 0 1 0 -15.125,28.582031 l -3.460938,-10 a 1.50015,1.50015 0 0 0 -1.509765,-1.007812 z"
         id="path11050" />
    </symbol>
    <symbol
       viewBox="0 0 32 32"
       id="icon-distance">
      <path
         d="m 29.043547,14.674471 a 1.0009844,1.0083184 0 0 0 -0.45548,0.09452 l -4.175564,1.9101 a 1.0009844,1.0083184 0 0 0 -0.490669,1.352823 l 2.089738,4.401107 A 1.0009844,1.0083184 0 1 0 27.8159,21.562645 l -1.073213,-2.262582 c 1.059937,0.390093 1.877214,0.814191 2.404467,1.218919 0.612532,0.47019 0.814638,0.866723 0.846452,1.118492 0.03181,0.251769 -0.03486,0.530163 -0.484804,0.974742 -0.449939,0.444578 -1.275531,0.962217 -2.472887,1.429621 C 22.246485,25.911451 13.413719,26.266785 7.3681467,24.75074 4.3453602,23.992718 2.6219046,22.810485 2.2562083,22.12386 2.0733601,21.780548 2.0708754,21.629846 2.2796665,21.271207 2.4884576,20.912569 3.0338699,20.396215 3.9999364,19.896724 a 1.0009844,1.0083184 0 1 0 -0.912916,-1.793919 c -1.1708024,0.605348 -2.0326072,1.284654 -2.53544317,2.14837 -0.50283597,0.863716 -0.5215852,1.962199 -0.0606005,2.827735 0.92196967,1.731072 3.12629377,2.809668 6.39432137,3.62919 6.5360559,1.639042 15.4270689,1.340544 20.8739119,-0.785701 1.36171,-0.531562 2.407541,-1.135897 3.151221,-1.870717 0.74368,-0.73482 1.192517,-1.693141 1.069305,-2.668232 -0.123214,-0.97509 -0.74428,-1.796219 -1.618619,-2.467376 -0.725544,-0.55694 -1.664777,-1.037317 -2.801303,-1.463097 L 29.41497,16.606232 A 1.0009844,1.0083184 0 0 0 29.043547,14.674471 Z M 19.048389,6.0002551 A 1.5014766,1.5124777 0 0 0 17.619391,6.9690892 L 13.240522,18.441503 a 1.5015372,1.5125388 0 1 0 2.803259,1.085015 l 2.351687,-6.161548 1.696812,11.106147 c 1.044709,-0.09932 2.033464,-0.243124 2.975284,-0.415496 L 20.504753,7.2821881 a 1.5014766,1.5124777 0 0 0 -1.456364,-1.281933 z m -8.730371,9.7080329 a 1.5014766,1.5124777 0 0 0 -1.2784727,0.632105 l -4.4648824,6.295452 c 0.6929346,0.369055 1.6561218,0.775039 2.9107749,1.100769 l 2.3086803,-3.257015 1.3371189,3.896997 c 1.061039,0.125401 2.150249,0.211412 3.264603,0.250086 l -2.715289,-7.9023 A 1.5014766,1.5124777 0 0 0 10.318018,15.708288 Z M 2.1526012,26.052364 0.27985277,28.693028 A 1.5015344,1.512536 0 1 0 2.723418,30.451502 l 2.2852221,-3.22354 C 3.9289155,26.896173 2.9708723,26.518592 2.1526012,26.052364 Z m 21.5326958,2.047942 c -0.958771,0.184993 -1.951097,0.333573 -2.96942,0.443065 l 0.32646,2.140493 a 1.5014766,1.5124777 0 1 0 2.967466,-0.458818 z"
         id="path11037" />
    </symbol>
    <symbol
       viewBox="0 0 32 32"
       id="icon-flag">
      <path
         id="path11480"
         d="m 28.657207,4.1829809 c 1.326001,-0.6158755 2.842815,0.3514377 2.842815,1.8135012 V 21.190243 c 0,0.657875 -0.322563,1.275438 -0.865188,1.647376 -2.239814,1.535251 -4.645941,2.553626 -7.656568,2.553626 -4.210816,0 -6.97688,-2.173939 -10.32607,-2.173939 -3.1783145,0 -5.3827535,0.628626 -7.1521922,1.382626 v 5.900067 C 5.5000038,31.328437 4.8284408,32 4.0000028,32 H 3.0000021 C 2.171564,32 1.500001,31.328437 1.500001,30.499999 V 6.3715449 C 0.59356291,5.7390444 0,4.6891062 0,3.4999804 0,1.518479 1.6465636,-0.07839707 3.6461275,0.00297798 5.4253787,0.07535303 6.8823172,1.500979 6.9930673,3.2782302 7.0255673,3.7996056 6.9424423,4.2976059 6.7689422,4.7508563 8.064943,4.2739809 9.462069,3.9999807 11.021758,3.9999807 c 4.210815,0 6.976879,2.173939 10.326069,2.173939 2.531002,0 5.163254,-0.9941257 7.30938,-1.9909388 z M 5.5000038,8.4143588 V 12.819987 C 7.312505,12.153111 8.698756,11.705611 10.100007,11.513111 V 7.0399828 C 8.6312559,7.1756079 7.5725052,7.6518582 5.5000038,8.4143588 Z M 19.300013,8.9887342 C 17.64895,8.696734 16.182136,8.1150461 14.70001,7.6549832 v 4.2137528 c 1.510939,0.419125 2.972877,1.027751 4.600003,1.394376 z m -9.200006,2.5243768 v 4.377503 c 2.049751,-0.186125 3.369377,-0.03969 4.600003,0.2375 v -4.259378 c -1.577938,-0.439688 -2.911314,-0.588938 -4.600003,-0.355625 z m 4.600003,8.889381 c 1.646126,0.29075 3.108252,0.870438 4.600003,1.333751 V 17.523115 C 17.7827,17.10149 16.328761,16.494989 14.70001,16.128114 Z m -9.2000062,0.978751 c 1.476251,-0.524376 2.986877,-0.865001 4.6000032,-1.035001 v -4.455628 c -1.6318762,0.146875 -2.9600021,0.5025 -4.6000032,1.085001 z M 28.50002,7.5312332 c -1.331251,0.5531253 -2.911877,1.1025007 -4.600004,1.4043759 v 4.4943779 c 1.706877,-0.2725 3.126878,-0.88125 4.600004,-1.493126 z m 0,13.1225088 v -4.405628 c -1.386876,0.887501 -3.048752,1.413126 -4.600004,1.626251 v 4.473753 c 1.566877,-0.14875 3.030628,-0.69 4.600004,-1.694376 z m -9.200007,-7.39063 v 4.260003 c 1.604001,0.445875 2.913502,0.583875 4.600003,0.35125 v -4.444378 c -1.624938,0.261688 -3.121439,0.16725 -4.600003,-0.166875 z" />
    </symbol>
  </defs>
</svg>
